<?xml version="1.0" standalone="no"?>
<!DOCTYPE svg PUBLIC "-//W3C//DTD SVG 1.1//EN" "http://www.w3.org/Graphics/SVG/1.1/DTD/svg11.dtd" >
<svg xmlns="http://www.w3.org/2000/svg" xmlns:xlink="http://www.w3.org/1999/xlink" version="1.1">
<metadata></metadata>
<defs>
<font id="webfontregular" horiz-adv-x="1007" >
<font-face units-per-em="2048" ascent="1536" descent="-512" />
<missing-glyph horiz-adv-x="459" />
<glyph unicode="&#xfb01;" horiz-adv-x="982" d="M39 920v140h138v98q2 174 91 271t247 97q62 0 118 -17t118 -43l-30 -153q-95 49 -192 49q-98 0 -137.5 -52t-39.5 -158v-92h171v-140h-171v-920h-175v920h-138zM661 0v1060h174v-1060h-174z" />
<glyph unicode="&#xfb02;" horiz-adv-x="1011" d="M68 920v140h138v116q1 171 83.5 260.5t234.5 89.5q83 0 338 -60v-1466h-173v1353q-96 18 -150 18q-160 0 -160 -205v-106h182v-140h-182v-920h-173v920h-138z" />
<glyph horiz-adv-x="39" />
<glyph horiz-adv-x="39" />
<glyph unicode="&#xd;" horiz-adv-x="459" />
<glyph horiz-adv-x="39" />
<glyph unicode=" "  horiz-adv-x="459" />
<glyph unicode="&#x09;" horiz-adv-x="459" />
<glyph unicode="&#xa0;" horiz-adv-x="459" />
<glyph unicode="!" horiz-adv-x="492" d="M153 91q0 44 24.5 74t74.5 30q49 0 74 -30t25 -74t-25 -73t-74 -29q-50 0 -74.5 29t-24.5 73zM157 1427h182l-14 -1024h-155z" />
<glyph unicode="&#x22;" horiz-adv-x="641" d="M133 1021l1 484h137v-133l-29 -351h-109zM398 1021l1 484h137v-133l-29 -351h-109z" />
<glyph unicode="#" horiz-adv-x="1099" d="M128 402v134h214l58 347h-209v136h231l68 408h131l-67 -408h202l67 408h133l-68 -408h159v-136h-182l-57 -347h177v-134h-200l-67 -402h-132l67 402h-202l-67 -402h-131l66 402h-191zM473 536h202l58 347h-202z" />
<glyph unicode="$" horiz-adv-x="990" d="M109 420h172q0 -136 55 -209.5t155 -73.5q102 0 160.5 61.5t58.5 169.5q0 89 -49 150t-169 113q-175 64 -255.5 166.5t-80.5 259.5q0 161 78 262.5t212 123.5v215h138v-216q137 -25 212 -140t75 -314h-171q0 136 -50 218.5t-137.5 82.5t-136 -60t-48.5 -169 q0 -99 52.5 -158t171.5 -109q177 -67 254 -166.5t77 -257.5q0 -160 -82.5 -262t-236.5 -123v-188h-136v188q-155 23 -237 135.5t-82 300.5z" />
<glyph unicode="%" horiz-adv-x="1270" d="M105 1083v69q0 128 69 211.5t180 83.5q110 0 180 -82t70 -216v-72q0 -128 -69 -210.5t-179 -82.5t-180.5 82.5t-70.5 216.5zM231 1077q0 -78 34.5 -126.5t90.5 -48.5q54 0 87.5 47.5t33.5 131.5v71q0 80 -34 128.5t-89 48.5q-56 0 -89.5 -49t-33.5 -130v-73zM296 172 l585 1116l96 -65l-586 -1115zM681 278v72q0 128 69.5 211t179.5 83t180.5 -82.5t70.5 -218.5v-70q0 -129 -70.5 -211.5t-178.5 -82.5q-110 0 -180.5 82.5t-70.5 216.5zM808 273q0 -79 34 -127.5t90 -48.5q55 0 88.5 49t33.5 130v74q0 79 -34.5 127t-89.5 48q-54 0 -88 -47.5 t-34 -130.5v-74z" />
<glyph unicode="&#x26;" horiz-adv-x="1090" d="M101 383q0 101 48.5 187t185.5 199q-80 113 -110 186t-30 145q0 163 84 254.5t225 91.5q129 0 212.5 -86t83.5 -215q0 -85 -33.5 -156.5t-117.5 -144.5l-101 -86l251 -362q46 117 46 263h155q0 -247 -100 -408l174 -251h-208l-72 105q-56 -58 -135.5 -91.5t-164.5 -33.5 q-179 0 -286 112t-107 291zM273 383q0 -113 59 -184t162 -71q115 0 211 108l-284 413l-29 -25q-119 -112 -119 -241zM368 1105q0 -52 26 -108t69 -119l75 65q60 48 81.5 92.5t21.5 109t-39 109t-99 44.5q-64 0 -99.5 -55t-35.5 -138z" />
<glyph unicode="'" horiz-adv-x="349" d="M101 1036l1 469h146v-109l-21 -360h-126z" />
<glyph unicode="(" horiz-adv-x="630" d="M126 579q0 257 70 483.5t197 396.5q77 103 149 151l34 -119q-117 -113 -192.5 -340t-82.5 -504l-1 -80q0 -345 97 -609q73 -199 179 -308l-34 -111q-90 61 -183 200q-233 350 -233 840z" />
<glyph unicode=")" horiz-adv-x="638" d="M53 -350q123 119 198.5 362.5t77.5 533.5v35q0 373 -122 667q-68 160 -154 251l34 111q108 -72 209 -238q207 -341 207 -803q0 -437 -196 -773q-106 -180 -220 -257z" />
<glyph unicode="*" horiz-adv-x="864" d="M27 1052l46 148l295 -110l-8 337h150l-10 -342l291 108l45 -149l-301 -89l194 -266l-121 -92l-183 282l-176 -275l-123 89l197 270z" />
<glyph unicode="+" horiz-adv-x="996" d="M84 594v171h326v417h174v-417h322v-171h-322v-451h-174v451h-326z" />
<glyph unicode="," horiz-adv-x="393" d="M28 -214q93 129 96 265v164h178v-142q0 -99 -48.5 -198t-122.5 -159z" />
<glyph unicode="-" horiz-adv-x="497" d="M46 532v148h405v-148h-405z" />
<glyph unicode="." horiz-adv-x="528" d="M141 95q0 47 28 78.5t84 31.5t85 -31.5t29 -78.5q0 -45 -29 -75.5t-85 -30.5t-84 30.5t-28 75.5z" />
<glyph unicode="/" horiz-adv-x="743" d="M30 -122l501 1549h146l-500 -1549h-147z" />
<glyph unicode="0" horiz-adv-x="990" d="M113 581v245q0 313 92.5 466.5t288.5 153.5q193 0 285.5 -146t97.5 -442v-249q0 -316 -92 -472.5t-289 -156.5q-191 0 -285 150t-98 451zM285 580q0 -225 52 -338.5t159 -113.5q106 0 156 107t52 327v295q0 226 -50 333.5t-160 107.5q-107 0 -157 -105.5t-52 -318.5v-294 z" />
<glyph unicode="1" horiz-adv-x="990" d="M157 1074v165l447 195h27v-1434h-174v1208z" />
<glyph unicode="2" horiz-adv-x="990" d="M92 1006q0 197 108 318.5t293 121.5q170 0 268 -104t98 -278q0 -211 -220 -500l-318 -416h591v-148h-797v130l406 539q92 125 128 205t36 169q0 113 -53 184t-139 71q-109 0 -168 -75t-59 -217h-174z" />
<glyph unicode="3" horiz-adv-x="990" d="M96 376h174q0 -113 54.5 -180.5t149.5 -67.5q97 0 154.5 66t57.5 200q0 260 -246 260h-104v148h111q107 0 164.5 65.5t57.5 179.5q0 251 -194 251q-93 0 -146 -68t-53 -177h-172q0 171 104.5 282t266.5 111q169 0 268 -105t99 -298q0 -99 -51.5 -185t-133.5 -126 q201 -74 201 -334q0 -191 -106 -304.5t-278 -113.5q-169 0 -273.5 107.5t-104.5 288.5z" />
<glyph unicode="4" horiz-adv-x="990" d="M59 331v107l530 989h182v-948h159v-148h-159v-331h-173v331h-539zM251 479h347v678z" />
<glyph unicode="5" horiz-adv-x="990" d="M142 375h163q14 -122 69.5 -184.5t144.5 -62.5q101 0 158 88t57 237q0 140 -61 228t-165 88q-87 0 -139 -45l-46 -46l-138 37l62 712h620v-168h-474l-33 -389q88 62 190 62q166 0 261 -129.5t95 -347.5q0 -222 -103 -348.5t-284 -126.5q-160 0 -261 105t-116 290z" />
<glyph unicode="6" horiz-adv-x="990" d="M129 543v69q0 294 64 468.5t188 259.5t308 88h29v-154h-28q-174 -4 -272 -117t-112 -341q95 120 243 120q158 0 250.5 -130t92.5 -340q0 -225 -102.5 -355.5t-275.5 -130.5t-279 154t-106 409zM303 522q0 -173 61 -282.5t150 -109.5q98 0 152.5 90t54.5 237 q0 145 -54.5 236.5t-147.5 91.5q-70 0 -130 -54t-86 -137v-72z" />
<glyph unicode="7" horiz-adv-x="990" d="M83 1278v149h819v-102l-491 -1325h-182l490 1278h-636z" />
<glyph unicode="8" horiz-adv-x="990" d="M114 385q0 118 53 210.5t146 139.5q-81 47 -127 130t-46 189q0 181 97.5 286.5t257.5 105.5q159 0 256.5 -104.5t97.5 -287.5q0 -106 -47.5 -189.5t-128.5 -130.5q95 -49 149 -140.5t54 -208.5q0 -184 -104.5 -294.5t-277 -110.5t-276.5 110.5t-104 294.5zM286 389 q0 -123 54.5 -192t154.5 -69t154 69t54 192t-58 197t-152 74q-96 0 -151.5 -74.5t-55.5 -196.5zM314 1052q0 -112 50 -178t131 -66q83 0 132 67t49 177q0 108 -51 177t-130 69q-83 0 -132 -68t-49 -178z" />
<glyph unicode="9" horiz-adv-x="990" d="M102 953q0 223 100.5 358t273.5 135q181 0 282 -156t101 -432v-54q0 -238 -35.5 -385t-105 -237t-177.5 -136.5t-270 -46.5v153h31q184 4 279.5 112t103.5 346q-104 -133 -243 -133q-156 0 -248 131.5t-92 344.5zM271 962q0 -148 54 -241.5t146 -93.5q63 0 123 52.5 t93 137.5v77q0 177 -61.5 289.5t-149.5 112.5q-94 0 -149.5 -93t-55.5 -241z" />
<glyph unicode=":" horiz-adv-x="468" d="M135 95q0 47 28 78.5t84 31.5t85 -31.5t29 -78.5q0 -45 -29 -75.5t-85 -30.5t-84 30.5t-28 75.5zM136 960q0 47 28 78.5t84 31.5t85 -31.5t29 -78.5q0 -45 -29 -75.5t-85 -30.5t-84 30.5t-28 75.5z" />
<glyph unicode=";" horiz-adv-x="406" d="M42 -214q93 129 96 265v164h178v-142q0 -99 -48.5 -198t-122.5 -159zM113 960q0 47 28 78.5t84 31.5t85 -31.5t29 -78.5q0 -45 -29 -75.5t-85 -30.5t-84 30.5t-28 75.5z" />
<glyph unicode="&#x3c;" horiz-adv-x="894" d="M77 563v143l671 370v-192l-500 -253l500 -248v-192z" />
<glyph unicode="=" horiz-adv-x="961" d="M145 391v157h687v-157h-687zM145 798v158h687v-158h-687z" />
<glyph unicode="&#x3e;" horiz-adv-x="923" d="M133 192v188l531 258l-531 253v186l706 -370v-143z" />
<glyph unicode="?" horiz-adv-x="846" d="M78 1093q2 161 98 257t248 96q158 0 248 -98.5t90 -273.5q0 -167 -136 -334l-90 -109q-56 -79 -56 -229h-172q0 117 24.5 190.5t119.5 187.5l68 88q69 96 69 200q0 103 -42.5 161.5t-122.5 58.5q-74 0 -123.5 -53t-49.5 -142h-173zM304 91q0 44 24 74t74 30q49 0 74 -30 t25 -74t-25 -73t-74 -29q-50 0 -74 29t-24 73z" />
<glyph unicode="@" horiz-adv-x="1543" d="M114 468q8 270 100 485.5t247.5 332t351.5 116.5q202 0 349.5 -110t219 -315.5t63.5 -484.5q-8 -230 -98 -371t-245 -141q-152 0 -199 156q-45 -78 -99 -117t-110 -39q-120 0 -179.5 114.5t-44.5 314.5q12 159 62.5 287t129 200.5t163.5 72.5q70 0 124 -21.5t120 -82.5 l-44 -543q-16 -226 97 -226q87 0 142.5 106t62.5 290q15 383 -118 582t-400 199q-164 0 -287.5 -97.5t-194.5 -281.5t-79 -426q-14 -371 121 -580t388 -209q75 0 150 22t123 55l32 -113q-52 -38 -136.5 -62.5t-171.5 -24.5q-205 0 -353.5 110t-222 317t-64.5 485zM617 409 q-10 -139 22 -213.5t100 -74.5q43 0 82.5 47t66.5 135l2 19l38 499q-43 23 -87 23q-91 0 -151 -117.5t-73 -317.5z" />
<glyph unicode="A" horiz-adv-x="1156" d="M42 0l460 1427h154l460 -1427h-184l-113 372h-482l-111 -372h-184zM384 527h389l-195 649z" />
<glyph unicode="B" horiz-adv-x="1094" d="M154 0v1427h407q195 0 293.5 -95t98.5 -285q0 -100 -50 -176.5t-136 -118.5q98 -30 155.5 -121t57.5 -219q0 -192 -105.5 -302t-300.5 -110h-420zM333 154h245q102 0 162 67t60 189q0 257 -218 257h-249v-513zM333 818h231q93 0 150 63t57 167q0 117 -52 170.5t-158 53.5 h-228v-454z" />
<glyph unicode="C" horiz-adv-x="1137" d="M122 586v259q0 278 129.5 439.5t354.5 161.5q206 0 319.5 -123.5t123.5 -354.5h-182q-11 175 -73 249.5t-188 74.5q-146 0 -224.5 -114.5t-78.5 -334.5v-262q0 -216 73 -332t213 -116t202 69.5t76 250.5h182q-12 -230 -129 -351.5t-331 -121.5q-215 0 -341 163.5 t-126 442.5z" />
<glyph unicode="D" horiz-adv-x="1145" d="M154 0v1427h340q250 0 388 -156.5t138 -439.5v-239q0 -283 -140 -437.5t-407 -154.5h-319zM333 154h144q189 0 276.5 108t89.5 321v253q0 225 -87 330.5t-262 105.5h-161v-1118z" />
<glyph unicode="E" horiz-adv-x="996" d="M154 0v1427h757v-155h-578v-459h505v-153h-505v-506h588v-154h-767z" />
<glyph unicode="F" horiz-adv-x="964" d="M154 0v1427h743v-155h-564v-488h482v-154h-482v-630h-179z" />
<glyph unicode="G" horiz-adv-x="1185" d="M122 567v281q0 300 120 449t359 149q204 0 319 -113.5t127 -324.5h-180q-10 134 -73.5 209t-191.5 75q-154 0 -225.5 -100.5t-74.5 -321.5v-291q0 -215 82 -330.5t236 -115.5q145 0 221 71l26 24v330h-260v152h440v-533l-32 -39q-135 -158 -396 -158q-231 0 -363 153.5 t-134 433.5z" />
<glyph unicode="H" horiz-adv-x="1244" d="M154 0v1427h179v-614h574v614h181v-1427h-181v660h-574v-660h-179z" />
<glyph unicode="I" horiz-adv-x="501" d="M162 0v1427h179v-1427h-179z" />
<glyph unicode="J" horiz-adv-x="970" d="M58 394h179q0 -123 54 -191.5t150 -68.5q93 0 149 74.5t56 208.5v1010h180v-1011q0 -204 -104.5 -320t-280.5 -116q-181 0 -282 110t-101 304z" />
<glyph unicode="K" horiz-adv-x="1093" d="M154 0v1427h179v-689l118 156l384 533h216l-464 -628l500 -799h-215l-399 658l-140 -170v-488h-179z" />
<glyph unicode="L" horiz-adv-x="953" d="M154 0v1427h180v-1273h560v-154h-740z" />
<glyph unicode="M" horiz-adv-x="1516" d="M154 0v1427h231l373 -1164l372 1164h231v-1427h-179v556l17 556l-374 -1112h-137l-371 1108l16 -552v-556h-179z" />
<glyph unicode="N" horiz-adv-x="1242" d="M154 0v1427h180l573 -1105v1105h179v-1427h-180l-572 1100v-1100h-180z" />
<glyph unicode="O" horiz-adv-x="1205" d="M122 567v269q0 286 126.5 448t353.5 162q225 0 351 -155t129 -443v-260q0 -292 -124.5 -450t-353.5 -158q-221 0 -349 153.5t-133 433.5zM301 588q0 -219 76 -333.5t227 -114.5t223.5 106t75.5 324v268q0 226 -74 336.5t-227 110.5q-148 0 -224 -112t-77 -329v-256z" />
<glyph unicode="P" horiz-adv-x="1112" d="M154 0v1427h455q199 0 312.5 -119t113.5 -317q0 -206 -108.5 -317t-305.5 -115h-288v-559h-179zM333 712h276q119 0 183 72t64 205q0 128 -66 205.5t-180 77.5h-277v-560z" />
<glyph unicode="Q" horiz-adv-x="1205" d="M114 576v260q0 288 126.5 449t352.5 161q228 0 353.5 -157t127.5 -445v-255q0 -188 -50.5 -318t-143.5 -202l213 -191l-122 -119l-257 234q-61 -13 -119 -13q-223 0 -350.5 156.5t-130.5 439.5zM293 589q0 -220 76 -334.5t226 -114.5q149 0 222.5 104t77.5 320v274 q0 226 -74 336.5t-228 110.5q-147 0 -223 -112t-77 -329v-255z" />
<glyph unicode="R" horiz-adv-x="1065" d="M154 0v1427h400q209 0 317 -109.5t108 -319.5q0 -133 -58.5 -231.5t-164.5 -148.5l276 -606v-12h-193l-254 577h-251v-577h-180zM334 731h218q112 0 179.5 72.5t67.5 194.5q0 274 -249 274h-216v-541z" />
<glyph unicode="S" horiz-adv-x="1039" d="M83 414h181q0 -133 74 -206.5t201 -73.5q119 0 178.5 61t59.5 166q0 106 -57.5 163t-208.5 111t-231 113.5t-119.5 135t-39.5 173.5q0 170 113 279.5t296 109.5q126 0 224 -56t150.5 -156t52.5 -220h-180q0 133 -63.5 205.5t-183.5 72.5q-109 0 -168.5 -61t-59.5 -171 q0 -90 64.5 -150.5t199.5 -108.5q211 -70 301.5 -172t90.5 -266q0 -174 -112.5 -278.5t-306.5 -104.5q-124 0 -229.5 54.5t-166 153t-60.5 226.5z" />
<glyph unicode="T" horiz-adv-x="1044" d="M59 1272v155h929v-155h-376v-1272h-179v1272h-374z" />
<glyph unicode="U" horiz-adv-x="1127" d="M127 413v1014h179v-1008q0 -144 61 -215t197 -71q138 0 199 71t61 215v1008h180v-1014q-1 -203 -117 -318t-323 -115q-211 0 -323 112.5t-114 320.5z" />
<glyph unicode="V" horiz-adv-x="1124" d="M41 1427h196l325 -1152l326 1152h197l-444 -1427h-157z" />
<glyph unicode="W" horiz-adv-x="1528" d="M70 1427h179l177 -977l19 -160l28 141l229 996h150l221 -996l29 -145l20 165l175 976h179l-284 -1427h-162l-238 1040l-15 84l-15 -84l-247 -1040h-162z" />
<glyph unicode="X" horiz-adv-x="1105" d="M67 0l381 719l-374 708h210l271 -547l268 547h211l-372 -708l380 -719h-213l-274 557l-276 -557h-212z" />
<glyph unicode="Y" horiz-adv-x="1052" d="M29 1427h204l292 -717l292 717h203l-406 -895v-532h-179v532z" />
<glyph unicode="Z" horiz-adv-x="1048" d="M89 0v141l650 1131h-643v155h843v-138l-651 -1135h677v-154h-876z" />
<glyph unicode="[" horiz-adv-x="502" d="M134 -306v1937h326v-149h-152v-1639h152v-149h-326z" />
<glyph unicode="\" horiz-adv-x="740" d="M50 1427h164l499 -1549h-162z" />
<glyph unicode="]" horiz-adv-x="502" d="M29 -157h154v1639h-154v149h327v-1937h-327v149z" />
<glyph unicode="^" horiz-adv-x="744" d="M68 714l247 713h115l245 -713h-158l-146 473l-144 -473h-159z" />
<glyph unicode="_" horiz-adv-x="812" d="M24 0h765v-148h-765v148z" />
<glyph unicode="`" horiz-adv-x="620" d="M56 1503h218l191 -288h-156z" />
<glyph unicode="a" horiz-adv-x="961" d="M112 289q0 162 109.5 257t300.5 97h128v113q0 95 -42.5 135t-128.5 40q-78 0 -127 -46.5t-49 -118.5h-174q0 82 48 156t129.5 116t181.5 42q163 0 247.5 -81t86.5 -236v-535q1 -122 34 -212v-16h-181q-15 34 -22 116q-92 -136 -236 -136t-224.5 81t-80.5 228zM285 310 q0 -90 36.5 -131t122.5 -41q64 0 121.5 35.5t84.5 88.5v252h-98q-124 -1 -195.5 -54.5t-71.5 -149.5z" />
<glyph unicode="b" horiz-adv-x="989" d="M130 0v1505h173v-561q85 136 245 136q174 0 261.5 -123.5t88.5 -372.5v-105q0 -248 -89.5 -373.5t-258.5 -125.5t-253 145l-9 -125h-158zM303 276q65 -143 202 -143q117 0 168 82.5t52 255.5v107q0 188 -52.5 268t-169.5 80q-135 0 -200 -145v-505z" />
<glyph unicode="c" horiz-adv-x="927" d="M94 473v117q0 240 103 365t300 125q163 0 258.5 -103t101.5 -281h-164q-6 117 -56.5 176t-139.5 59q-116 0 -171.5 -76t-57.5 -249v-136q0 -187 55 -264.5t175 -77.5q86 0 138 53.5t57 152.5h164q-6 -153 -108.5 -253.5t-250.5 -100.5q-197 0 -300.5 124t-103.5 369z" />
<glyph unicode="d" horiz-adv-x="995" d="M93 469v109q0 245 91.5 373.5t263.5 128.5q152 0 237 -124v549h173v-1505h-158l-9 114q-85 -134 -244 -134q-165 0 -258.5 128t-95.5 361zM267 479q0 -178 52.5 -262t172.5 -84q129 0 193 131v535q-67 127 -192 127q-120 0 -172.5 -83.5t-53.5 -257.5v-106z" />
<glyph unicode="e" horiz-adv-x="939" d="M97 445v128q0 237 103.5 372t288.5 135q186 0 278 -118.5t94 -369.5v-114h-591v-24q0 -171 64 -248.5t184 -77.5q77 0 135 29t109 92l91 -110q-113 -159 -344 -159q-198 0 -304 118.5t-108 346.5zM270 627h418v24q-7 151 -54.5 215.5t-144.5 64.5q-108 0 -160 -74 t-59 -230z" />
<glyph unicode="f" horiz-adv-x="635" d="M68 920v140h138v123q3 162 82 252.5t223 90.5q52 0 104 -17l-8 -147q-38 9 -80 9q-148 0 -148 -211v-100h182v-140h-182v-920h-173v920h-138z" />
<glyph unicode="g" horiz-adv-x="988" d="M95 461v117q0 248 90 375t264 127q162 0 246 -138l9 118h156v-1070q0 -197 -100.5 -302t-281.5 -105q-78 0 -175.5 38.5t-146.5 95.5l70 119q108 -106 239 -106q216 0 222 237v138q-84 -125 -239 -125q-165 0 -257 124t-96 357zM269 479q0 -178 52 -262t172 -84 q129 0 194 133v530q-68 130 -192 130q-120 0 -172.5 -83.5t-53.5 -257.5v-106z" />
<glyph unicode="h" horiz-adv-x="969" d="M129 0v1505h174v-553q99 128 253 128q281 0 285 -375v-705h-173v697q0 124 -41.5 176.5t-124.5 52.5q-65 0 -116.5 -43t-82.5 -113v-770h-174z" />
<glyph unicode="i" horiz-adv-x="459" d="M133 1342q0 44 24.5 74t73.5 30t74 -30.5t25 -73.5q0 -44 -24.5 -73.5t-74.5 -29.5q-49 0 -73.5 29.5t-24.5 73.5zM143 0v1060h174v-1060h-174z" />
<glyph unicode="j" horiz-adv-x="448" d="M-23 -266q27 -7 68 -7q44 0 66 32.5t22 114.5v1186h174v-1193q-3 -295 -233 -295q-53 0 -96 17zM119 1342q0 44 24 74t73 30t74 -30.5t25 -73.5q0 -44 -24.5 -73.5t-74.5 -29.5q-49 0 -73 29.5t-24 73.5z" />
<glyph unicode="k" horiz-adv-x="904" d="M130 0v1505h174v-900l330 455h208l-337 -443l381 -617h-202l-288 485l-92 -106v-379h-174z" />
<glyph unicode="l" horiz-adv-x="459" d="M143 0v1505h174v-1505h-174z" />
<glyph unicode="m" horiz-adv-x="1510" d="M130 0v1060h163l4 -98q97 118 256 118q177 0 248 -154q100 154 278 154q293 0 300 -366v-714h-173v698q0 115 -41 171.5t-139 56.5q-78 0 -127 -60.5t-57 -155.5v-710h-175v706q-3 220 -179 220q-131 0 -185 -131v-795h-173z" />
<glyph unicode="n" horiz-adv-x="971" d="M129 0v1060h164l5 -114q101 134 258 134q281 0 285 -375v-705h-173v697q0 124 -41.5 176.5t-124.5 52.5q-65 0 -116.5 -43t-82.5 -113v-770h-174z" />
<glyph unicode="o" d="M93 464v115q0 231 112.5 366t296.5 135t296 -131.5t115 -357.5v-112q0 -230 -111.5 -364.5t-297.5 -134.5q-185 0 -296 130.5t-115 353.5zM267 479q0 -163 64 -257t173 -94q229 0 236 332v119q0 163 -64.5 257.5t-173.5 94.5q-107 0 -171 -94.5t-64 -256.5v-101z" />
<glyph unicode="p" horiz-adv-x="989" d="M130 -408v1468h157l9 -117q87 137 250 137q174 0 260.5 -121.5t89.5 -363.5v-116q0 -252 -91 -375.5t-256 -123.5q-160 0 -246 121v-509h-173zM303 250q64 -122 191 -122q118 0 173 85t56 259v106q0 179 -55 263.5t-176 84.5q-124 0 -189 -124v-552z" />
<glyph unicode="q" horiz-adv-x="1004" d="M93 469v109q0 248 90 375t269 127q154 0 239 -124l8 104h159v-1468h-174v501q-84 -113 -233 -113q-172 0 -264 125t-94 364zM267 479q0 -178 54.5 -264.5t174.5 -86.5q121 0 188 117v568q-71 118 -187 118q-120 0 -174.5 -86t-55.5 -260v-106z" />
<glyph unicode="r" horiz-adv-x="610" d="M129 0v1060h169l3 -107q69 127 197 127q41 0 68 -14l1 -168q-36 7 -78 7q-133 0 -186 -146v-759h-174z" />
<glyph unicode="s" horiz-adv-x="914" d="M97 317h174q3 -89 54 -139t143 -50q87 0 132 39t45 104q0 56 -42 96.5t-163 94.5q-140 57 -197.5 98.5t-86 94t-28.5 124.5q0 129 95 215t242 86q154 0 248.5 -90t94.5 -231h-173q0 71 -48 121.5t-122 50.5q-77 0 -120.5 -39.5t-43.5 -106.5q0 -53 32 -85.5t153 -85.5 q193 -75 262.5 -147t69.5 -183q0 -138 -95 -221t-255 -83q-165 0 -268 95.5t-103 241.5z" />
<glyph unicode="t" horiz-adv-x="592" d="M23 920v140h161v257h173v-257h159v-140h-159v-657q0 -63 20.5 -95.5t70.5 -32.5q34 0 69 12l-2 -147q-58 -20 -120 -20q-103 0 -157 73.5t-54 208.5v658h-161z" />
<glyph unicode="u" horiz-adv-x="970" d="M126 369v691h173v-678q0 -248 149 -248q158 0 217 141v785h174v-1060h-165l-4 93q-86 -113 -252 -113q-144 0 -217.5 99.5t-74.5 289.5z" />
<glyph unicode="v" horiz-adv-x="858" d="M45 1060h176l209 -796l201 796h177l-315 -1060h-129z" />
<glyph unicode="w" horiz-adv-x="1304" d="M49 1060h171l164 -737l197 737h137l202 -755l161 755h171l-259 -1060h-138l-207 759l-202 -759h-139z" />
<glyph unicode="x" horiz-adv-x="881" d="M51 0l295 536l-287 524h199l178 -387l181 387h201l-288 -524l295 -536h-199l-187 397l-188 -397h-200z" />
<glyph unicode="y" horiz-adv-x="835" d="M34 1060h189l196 -772l193 772h185l-347 -1210q-39 -136 -110.5 -207t-163.5 -71q-35 0 -90 15v147l38 -4q76 0 118.5 36t69.5 124l34 119z" />
<glyph unicode="z" horiz-adv-x="881" d="M92 0v133l486 777h-482v150h686v-128l-492 -784h512v-148h-710z" />
<glyph unicode="{" horiz-adv-x="614" d="M71 532v142q168 0 168 236v202q1 181 74.5 292t224.5 161l35 -113q-157 -61 -160 -328v-212q0 -221 -144 -309q144 -89 144 -311v-215q4 -262 159 -323l-34 -113q-148 49 -223 160t-76 292v203q0 236 -168 236z" />
<glyph unicode="|" horiz-adv-x="489" d="M172 -265v1692h146v-1692h-146z" />
<glyph unicode="}" horiz-adv-x="614" d="M38 -246q157 62 162 324v217q0 226 156 308q-156 80 -156 311v203q-2 273 -162 335l36 113q146 -48 220 -156.5t78 -282.5v-231q5 -221 169 -221v-142q-169 0 -169 -236v-200q0 -357 -298 -455z" />
<glyph unicode="~" horiz-adv-x="1182" d="M122 427q0 155 79 257t197 102q70 0 127 -36t118 -100q40 -49 73 -72.5t71 -23.5q58 0 96 57t38 149l141 1q0 -151 -79.5 -259t-195.5 -108q-63 0 -119.5 30t-126.5 106q-39 46 -72.5 71t-70.5 25q-61 0 -93.5 -52.5t-32.5 -144.5z" />
<glyph unicode="&#xa1;" horiz-adv-x="464" d="M133 976q0 44 24.5 73.5t74.5 29.5q49 0 74 -29.5t25 -73.5t-25 -74.5t-74 -30.5q-50 0 -74.5 30.5t-24.5 74.5zM145 -353l13 1023h157l12 -1023h-182z" />
<glyph unicode="&#xa2;" horiz-adv-x="962" d="M102 514v37q0 203 80.5 342t225.5 175v224h172v-220q124 -24 201 -126.5t82 -249.5h-163q-6 103 -60 169t-136 66q-111 0 -170.5 -97.5t-59.5 -289.5v-34q0 -188 59 -285t171 -97q76 0 133 59t63 147h163q-5 -122 -85.5 -219.5t-197.5 -125.5v-229h-172v232 q-144 34 -225 172t-81 350z" />
<glyph unicode="&#xa3;" horiz-adv-x="1025" d="M94 610v153h124l-7 255q0 194 104 311t274 117q158 0 251.5 -103t93.5 -278h-178q0 108 -50 167.5t-134 59.5q-80 0 -130.5 -76.5t-50.5 -197.5l8 -255h255v-153h-251l7 -216q-2 -150 -54 -240h602l-1 -154h-860v154h57q33 10 53.5 76t20.5 163l-6 217h-128z" />
<glyph unicode="&#xa4;" horiz-adv-x="1430" d="M103 107l136 138q-102 153 -102 351q0 202 110 361l-144 148l127 134l144 -147q155 117 346 117q192 0 348 -118l146 149l130 -135l-148 -150q107 -160 107 -359q0 -192 -100 -348l141 -141l-130 -133l-133 136q-156 -130 -361 -130q-203 0 -358 128l-132 -133zM305 596 q0 -121 56 -224.5t152.5 -163.5t207 -60t206.5 60.5t151.5 163.5t55.5 224q0 119 -55.5 222.5t-152 163t-206.5 59.5t-206.5 -59t-152.5 -163t-56 -223z" />
<glyph unicode="&#xa5;" horiz-adv-x="1065" d="M41 1427h205l281 -627l281 627h205l-340 -706h246v-122h-305v-162h305v-121h-305v-316h-181v316h-300v121h300v162h-300v122h249z" />
<glyph unicode="&#xa6;" horiz-adv-x="481" d="M144 -265v776h182v-776h-182zM144 684v743h182v-743h-182z" />
<glyph unicode="&#xa7;" horiz-adv-x="1078" d="M90 -63l174 2q0 -128 70 -201.5t191 -73.5q106 0 170.5 58t64.5 151q0 87 -57.5 138t-226.5 112q-214 68 -297.5 164t-83.5 253q0 91 39.5 159t111.5 109q-115 98 -115 280q0 162 112 260t297 98q194 0 302.5 -110.5t108.5 -311.5h-173q0 122 -64.5 198t-173.5 76 t-171.5 -55.5t-62.5 -152.5q0 -98 54.5 -146.5t222 -105.5t241.5 -109.5t110 -126t36 -180.5q0 -186 -155 -268q58 -48 88 -114.5t30 -164.5q0 -166 -109 -263t-299 -97q-202 0 -318.5 110t-116.5 312zM269 542q0 -99 52.5 -149t223.5 -110q86 -28 131 -49q59 22 90 70.5 t31 114.5q0 88 -55.5 140.5t-224.5 117.5q-83 27 -135 49q-113 -38 -113 -184z" />
<glyph unicode="&#xa8;" horiz-adv-x="838" d="M100 1344q0 44 27 73.5t80 29.5t80.5 -29.5t27.5 -74t-27.5 -73.5t-80.5 -29t-80 29t-27 74zM521 1342q0 44 27 74t80 30t80.5 -30t27.5 -74t-27.5 -73.5t-80.5 -29.5t-80 29.5t-27 73.5z" />
<glyph unicode="&#xa9;" horiz-adv-x="1576" d="M89 714q0 198 91.5 367.5t254 267t350.5 97.5t350 -97.5t253.5 -267t91.5 -367.5q0 -193 -88.5 -361.5t-250.5 -271t-356 -102.5q-193 0 -355 101.5t-251.5 270t-89.5 363.5zM202 714q0 -168 78.5 -311.5t213 -225t291.5 -81.5t291 81.5t212.5 225t78.5 311.5 q0 167 -77.5 309t-212 224t-292.5 82q-157 0 -292 -81t-213 -224t-78 -310zM433 662v108q0 173 93.5 276.5t245.5 103.5q157 0 241.5 -80.5t84.5 -226.5h-143q0 97 -47 138.5t-136 41.5q-92 0 -145 -67.5t-53 -188.5v-110q0 -118 53 -185.5t145 -67.5q90 0 136 41t46 140 h143q0 -150 -85 -229t-240 -79q-154 0 -246.5 103.5t-92.5 281.5z" />
<glyph unicode="&#xaa;" horiz-adv-x="794" d="M137 900q0 222 274 226h88v51q0 132 -90 132q-51 0 -79.5 -26.5t-28.5 -76.5l-150 12q0 102 72 165t186 63q111 0 176 -70t65 -200v-308q0 -94 21 -177h-153l-13 67q-62 -81 -163 -81q-99 0 -152 61t-53 162zM288 904q0 -93 92 -93q64 0 119 60v145h-69q-142 0 -142 -112 z" />
<glyph unicode="&#xab;" horiz-adv-x="838" d="M97 528v19l243 381h126l-207 -391l207 -389h-126zM376 528v19l243 381h126l-207 -391l207 -389h-126z" />
<glyph unicode="&#xac;" horiz-adv-x="978" d="M124 626v158h691v-416h-174v258h-517z" />
<glyph unicode="&#xad;" horiz-adv-x="497" d="M46 532v148h405v-148h-405z" />
<glyph unicode="&#xae;" horiz-adv-x="1577" d="M88 714q0 198 91.5 367.5t254 267t350.5 97.5t350 -97.5t253.5 -267t91.5 -367.5q0 -193 -88.5 -361.5t-250.5 -271t-356 -102.5q-193 0 -355 101.5t-251.5 270t-89.5 363.5zM201 714q0 -168 78.5 -311.5t213 -225t291.5 -81.5q158 0 293 83t212 225t77 310t-77 309.5 t-212 223.5t-293 82q-157 0 -292 -81t-213 -224t-78 -310zM502 310v832h270q150 0 233 -64.5t83 -186.5q0 -121 -126 -184q120 -49 121 -200v-60q0 -84 17 -122v-15h-143q-13 35 -13 125.5t-3 107.5q-16 94 -129 98h-172v-331h-138zM640 766h153q70 2 113.5 34.5t43.5 85.5 q0 71 -38.5 101t-136.5 30h-135v-251z" />
<glyph unicode="&#xaf;" horiz-adv-x="831" d="M122 1287v140h602v-140h-602z" />
<glyph unicode="&#xb0;" horiz-adv-x="749" d="M127 1192q0 102 73 178t177 76q102 0 174 -75.5t72 -178.5q0 -104 -72 -177.5t-174 -73.5q-103 0 -176.5 73.5t-73.5 177.5zM250 1192q0 -53 36.5 -89.5t90.5 -36.5q53 0 89.5 35t36.5 91q0 57 -36.5 93.5t-89.5 36.5q-54 0 -90.5 -38.5t-36.5 -91.5z" />
<glyph unicode="&#xb1;" horiz-adv-x="942" d="M103 689v148h309v405h154v-405h292v-148h-292v-406h-154v406h-309zM132 0v149h688v-149h-688z" />
<glyph unicode="&#xb2;" horiz-adv-x="661" d="M71 1181q0 112 70 184.5t180 72.5q114 0 178 -62.5t64 -170.5q0 -104 -96 -214l-197 -212h317v-125h-502v106l251 282q80 95 80 161q0 48 -23.5 78t-67.5 30q-56 0 -82 -37t-26 -93h-146z" />
<glyph unicode="&#xb3;" horiz-adv-x="661" d="M68 870h147q0 -44 27.5 -73.5t77.5 -29.5q53 0 80 29.5t27 79.5q0 112 -116 113h-74v113h65q114 0 114 107q0 43 -23.5 72t-74.5 29q-42 0 -69.5 -24t-27.5 -66h-146q0 95 68 156t173 61q115 0 181 -59.5t66 -161.5q0 -54 -29 -98.5t-84 -68.5q122 -40 122 -181 q0 -106 -72.5 -166t-184.5 -60t-179.5 62t-67.5 166z" />
<glyph unicode="&#xb4;" horiz-adv-x="629" d="M121 1215l189 288h219l-262 -288h-146z" />
<glyph unicode="&#xb5;" horiz-adv-x="1000" d="M144 -408v1468h173v-629q1 -156 39.5 -230t127.5 -74q144 0 198 132v801h175v-1060h-156l-8 100q-73 -120 -202 -120q-113 0 -174 66v-454h-173z" />
<glyph unicode="&#xb6;" horiz-adv-x="872" d="M70 968q0 209 109.5 334t296.5 125h238v-1427h-174v510h-68q-122 0 -213.5 56.5t-140 161.5t-48.5 240z" />
<glyph unicode="&#xb7;" horiz-adv-x="488" d="M135 714q0 47 26 78.5t78 31.5t78.5 -31.5t26.5 -78.5q0 -46 -26.5 -76.5t-78.5 -30.5t-78 30.5t-26 76.5z" />
<glyph unicode="&#xb8;" horiz-adv-x="459" d="M117 -131l27 131h123l-10 -51q59 -13 90 -57t31 -112q0 -95 -65 -150.5t-187 -55.5l-5 105q125 0 125 97q0 44 -26 64t-103 29z" />
<glyph unicode="&#xb9;" horiz-adv-x="661" d="M119 1194v125l301 115h17v-773h-146v589z" />
<glyph unicode="&#xba;" horiz-adv-x="808" d="M116 1026v75q0 150 78 247.5t209.5 97.5t210 -96t78.5 -254v-74q0 -154 -78.5 -250t-208.5 -96q-133 0 -211 97.5t-78 252.5zM268 1022q0 -99 37 -154.5t99.5 -55.5t99 56t36.5 157v76q0 97 -37 152.5t-99 55.5t-98.5 -54.5t-37.5 -151.5v-81z" />
<glyph unicode="&#xbb;" horiz-adv-x="838" d="M99 149l207 390l-207 391h129l243 -381v-19l-243 -381h-129zM396 149l207 390l-207 391h129l243 -381v-19l-243 -381h-129z" />
<glyph unicode="&#xbc;" horiz-adv-x="1278" d="M81 1184v126l301 114h17v-773h-146v589zM299 180l585 1116l95 -65l-586 -1115zM668 266l304 507h147v-480h83v-127h-83v-166h-145v166h-301zM811 293h163v273l-9 -17z" />
<glyph unicode="&#xbd;" horiz-adv-x="1360" d="M80 1184v126l301 114h17v-773h-146v589zM263 180l585 1116l95 -65l-586 -1115zM736 527q0 112 70 184.5t180 72.5q114 0 178 -62t64 -170q0 -105 -96 -215l-197 -212h317v-125h-502v106l251 282q80 95 80 162q0 48 -23.5 78t-67.5 30q-56 0 -82 -37.5t-26 -93.5h-146z " />
<glyph unicode="&#xbe;" horiz-adv-x="1351" d="M109 872h147q0 -45 27.5 -74t77.5 -29q53 0 80 29t27 79q0 112 -116 113h-74v114h65q114 0 114 107q0 43 -23.5 72t-74.5 29q-42 0 -69.5 -24t-27.5 -67h-146q0 95 68 156t173 61q115 0 181 -59.5t66 -160.5q0 -54 -29 -99t-84 -69q122 -39 122 -180q0 -106 -72.5 -166.5 t-184.5 -60.5t-179.5 62.5t-67.5 166.5zM398 180l585 1116l95 -65l-586 -1115zM735 266l304 507h147v-480h83v-127h-83v-166h-145v166h-301zM878 293h163v273l-9 -17z" />
<glyph unicode="&#xbf;" horiz-adv-x="845" d="M70 -5q0 166 131 340l84 108q57 82 57 223h173q-1 -101 -19 -163.5t-60 -122.5l-67 -88l-53 -73q-74 -103 -74 -219q0 -107 44.5 -163.5t129.5 -56.5q72 0 122.5 55t50.5 145h172q-1 -160 -97.5 -258.5t-247.5 -98.5q-164 0 -255 97.5t-91 274.5zM322 977q0 43 25 72.5 t74 29.5t73.5 -29.5t24.5 -72.5q0 -44 -24.5 -74.5t-73.5 -30.5t-74 30.5t-25 74.5z" />
<glyph unicode="&#xc0;" horiz-adv-x="1156" d="M42 0l460 1427h154l460 -1427h-184l-113 372h-482l-111 -372h-184zM277 1807h218l191 -288h-156zM384 527h389l-195 649z" />
<glyph unicode="&#xc1;" horiz-adv-x="1156" d="M42 0l460 1427h154l460 -1427h-184l-113 372h-482l-111 -372h-184zM384 527h389l-195 649zM483 1519l189 288h219l-262 -288h-146z" />
<glyph unicode="&#xc2;" horiz-adv-x="1156" d="M42 0l460 1427h154l460 -1427h-184l-113 372h-482l-111 -372h-184zM326 1531v12l205 266h102l206 -268v-10h-139l-118 167l-117 -167h-139zM384 527h389l-195 649z" />
<glyph unicode="&#xc3;" horiz-adv-x="1156" d="M42 0l460 1427h154l460 -1427h-184l-113 372h-482l-111 -372h-184zM286 1531q0 107 52 174.5t130 67.5q29 0 52.5 -11t59.5 -36.5t58.5 -36t48.5 -10.5q34 0 56.5 32t22.5 79l112 -12q0 -103 -51 -170t-131 -67q-34 0 -58.5 10t-64 40t-57 36.5t-39.5 6.5 q-34 0 -56 -31.5t-22 -78.5zM384 527h389l-195 649z" />
<glyph unicode="&#xc4;" horiz-adv-x="1156" d="M42 0l460 1427h154l460 -1427h-184l-113 372h-482l-111 -372h-184zM268 1648q0 44 27 73.5t80 29.5t80.5 -29.5t27.5 -74t-27.5 -73.5t-80.5 -29t-80 29t-27 74zM384 527h389l-195 649zM689 1646q0 44 27 74t80 30t80.5 -30t27.5 -74t-27.5 -73.5t-80.5 -29.5t-80 29.5 t-27 73.5z" />
<glyph unicode="&#xc5;" horiz-adv-x="1156" d="M42 0l460 1427h154l460 -1427h-184l-113 372h-482l-111 -372h-184zM372 1695q0 84 60 144t150 60t150.5 -60t60.5 -144q0 -85 -61 -142.5t-150 -57.5q-90 0 -150 58t-60 142zM384 527h389l-195 649zM469 1695q0 -46 32.5 -79.5t80.5 -33.5q47 0 80.5 32.5t33.5 80.5 t-33 81.5t-81 33.5q-49 0 -81 -34t-32 -81z" />
<glyph unicode="&#xc6;" horiz-adv-x="1629" d="M-2 0l724 1427h811v-149h-569l17 -462h485v-148h-480l18 -520h580v-148h-748l-13 346h-449l-164 -346h-212zM456 516h361l-24 709z" />
<glyph unicode="&#xc7;" horiz-adv-x="1137" d="M122 586v259q0 278 129.5 439.5t354.5 161.5q206 0 319.5 -123.5t123.5 -354.5h-182q-11 175 -73 249.5t-188 74.5q-146 0 -224.5 -114.5t-78.5 -334.5v-262q0 -216 73 -332t213 -116t202 69.5t76 250.5h182q-12 -230 -129 -351.5t-331 -121.5q-215 0 -341 163.5 t-126 442.5zM496 -140l27 131h123l-10 -51q59 -13 90 -57t31 -112q0 -95 -65 -150.5t-187 -55.5l-5 105q125 0 125 97q0 44 -26 64t-103 29z" />
<glyph unicode="&#xc8;" horiz-adv-x="996" d="M154 0v1427h757v-155h-578v-459h505v-153h-505v-506h588v-154h-767zM225 1819h218l191 -288h-156z" />
<glyph unicode="&#xc9;" horiz-adv-x="996" d="M154 0v1427h757v-155h-578v-459h505v-153h-505v-506h588v-154h-767zM430 1531l189 288h219l-262 -288h-146z" />
<glyph unicode="&#xca;" horiz-adv-x="996" d="M154 0v1427h757v-155h-578v-459h505v-153h-505v-506h588v-154h-767zM273 1543v12l205 266h102l206 -268v-10h-139l-118 167l-117 -167h-139z" />
<glyph unicode="&#xcb;" horiz-adv-x="996" d="M154 0v1427h757v-155h-578v-459h505v-153h-505v-506h588v-154h-767zM215 1660q0 44 27 73.5t80 29.5t80.5 -29.5t27.5 -74t-27.5 -73.5t-80.5 -29t-80 29t-27 74zM636 1658q0 44 27 74t80 30t80.5 -30t27.5 -74t-27.5 -73.5t-80.5 -29.5t-80 29.5t-27 73.5z" />
<glyph unicode="&#xcc;" horiz-adv-x="501" d="M-54 1819h218l191 -288h-156zM162 0v1427h179v-1427h-179z" />
<glyph unicode="&#xcd;" horiz-adv-x="501" d="M150 1531l189 288h219l-262 -288h-146zM162 0v1427h179v-1427h-179z" />
<glyph unicode="&#xce;" horiz-adv-x="501" d="M-6 1543v12l205 266h102l206 -268v-10h-139l-118 167l-117 -167h-139zM162 0v1427h179v-1427h-179z" />
<glyph unicode="&#xcf;" horiz-adv-x="501" d="M-64 1660q0 44 27 73.5t80 29.5t80.5 -29.5t27.5 -74t-27.5 -73.5t-80.5 -29t-80 29t-27 74zM162 0v1427h179v-1427h-179zM357 1658q0 44 27 74t80 30t80.5 -30t27.5 -74t-27.5 -73.5t-80.5 -29.5t-80 29.5t-27 73.5z" />
<glyph unicode="&#xd0;" horiz-adv-x="1175" d="M18 653v148h165v626h340q250 0 388.5 -156.5t138.5 -439.5v-239q0 -283 -140.5 -437.5t-406.5 -154.5h-320v653h-165zM363 154h144q189 0 276 108t89 321v253q0 225 -86.5 330.5t-262.5 105.5h-160v-471h186v-148h-186v-499z" />
<glyph unicode="&#xd1;" horiz-adv-x="1242" d="M154 0v1427h180l573 -1105v1105h179v-1427h-180l-572 1100v-1100h-180zM321 1531q0 107 52 174.5t130 67.5q29 0 52.5 -11t59.5 -36.5t58.5 -36t48.5 -10.5q34 0 56.5 32t22.5 79l112 -12q0 -103 -51 -170t-131 -67q-34 0 -58.5 10t-64 40t-57 36.5t-39.5 6.5 q-34 0 -56 -31.5t-22 -78.5z" />
<glyph unicode="&#xd2;" horiz-adv-x="1205" d="M122 567v269q0 286 126.5 448t353.5 162q225 0 351 -155t129 -443v-260q0 -292 -124.5 -450t-353.5 -158q-221 0 -349 153.5t-133 433.5zM301 588q0 -219 76 -333.5t227 -114.5t223.5 106t75.5 324v268q0 226 -74 336.5t-227 110.5q-148 0 -224 -112t-77 -329v-256z M301 1809h218l191 -288h-156z" />
<glyph unicode="&#xd3;" horiz-adv-x="1205" d="M122 567v269q0 286 126.5 448t353.5 162q225 0 351 -155t129 -443v-260q0 -292 -124.5 -450t-353.5 -158q-221 0 -349 153.5t-133 433.5zM301 588q0 -219 76 -333.5t227 -114.5t223.5 106t75.5 324v268q0 226 -74 336.5t-227 110.5q-148 0 -224 -112t-77 -329v-256z M506 1521l189 288h219l-262 -288h-146z" />
<glyph unicode="&#xd4;" horiz-adv-x="1205" d="M122 567v269q0 286 126.5 448t353.5 162q225 0 351 -155t129 -443v-260q0 -292 -124.5 -450t-353.5 -158q-221 0 -349 153.5t-133 433.5zM301 588q0 -219 76 -333.5t227 -114.5t223.5 106t75.5 324v268q0 226 -74 336.5t-227 110.5q-148 0 -224 -112t-77 -329v-256z M349 1533v12l205 266h102l206 -268v-10h-139l-118 167l-117 -167h-139z" />
<glyph unicode="&#xd5;" horiz-adv-x="1205" d="M122 567v269q0 286 126.5 448t353.5 162q225 0 351 -155t129 -443v-260q0 -292 -124.5 -450t-353.5 -158q-221 0 -349 153.5t-133 433.5zM301 588q0 -219 76 -333.5t227 -114.5t223.5 106t75.5 324v268q0 226 -74 336.5t-227 110.5q-148 0 -224 -112t-77 -329v-256z M309 1533q0 107 52 174.5t130 67.5q29 0 52.5 -11t59.5 -36.5t58.5 -36t48.5 -10.5q34 0 56.5 32t22.5 79l112 -12q0 -103 -51 -170t-131 -67q-34 0 -58.5 10t-64 40t-57 36.5t-39.5 6.5q-34 0 -56 -31.5t-22 -78.5z" />
<glyph unicode="&#xd6;" horiz-adv-x="1205" d="M122 567v269q0 286 126.5 448t353.5 162q225 0 351 -155t129 -443v-260q0 -292 -124.5 -450t-353.5 -158q-221 0 -349 153.5t-133 433.5zM291 1650q0 44 27 73.5t80 29.5t80.5 -29.5t27.5 -74t-27.5 -73.5t-80.5 -29t-80 29t-27 74zM301 588q0 -219 76 -333.5t227 -114.5 t223.5 106t75.5 324v268q0 226 -74 336.5t-227 110.5q-148 0 -224 -112t-77 -329v-256zM712 1648q0 44 27 74t80 30t80.5 -30t27.5 -74t-27.5 -73.5t-80.5 -29.5t-80 29.5t-27 73.5z" />
<glyph unicode="&#xd7;" horiz-adv-x="944" d="M89 980l111 121l266 -324l267 324l110 -121l-273 -330l271 -328l-111 -120l-264 320l-264 -320l-111 120l270 328z" />
<glyph unicode="&#xd8;" horiz-adv-x="1205" d="M115 675v83q0 203 59.5 360t171 242.5t256.5 85.5q175 0 296 -116l82 156h128l-133 -253q111 -178 115 -457v-109q0 -316 -131.5 -501.5t-354.5 -185.5q-138 0 -245 77l-78 -148h-128l119 228q-157 189 -157 538zM293 667q0 -223 69 -360l453 864q-80 114 -213 114 q-145 0 -227 -141.5t-82 -385.5v-91zM436 205q71 -65 168 -65q147 0 227 136t80 391v93q0 163 -36 282z" />
<glyph unicode="&#xd9;" horiz-adv-x="1127" d="M127 413v1014h179v-1008q0 -144 61 -215t197 -71q138 0 199 71t61 215v1008h180v-1014q-1 -203 -117 -318t-323 -115q-211 0 -323 112.5t-114 320.5zM259 1807h218l191 -288h-156z" />
<glyph unicode="&#xda;" horiz-adv-x="1127" d="M127 413v1014h179v-1008q0 -144 61 -215t197 -71q138 0 199 71t61 215v1008h180v-1014q-1 -203 -117 -318t-323 -115q-211 0 -323 112.5t-114 320.5zM464 1519l189 288h219l-262 -288h-146z" />
<glyph unicode="&#xdb;" horiz-adv-x="1127" d="M127 413v1014h179v-1008q0 -144 61 -215t197 -71q138 0 199 71t61 215v1008h180v-1014q-1 -203 -117 -318t-323 -115q-211 0 -323 112.5t-114 320.5zM307 1531v12l205 266h102l206 -268v-10h-139l-118 167l-117 -167h-139z" />
<glyph unicode="&#xdc;" horiz-adv-x="1127" d="M127 413v1014h179v-1008q0 -144 61 -215t197 -71q138 0 199 71t61 215v1008h180v-1014q-1 -203 -117 -318t-323 -115q-211 0 -323 112.5t-114 320.5zM249 1648q0 44 27 73.5t80 29.5t80.5 -29.5t27.5 -74t-27.5 -73.5t-80.5 -29t-80 29t-27 74zM670 1646q0 44 27 74 t80 30t80.5 -30t27.5 -74t-27.5 -73.5t-80.5 -29.5t-80 29.5t-27 73.5z" />
<glyph unicode="&#xdd;" horiz-adv-x="1052" d="M29 1427h204l292 -717l292 717h203l-406 -895v-532h-179v532zM430 1519l189 288h219l-262 -288h-146z" />
<glyph unicode="&#xde;" horiz-adv-x="1033" d="M151 0v1427h173v-287h219q187 -2 295 -116.5t108 -300.5q0 -188 -109.5 -302t-303.5 -114h-209v-307h-173zM324 456h214q110 0 172 74t62 191q0 121 -62 195t-168 75h-217l-1 1v-536z" />
<glyph unicode="&#xdf;" horiz-adv-x="1047" d="M130 0v1089q0 205 89.5 319.5t244.5 114.5q152 0 236 -86.5t84 -244.5q0 -123 -53.5 -222.5t-53.5 -166.5q0 -51 30.5 -97t107.5 -118t111 -137.5t34 -139.5q0 -162 -83.5 -246.5t-235.5 -84.5q-65 0 -139 21.5t-106 49.5l38 152q32 -28 88 -51.5t100 -23.5 q166 0 166 173q0 52 -31 100t-106 117t-111 138t-36 149q0 58 18.5 103t40.5 85.5t40.5 84t18.5 99.5q0 98 -42 147.5t-108 49.5q-166 0 -169 -276v-1098h-173z" />
<glyph unicode="&#xe0;" horiz-adv-x="961" d="M112 289q0 162 109.5 257t300.5 97h128v113q0 95 -42.5 135t-128.5 40q-78 0 -127 -46.5t-49 -118.5h-174q0 82 48 156t129.5 116t181.5 42q163 0 247.5 -81t86.5 -236v-535q1 -122 34 -212v-16h-181q-15 34 -22 116q-92 -136 -236 -136t-224.5 81t-80.5 228zM194 1503 h218l191 -288h-156zM285 310q0 -90 36.5 -131t122.5 -41q64 0 121.5 35.5t84.5 88.5v252h-98q-124 -1 -195.5 -54.5t-71.5 -149.5z" />
<glyph unicode="&#xe1;" horiz-adv-x="961" d="M112 289q0 162 109.5 257t300.5 97h128v113q0 95 -42.5 135t-128.5 40q-78 0 -127 -46.5t-49 -118.5h-174q0 82 48 156t129.5 116t181.5 42q163 0 247.5 -81t86.5 -236v-535q1 -122 34 -212v-16h-181q-15 34 -22 116q-92 -136 -236 -136t-224.5 81t-80.5 228zM285 310 q0 -90 36.5 -131t122.5 -41q64 0 121.5 35.5t84.5 88.5v252h-98q-124 -1 -195.5 -54.5t-71.5 -149.5zM399 1215l189 288h219l-262 -288h-146z" />
<glyph unicode="&#xe2;" horiz-adv-x="961" d="M112 289q0 162 109.5 257t300.5 97h128v113q0 95 -42.5 135t-128.5 40q-78 0 -127 -46.5t-49 -118.5h-174q0 82 48 156t129.5 116t181.5 42q163 0 247.5 -81t86.5 -236v-535q1 -122 34 -212v-16h-181q-15 34 -22 116q-92 -136 -236 -136t-224.5 81t-80.5 228zM242 1227 v12l205 266h102l206 -268v-10h-139l-118 167l-117 -167h-139zM285 310q0 -90 36.5 -131t122.5 -41q64 0 121.5 35.5t84.5 88.5v252h-98q-124 -1 -195.5 -54.5t-71.5 -149.5z" />
<glyph unicode="&#xe3;" horiz-adv-x="961" d="M112 289q0 162 109.5 257t300.5 97h128v113q0 95 -42.5 135t-128.5 40q-78 0 -127 -46.5t-49 -118.5h-174q0 82 48 156t129.5 116t181.5 42q163 0 247.5 -81t86.5 -236v-535q1 -122 34 -212v-16h-181q-15 34 -22 116q-92 -136 -236 -136t-224.5 81t-80.5 228zM202 1227 q0 107 52 174.5t130 67.5q29 0 52.5 -11t59.5 -36.5t58.5 -36t48.5 -10.5q34 0 56.5 32t22.5 79l112 -12q0 -103 -51 -170t-131 -67q-34 0 -58.5 10t-64 40t-57 36.5t-39.5 6.5q-34 0 -56 -31.5t-22 -78.5zM285 310q0 -90 36.5 -131t122.5 -41q64 0 121.5 35.5t84.5 88.5 v252h-98q-124 -1 -195.5 -54.5t-71.5 -149.5z" />
<glyph unicode="&#xe4;" horiz-adv-x="961" d="M112 289q0 162 109.5 257t300.5 97h128v113q0 95 -42.5 135t-128.5 40q-78 0 -127 -46.5t-49 -118.5h-174q0 82 48 156t129.5 116t181.5 42q163 0 247.5 -81t86.5 -236v-535q1 -122 34 -212v-16h-181q-15 34 -22 116q-92 -136 -236 -136t-224.5 81t-80.5 228zM184 1344 q0 44 27 73.5t80 29.5t80.5 -29.5t27.5 -74t-27.5 -73.5t-80.5 -29t-80 29t-27 74zM285 310q0 -90 36.5 -131t122.5 -41q64 0 121.5 35.5t84.5 88.5v252h-98q-124 -1 -195.5 -54.5t-71.5 -149.5zM605 1342q0 44 27 74t80 30t80.5 -30t27.5 -74t-27.5 -73.5t-80.5 -29.5 t-80 29.5t-27 73.5z" />
<glyph unicode="&#xe5;" horiz-adv-x="961" d="M112 289q0 162 109.5 257t300.5 97h128v113q0 95 -42.5 135t-128.5 40q-78 0 -127 -46.5t-49 -118.5h-174q0 82 48 156t129.5 116t181.5 42q163 0 247.5 -81t86.5 -236v-535q1 -122 34 -212v-16h-181q-15 34 -22 116q-92 -136 -236 -136t-224.5 81t-80.5 228zM285 310 q0 -90 36.5 -131t122.5 -41q64 0 121.5 35.5t84.5 88.5v252h-98q-124 -1 -195.5 -54.5t-71.5 -149.5zM289 1391q0 84 60 144t150 60t150.5 -60t60.5 -144q0 -85 -61 -142.5t-150 -57.5q-90 0 -150 58t-60 142zM386 1391q0 -46 32.5 -79.5t80.5 -33.5q47 0 80.5 32.5 t33.5 80.5t-33 81.5t-81 33.5q-49 0 -81 -34t-32 -81z" />
<glyph unicode="&#xe6;" horiz-adv-x="1461" d="M81 298q0 154 94.5 239t277.5 85h173v84q0 104 -42.5 164.5t-120.5 60.5q-80 0 -133.5 -53.5t-53.5 -133.5l-171 18q0 140 100.5 229t257.5 89q194 0 279 -150q109 150 275 150q177 0 273.5 -126.5t96.5 -354.5v-112h-590q5 -170 73 -265t187 -95q124 0 220 75l38 30 l58 -133q-50 -54 -135 -86.5t-181 -32.5q-215 0 -328 169q-55 -80 -149 -124.5t-207 -44.5q-136 0 -214 84t-78 234zM255 294q0 -79 40.5 -123t113.5 -44q92 0 188 87l29 29v242h-173q-89 -1 -143.5 -54t-54.5 -137zM800 627h414v31q0 132 -51 202.5t-146 70.5 q-89 0 -147.5 -85.5t-69.5 -218.5z" />
<glyph unicode="&#xe7;" horiz-adv-x="927" d="M94 473v117q0 240 103 365t300 125q163 0 258.5 -103t101.5 -281h-164q-6 117 -56.5 176t-139.5 59q-116 0 -171.5 -76t-57.5 -249v-136q0 -187 55 -264.5t175 -77.5q86 0 138 53.5t57 152.5h164q-6 -153 -108.5 -253.5t-250.5 -100.5q-197 0 -300.5 124t-103.5 369z M372 -140l27 131h123l-10 -51q59 -13 90 -57t31 -112q0 -95 -65 -150.5t-187 -55.5l-5 105q125 0 125 97q0 44 -26 64t-103 29z" />
<glyph unicode="&#xe8;" horiz-adv-x="939" d="M97 445v128q0 237 103.5 372t288.5 135q186 0 278 -118.5t94 -369.5v-114h-591v-24q0 -171 64 -248.5t184 -77.5q77 0 135 29t109 92l91 -110q-113 -159 -344 -159q-198 0 -304 118.5t-108 346.5zM179 1503h218l191 -288h-156zM270 627h418v24q-7 151 -54.5 215.5 t-144.5 64.5q-108 0 -160 -74t-59 -230z" />
<glyph unicode="&#xe9;" horiz-adv-x="939" d="M97 445v128q0 237 103.5 372t288.5 135q186 0 278 -118.5t94 -369.5v-114h-591v-24q0 -171 64 -248.5t184 -77.5q77 0 135 29t109 92l91 -110q-113 -159 -344 -159q-198 0 -304 118.5t-108 346.5zM270 627h418v24q-7 151 -54.5 215.5t-144.5 64.5q-108 0 -160 -74 t-59 -230zM385 1215l189 288h219l-262 -288h-146z" />
<glyph unicode="&#xea;" horiz-adv-x="939" d="M97 445v128q0 237 103.5 372t288.5 135q186 0 278 -118.5t94 -369.5v-114h-591v-24q0 -171 64 -248.5t184 -77.5q77 0 135 29t109 92l91 -110q-113 -159 -344 -159q-198 0 -304 118.5t-108 346.5zM228 1227v12l205 266h102l206 -268v-10h-139l-118 167l-117 -167h-139z M270 627h418v24q-7 151 -54.5 215.5t-144.5 64.5q-108 0 -160 -74t-59 -230z" />
<glyph unicode="&#xeb;" horiz-adv-x="939" d="M97 445v128q0 237 103.5 372t288.5 135q186 0 278 -118.5t94 -369.5v-114h-591v-24q0 -171 64 -248.5t184 -77.5q77 0 135 29t109 92l91 -110q-113 -159 -344 -159q-198 0 -304 118.5t-108 346.5zM170 1344q0 44 27 73.5t80 29.5t80.5 -29.5t27.5 -74t-27.5 -73.5 t-80.5 -29t-80 29t-27 74zM270 627h418v24q-7 151 -54.5 215.5t-144.5 64.5q-108 0 -160 -74t-59 -230zM591 1342q0 44 27 74t80 30t80.5 -30t27.5 -74t-27.5 -73.5t-80.5 -29.5t-80 29.5t-27 73.5z" />
<glyph unicode="&#xec;" horiz-adv-x="471" d="M-69 1502h218l191 -288h-156zM143 0v1060h174v-1060h-174z" />
<glyph unicode="&#xed;" horiz-adv-x="471" d="M135 1214l189 288h219l-262 -288h-146zM143 0v1060h174v-1060h-174z" />
<glyph unicode="&#xee;" horiz-adv-x="471" d="M-21 1226v12l205 266h102l206 -268v-10h-139l-118 167l-117 -167h-139zM143 0v1060h174v-1060h-174z" />
<glyph unicode="&#xef;" horiz-adv-x="471" d="M-79 1343q0 44 27 73.5t80 29.5t80.5 -29.5t27.5 -74t-27.5 -73.5t-80.5 -29t-80 29t-27 74zM143 0v1060h174v-1060h-174zM342 1341q0 44 27 74t80 30t80.5 -30t27.5 -74t-27.5 -73.5t-80.5 -29.5t-80 29.5t-27 73.5z" />
<glyph unicode="&#xf0;" horiz-adv-x="1029" d="M116 458q0 144 47.5 258.5t133.5 177.5t191 63q123 0 219 -98q-42 182 -149 311l-178 -140l-66 97l160 127q-107 90 -257 139l53 155q194 -52 340 -186l155 124l67 -98l-141 -112q213 -261 213 -662v-90q0 -156 -49.5 -279.5t-140.5 -194t-203 -70.5q-111 0 -202 62 t-142 172.5t-51 243.5zM289 458q0 -139 63.5 -234.5t161.5 -95.5q97 0 156 108t61 278v108l-2 59q-25 58 -78.5 92.5t-119.5 34.5q-112 0 -177 -94t-65 -256z" />
<glyph unicode="&#xf1;" horiz-adv-x="971" d="M129 0v1060h164l5 -114q101 134 258 134q281 0 285 -375v-705h-173v697q0 124 -41.5 176.5t-124.5 52.5q-65 0 -116.5 -43t-82.5 -113v-770h-174zM194 1227q0 107 52 174.5t130 67.5q29 0 52.5 -11t59.5 -36.5t58.5 -36t48.5 -10.5q34 0 56.5 32t22.5 79l112 -12 q0 -103 -51 -170t-131 -67q-34 0 -58.5 10t-64 40t-57 36.5t-39.5 6.5q-34 0 -56 -31.5t-22 -78.5z" />
<glyph unicode="&#xf2;" d="M93 464v115q0 231 112.5 366t296.5 135t296 -131.5t115 -357.5v-112q0 -230 -111.5 -364.5t-297.5 -134.5q-185 0 -296 130.5t-115 353.5zM189 1503h218l191 -288h-156zM267 479q0 -163 64 -257t173 -94q229 0 236 332v119q0 163 -64.5 257.5t-173.5 94.5 q-107 0 -171 -94.5t-64 -256.5v-101z" />
<glyph unicode="&#xf3;" d="M93 464v115q0 231 112.5 366t296.5 135t296 -131.5t115 -357.5v-112q0 -230 -111.5 -364.5t-297.5 -134.5q-185 0 -296 130.5t-115 353.5zM267 479q0 -163 64 -257t173 -94q229 0 236 332v119q0 163 -64.5 257.5t-173.5 94.5q-107 0 -171 -94.5t-64 -256.5v-101z M394 1215l189 288h219l-262 -288h-146z" />
<glyph unicode="&#xf4;" d="M93 464v115q0 231 112.5 366t296.5 135t296 -131.5t115 -357.5v-112q0 -230 -111.5 -364.5t-297.5 -134.5q-185 0 -296 130.5t-115 353.5zM237 1227v12l205 266h102l206 -268v-10h-139l-118 167l-117 -167h-139zM267 479q0 -163 64 -257t173 -94q229 0 236 332v119 q0 163 -64.5 257.5t-173.5 94.5q-107 0 -171 -94.5t-64 -256.5v-101z" />
<glyph unicode="&#xf5;" d="M93 464v115q0 231 112.5 366t296.5 135t296 -131.5t115 -357.5v-112q0 -230 -111.5 -364.5t-297.5 -134.5q-185 0 -296 130.5t-115 353.5zM198 1227q0 107 52 174.5t130 67.5q29 0 52.5 -11t59.5 -36.5t58.5 -36t48.5 -10.5q34 0 56.5 32t22.5 79l112 -12 q0 -103 -51 -170t-131 -67q-34 0 -58.5 10t-64 40t-57 36.5t-39.5 6.5q-34 0 -56 -31.5t-22 -78.5zM267 479q0 -163 64 -257t173 -94q229 0 236 332v119q0 163 -64.5 257.5t-173.5 94.5q-107 0 -171 -94.5t-64 -256.5v-101z" />
<glyph unicode="&#xf6;" d="M93 464v115q0 231 112.5 366t296.5 135t296 -131.5t115 -357.5v-112q0 -230 -111.5 -364.5t-297.5 -134.5q-185 0 -296 130.5t-115 353.5zM179 1344q0 44 27 73.5t80 29.5t80.5 -29.5t27.5 -74t-27.5 -73.5t-80.5 -29t-80 29t-27 74zM267 479q0 -163 64 -257t173 -94 q229 0 236 332v119q0 163 -64.5 257.5t-173.5 94.5q-107 0 -171 -94.5t-64 -256.5v-101zM600 1342q0 44 27 74t80 30t80.5 -30t27.5 -74t-27.5 -73.5t-80.5 -29.5t-80 29.5t-27 73.5z" />
<glyph unicode="&#xf7;" horiz-adv-x="1003" d="M77 588v180h823v-180h-823zM388 275q0 47 26 78.5t78 31.5t78.5 -31.5t26.5 -78.5q0 -45 -26.5 -75.5t-78.5 -30.5t-78 30.5t-26 75.5zM388 1076q0 47 26 78.5t78 31.5t78.5 -31.5t26.5 -78.5q0 -46 -26.5 -76.5t-78.5 -30.5t-78 30.5t-26 76.5z" />
<glyph unicode="&#xf8;" horiz-adv-x="1000" d="M95 540q0 240 112.5 390t294.5 150q88 0 164 -38l59 142h112l-84 -202q159 -152 159 -464q0 -238 -112.5 -388t-295.5 -150q-80 0 -153 32l-60 -143h-112l84 201q-168 145 -168 470zM268 518q0 -176 63 -284l276 665q-46 32 -105 32q-106 0 -170 -106t-64 -307zM410 153 q43 -25 94 -25q108 0 171 106.5t63 305.5q0 165 -56 270z" />
<glyph unicode="&#xf9;" horiz-adv-x="970" d="M126 369v691h173v-678q0 -248 149 -248q158 0 217 141v785h174v-1060h-165l-4 93q-86 -113 -252 -113q-144 0 -217.5 99.5t-74.5 289.5zM179 1503h218l191 -288h-156z" />
<glyph unicode="&#xfa;" horiz-adv-x="970" d="M126 369v691h173v-678q0 -248 149 -248q158 0 217 141v785h174v-1060h-165l-4 93q-86 -113 -252 -113q-144 0 -217.5 99.5t-74.5 289.5zM385 1215l189 288h219l-262 -288h-146z" />
<glyph unicode="&#xfb;" horiz-adv-x="970" d="M126 369v691h173v-678q0 -248 149 -248q158 0 217 141v785h174v-1060h-165l-4 93q-86 -113 -252 -113q-144 0 -217.5 99.5t-74.5 289.5zM228 1227v12l205 266h102l206 -268v-10h-139l-118 167l-117 -167h-139z" />
<glyph unicode="&#xfc;" horiz-adv-x="970" d="M126 369v691h173v-678q0 -248 149 -248q158 0 217 141v785h174v-1060h-165l-4 93q-86 -113 -252 -113q-144 0 -217.5 99.5t-74.5 289.5zM170 1344q0 44 27 73.5t80 29.5t80.5 -29.5t27.5 -74t-27.5 -73.5t-80.5 -29t-80 29t-27 74zM591 1342q0 44 27 74t80 30t80.5 -30 t27.5 -74t-27.5 -73.5t-80.5 -29.5t-80 29.5t-27 73.5z" />
<glyph unicode="&#xfd;" horiz-adv-x="835" d="M34 1060h189l196 -772l193 772h185l-347 -1210q-39 -136 -110.5 -207t-163.5 -71q-35 0 -90 15v147l38 -4q76 0 118.5 36t69.5 124l34 119zM337 1215l189 288h219l-262 -288h-146z" />
<glyph unicode="&#xfe;" horiz-adv-x="1020" d="M139 -408v1913h173v-536q90 111 243 111q164 0 257 -145.5t93 -416.5q0 -242 -93.5 -390t-253.5 -148q-154 0 -246 106v-494h-173zM312 260q63 -132 191 -132q107 0 168 105t61 306q0 176 -60.5 281.5t-170.5 105.5q-124 0 -189 -135v-531z" />
<glyph unicode="&#xff;" horiz-adv-x="835" d="M34 1060h189l196 -772l193 772h185l-347 -1210q-39 -136 -110.5 -207t-163.5 -71q-35 0 -90 15v147l38 -4q76 0 118.5 36t69.5 124l34 119zM122 1344q0 44 27 73.5t80 29.5t80.5 -29.5t27.5 -74t-27.5 -73.5t-80.5 -29t-80 29t-27 74zM543 1342q0 44 27 74t80 30 t80.5 -30t27.5 -74t-27.5 -73.5t-80.5 -29.5t-80 29.5t-27 73.5z" />
<glyph unicode="&#x100;" horiz-adv-x="1156" d="M42 0l460 1427h154l460 -1427h-184l-113 372h-482l-111 -372h-184zM286 1599v140h602v-140h-602zM384 527h389l-195 649z" />
<glyph unicode="&#x101;" horiz-adv-x="961" d="M112 289q0 162 109.5 257t300.5 97h128v113q0 95 -42.5 135t-128.5 40q-78 0 -127 -46.5t-49 -118.5h-174q0 82 48 156t129.5 116t181.5 42q163 0 247.5 -81t86.5 -236v-535q1 -122 34 -212v-16h-181q-15 34 -22 116q-92 -136 -236 -136t-224.5 81t-80.5 228zM202 1295 v140h602v-140h-602zM285 310q0 -90 36.5 -131t122.5 -41q64 0 121.5 35.5t84.5 88.5v252h-98q-124 -1 -195.5 -54.5t-71.5 -149.5z" />
<glyph unicode="&#x102;" horiz-adv-x="1156" d="M42 0l460 1427h154l460 -1427h-184l-113 372h-482l-111 -372h-184zM289 1770h148q0 -69 37.5 -107.5t108.5 -38.5q69 0 107.5 38.5t38.5 107.5h147q0 -118 -80.5 -190.5t-212 -72.5t-213 73t-81.5 190zM384 527h389l-195 649z" />
<glyph unicode="&#x103;" horiz-adv-x="961" d="M112 289q0 162 109.5 257t300.5 97h128v113q0 95 -42.5 135t-128.5 40q-78 0 -127 -46.5t-49 -118.5h-174q0 82 48 156t129.5 116t181.5 42q163 0 247.5 -81t86.5 -236v-535q1 -122 34 -212v-16h-181q-15 34 -22 116q-92 -136 -236 -136t-224.5 81t-80.5 228zM205 1466 h148q0 -69 37.5 -107.5t108.5 -38.5q69 0 107.5 38.5t38.5 107.5h147q0 -118 -80.5 -190.5t-212 -72.5t-213 73t-81.5 190zM285 310q0 -90 36.5 -131t122.5 -41q64 0 121.5 35.5t84.5 88.5v252h-98q-124 -1 -195.5 -54.5t-71.5 -149.5z" />
<glyph unicode="&#x104;" horiz-adv-x="1156" d="M42 0l460 1427h154l460 -1427h-37q-77 -69 -107.5 -119.5t-30.5 -98.5q0 -70 62 -70q37 0 81 25l10 -118q-61 -43 -138 -43q-75 0 -119.5 50.5t-44.5 135.5q0 143 138 244l-111 366h-482l-111 -372h-184zM384 527h389l-195 649z" />
<glyph unicode="&#x105;" horiz-adv-x="961" d="M112 289q0 162 109.5 257t300.5 97h128v113q0 95 -42.5 135t-128.5 40q-78 0 -127 -46.5t-49 -118.5h-174q0 82 48 156t129.5 116t181.5 42q163 0 247.5 -81t86.5 -236v-535q1 -122 34 -212v-16h-33q-77 -69 -107.5 -119.5t-30.5 -98.5q0 -70 62 -70q37 0 81 25l10 -118 q-61 -43 -137 -43t-120.5 50.5t-44.5 135.5q0 143 137 243q-16 40 -20 111q-92 -136 -236 -136t-224.5 81t-80.5 228zM285 310q0 -90 36.5 -131t122.5 -41q64 0 121.5 35.5t84.5 88.5v252h-98q-124 -1 -195.5 -54.5t-71.5 -149.5z" />
<glyph unicode="&#x106;" horiz-adv-x="1137" d="M122 586v259q0 278 129.5 439.5t354.5 161.5q206 0 319.5 -123.5t123.5 -354.5h-182q-11 175 -73 249.5t-188 74.5q-146 0 -224.5 -114.5t-78.5 -334.5v-262q0 -216 73 -332t213 -116t202 69.5t76 250.5h182q-12 -230 -129 -351.5t-331 -121.5q-215 0 -341 163.5 t-126 442.5zM480 1551l189 288h219l-262 -288h-146z" />
<glyph unicode="&#x107;" horiz-adv-x="927" d="M94 473v117q0 240 103 365t300 125q163 0 258.5 -103t101.5 -281h-164q-6 117 -56.5 176t-139.5 59q-116 0 -171.5 -76t-57.5 -249v-136q0 -187 55 -264.5t175 -77.5q86 0 138 53.5t57 152.5h164q-6 -153 -108.5 -253.5t-250.5 -100.5q-197 0 -300.5 124t-103.5 369z M355 1215l189 288h219l-262 -288h-146z" />
<glyph unicode="&#x108;" horiz-adv-x="1137" d="M122 586v259q0 278 129.5 439.5t354.5 161.5q206 0 319.5 -123.5t123.5 -354.5h-182q-11 175 -73 249.5t-188 74.5q-146 0 -224.5 -114.5t-78.5 -334.5v-262q0 -216 73 -332t213 -116t202 69.5t76 250.5h182q-12 -230 -129 -351.5t-331 -121.5q-215 0 -341 163.5 t-126 442.5zM323 1563v12l205 266h102l206 -268v-10h-139l-118 167l-117 -167h-139z" />
<glyph unicode="&#x109;" horiz-adv-x="927" d="M94 473v117q0 240 103 365t300 125q163 0 258.5 -103t101.5 -281h-164q-6 117 -56.5 176t-139.5 59q-116 0 -171.5 -76t-57.5 -249v-136q0 -187 55 -264.5t175 -77.5q86 0 138 53.5t57 152.5h164q-6 -153 -108.5 -253.5t-250.5 -100.5q-197 0 -300.5 124t-103.5 369z M198 1227v12l205 266h102l206 -268v-10h-139l-118 167l-117 -167h-139z" />
<glyph unicode="&#x10a;" horiz-adv-x="1137" d="M122 586v259q0 278 129.5 439.5t354.5 161.5q206 0 319.5 -123.5t123.5 -354.5h-182q-11 175 -73 249.5t-188 74.5q-146 0 -224.5 -114.5t-78.5 -334.5v-262q0 -216 73 -332t213 -116t202 69.5t76 250.5h182q-12 -230 -129 -351.5t-331 -121.5q-215 0 -341 163.5 t-126 442.5zM473 1676q0 44 27 74.5t80 30.5t80.5 -30.5t27.5 -74.5t-27.5 -73.5t-80.5 -29.5t-80 29.5t-27 73.5z" />
<glyph unicode="&#x10b;" horiz-adv-x="927" d="M94 473v117q0 240 103 365t300 125q163 0 258.5 -103t101.5 -281h-164q-6 117 -56.5 176t-139.5 59q-116 0 -171.5 -76t-57.5 -249v-136q0 -187 55 -264.5t175 -77.5q86 0 138 53.5t57 152.5h164q-6 -153 -108.5 -253.5t-250.5 -100.5q-197 0 -300.5 124t-103.5 369z M349 1340q0 44 27 74.5t80 30.5t80.5 -30.5t27.5 -74.5t-27.5 -73.5t-80.5 -29.5t-80 29.5t-27 73.5z" />
<glyph unicode="&#x10c;" horiz-adv-x="1137" d="M122 586v259q0 278 129.5 439.5t354.5 161.5q206 0 319.5 -123.5t123.5 -354.5h-182q-11 175 -73 249.5t-188 74.5q-146 0 -224.5 -114.5t-78.5 -334.5v-262q0 -216 73 -332t213 -116t202 69.5t76 250.5h182q-12 -230 -129 -351.5t-331 -121.5q-215 0 -341 163.5 t-126 442.5zM315 1831v10h145l118 -166l116 166h149v-10l-214 -268h-102z" />
<glyph unicode="&#x10d;" horiz-adv-x="927" d="M94 473v117q0 240 103 365t300 125q163 0 258.5 -103t101.5 -281h-164q-6 117 -56.5 176t-139.5 59q-116 0 -171.5 -76t-57.5 -249v-136q0 -187 55 -264.5t175 -77.5q86 0 138 53.5t57 152.5h164q-6 -153 -108.5 -253.5t-250.5 -100.5q-197 0 -300.5 124t-103.5 369z M191 1495v10h145l118 -166l116 166h149v-10l-214 -268h-102z" />
<glyph unicode="&#x10e;" horiz-adv-x="1145" d="M154 0v1427h340q250 0 388 -156.5t138 -439.5v-239q0 -283 -140 -437.5t-407 -154.5h-319zM259 1811v10h145l118 -166l116 166h149v-10l-214 -268h-102zM333 154h144q189 0 276.5 108t89.5 321v253q0 225 -87 330.5t-262 105.5h-161v-1118z" />
<glyph unicode="&#x10f;" horiz-adv-x="1142" d="M93 469v109q0 245 91.5 373.5t263.5 128.5q152 0 237 -124v549h173v-1505h-158l-9 114q-85 -134 -244 -134q-165 0 -258.5 128t-95.5 361zM267 479q0 -178 52.5 -262t172.5 -84q129 0 193 131v535q-67 127 -192 127q-120 0 -172.5 -83.5t-53.5 -257.5v-106zM902 1186 q60 108 62 229v92h165v-74q0 -92 -36 -179.5t-94 -138.5z" />
<glyph unicode="&#x110;" horiz-adv-x="1175" d="M18 653v148h165v626h340q250 0 388.5 -156.5t138.5 -439.5v-239q0 -283 -140.5 -437.5t-406.5 -154.5h-320v653h-165zM363 154h144q189 0 276 108t89 321v253q0 225 -86.5 330.5t-262.5 105.5h-160v-471h186v-148h-186v-499z" />
<glyph unicode="&#x111;" horiz-adv-x="1025" d="M93 469v109q0 245 91.5 373.5t263.5 128.5q152 0 237 -124v253h-199v148h199v148h173v-148h159v-148h-159v-1209h-158l-9 114q-85 -134 -244 -134q-165 0 -258.5 128t-95.5 361zM267 479q0 -178 52.5 -262t172.5 -84q129 0 193 131v535q-67 127 -192 127 q-120 0 -172.5 -83.5t-53.5 -257.5v-106z" />
<glyph unicode="&#x112;" horiz-adv-x="996" d="M154 0v1427h757v-155h-578v-459h505v-153h-505v-506h588v-154h-767zM233 1610v140h602v-140h-602z" />
<glyph unicode="&#x113;" horiz-adv-x="939" d="M97 445v128q0 237 103.5 372t288.5 135q186 0 278 -118.5t94 -369.5v-114h-591v-24q0 -171 64 -248.5t184 -77.5q77 0 135 29t109 92l91 -110q-113 -159 -344 -159q-198 0 -304 118.5t-108 346.5zM188 1295v140h602v-140h-602zM270 627h418v24q-7 151 -54.5 215.5 t-144.5 64.5q-108 0 -160 -74t-59 -230z" />
<glyph unicode="&#x114;" horiz-adv-x="996" d="M154 0v1427h757v-155h-578v-459h505v-153h-505v-506h588v-154h-767zM236 1782h148q0 -69 37.5 -107.5t108.5 -38.5q69 0 107.5 38.5t38.5 107.5h147q0 -118 -80.5 -190.5t-212 -72.5t-213 73t-81.5 190z" />
<glyph unicode="&#x115;" horiz-adv-x="939" d="M97 445v128q0 237 103.5 372t288.5 135q186 0 278 -118.5t94 -369.5v-114h-591v-24q0 -171 64 -248.5t184 -77.5q77 0 135 29t109 92l91 -110q-113 -159 -344 -159q-198 0 -304 118.5t-108 346.5zM191 1466h148q0 -69 37.5 -107.5t108.5 -38.5q69 0 107.5 38.5 t38.5 107.5h147q0 -118 -80.5 -190.5t-212 -72.5t-213 73t-81.5 190zM270 627h418v24q-7 151 -54.5 215.5t-144.5 64.5q-108 0 -160 -74t-59 -230z" />
<glyph unicode="&#x116;" horiz-adv-x="996" d="M154 0v1427h757v-155h-578v-459h505v-153h-505v-506h588v-154h-767zM423 1656q0 44 27 74.5t80 30.5t80.5 -30.5t27.5 -74.5t-27.5 -73.5t-80.5 -29.5t-80 29.5t-27 73.5z" />
<glyph unicode="&#x117;" horiz-adv-x="939" d="M97 445v128q0 237 103.5 372t288.5 135q186 0 278 -118.5t94 -369.5v-114h-591v-24q0 -171 64 -248.5t184 -77.5q77 0 135 29t109 92l91 -110q-113 -159 -344 -159q-198 0 -304 118.5t-108 346.5zM270 627h418v24q-7 151 -54.5 215.5t-144.5 64.5q-108 0 -160 -74 t-59 -230zM378 1340q0 44 27 74.5t80 30.5t80.5 -30.5t27.5 -74.5t-27.5 -73.5t-80.5 -29.5t-80 29.5t-27 73.5z" />
<glyph unicode="&#x118;" horiz-adv-x="996" d="M154 0v1427h757v-155h-578v-459h505v-153h-505v-506h588v-154h-62q-77 -69 -107.5 -119.5t-30.5 -98.5q0 -70 62 -70q37 0 81 25l10 -118q-61 -43 -137 -43q-75 0 -120 50.5t-45 135.5q0 140 131 238h-549z" />
<glyph unicode="&#x119;" horiz-adv-x="939" d="M97 441v132q0 237 103.5 372t288.5 135q186 0 278 -118.5t94 -369.5v-114h-591v-24q0 -171 64 -248.5t184 -77.5q77 0 135 29t109 92l91 -110q-73 -101 -193 -138q-113 -103 -113 -194q0 -71 62 -71q37 0 81 26l10 -119q-61 -43 -137 -43t-120.5 50.5t-44.5 135.5 q0 110 81 195q-181 8 -280 125t-102 335zM270 627h418v24q-7 151 -54.5 215.5t-144.5 64.5q-108 0 -160 -74t-59 -230z" />
<glyph unicode="&#x11a;" horiz-adv-x="996" d="M154 0v1427h757v-155h-578v-459h505v-153h-505v-506h588v-154h-767zM265 1811v10h145l118 -166l116 166h149v-10l-214 -268h-102z" />
<glyph unicode="&#x11b;" horiz-adv-x="939" d="M97 445v128q0 237 103.5 372t288.5 135q186 0 278 -118.5t94 -369.5v-114h-591v-24q0 -171 64 -248.5t184 -77.5q77 0 135 29t109 92l91 -110q-113 -159 -344 -159q-198 0 -304 118.5t-108 346.5zM220 1495v10h145l118 -166l116 166h149v-10l-214 -268h-102zM270 627h418 v24q-7 151 -54.5 215.5t-144.5 64.5q-108 0 -160 -74t-59 -230z" />
<glyph unicode="&#x11c;" horiz-adv-x="1185" d="M122 567v281q0 300 120 449t359 149q204 0 319 -113.5t127 -324.5h-180q-10 134 -73.5 209t-191.5 75q-154 0 -225.5 -100.5t-74.5 -321.5v-291q0 -215 82 -330.5t236 -115.5q145 0 221 71l26 24v330h-260v152h440v-533l-32 -39q-135 -158 -396 -158q-231 0 -363 153.5 t-134 433.5zM311 1563v12l205 266h102l206 -268v-10h-139l-118 167l-117 -167h-139z" />
<glyph unicode="&#x11d;" horiz-adv-x="988" d="M95 461v117q0 248 90 375t264 127q162 0 246 -138l9 118h156v-1070q0 -197 -100.5 -302t-281.5 -105q-78 0 -175.5 38.5t-146.5 95.5l70 119q108 -106 239 -106q216 0 222 237v138q-84 -125 -239 -125q-165 0 -257 124t-96 357zM219 1227v12l205 266h102l206 -268v-10 h-139l-118 167l-117 -167h-139zM269 479q0 -178 52 -262t172 -84q129 0 194 133v530q-68 130 -192 130q-120 0 -172.5 -83.5t-53.5 -257.5v-106z" />
<glyph unicode="&#x11e;" horiz-adv-x="1185" d="M122 567v281q0 300 120 449t359 149q204 0 319 -113.5t127 -324.5h-180q-10 134 -73.5 209t-191.5 75q-154 0 -225.5 -100.5t-74.5 -321.5v-291q0 -215 82 -330.5t236 -115.5q145 0 221 71l26 24v330h-260v152h440v-533l-32 -39q-135 -158 -396 -158q-231 0 -363 153.5 t-134 433.5zM274 1802h148q0 -69 37.5 -107.5t108.5 -38.5q69 0 107.5 38.5t38.5 107.5h147q0 -118 -80.5 -190.5t-212 -72.5t-213 73t-81.5 190z" />
<glyph unicode="&#x11f;" horiz-adv-x="988" d="M95 461v117q0 248 90 375t264 127q162 0 246 -138l9 118h156v-1070q0 -197 -100.5 -302t-281.5 -105q-78 0 -175.5 38.5t-146.5 95.5l70 119q108 -106 239 -106q216 0 222 237v138q-84 -125 -239 -125q-165 0 -257 124t-96 357zM182 1466h148q0 -69 37.5 -107.5 t108.5 -38.5q69 0 107.5 38.5t38.5 107.5h147q0 -118 -80.5 -190.5t-212 -72.5t-213 73t-81.5 190zM269 479q0 -178 52 -262t172 -84q129 0 194 133v530q-68 130 -192 130q-120 0 -172.5 -83.5t-53.5 -257.5v-106z" />
<glyph unicode="&#x120;" horiz-adv-x="1185" d="M122 567v281q0 300 120 449t359 149q204 0 319 -113.5t127 -324.5h-180q-10 134 -73.5 209t-191.5 75q-154 0 -225.5 -100.5t-74.5 -321.5v-291q0 -215 82 -330.5t236 -115.5q145 0 221 71l26 24v330h-260v152h440v-533l-32 -39q-135 -158 -396 -158q-231 0 -363 153.5 t-134 433.5zM461 1676q0 44 27 74.5t80 30.5t80.5 -30.5t27.5 -74.5t-27.5 -73.5t-80.5 -29.5t-80 29.5t-27 73.5z" />
<glyph unicode="&#x121;" horiz-adv-x="988" d="M95 461v117q0 248 90 375t264 127q162 0 246 -138l9 118h156v-1070q0 -197 -100.5 -302t-281.5 -105q-78 0 -175.5 38.5t-146.5 95.5l70 119q108 -106 239 -106q216 0 222 237v138q-84 -125 -239 -125q-165 0 -257 124t-96 357zM269 479q0 -178 52 -262t172 -84 q129 0 194 133v530q-68 130 -192 130q-120 0 -172.5 -83.5t-53.5 -257.5v-106zM369 1340q0 44 27 74.5t80 30.5t80.5 -30.5t27.5 -74.5t-27.5 -73.5t-80.5 -29.5t-80 29.5t-27 73.5z" />
<glyph unicode="&#x122;" horiz-adv-x="1185" d="M122 567v281q0 300 120 449t359 149q204 0 319 -113.5t127 -324.5h-180q-10 134 -73.5 209t-191.5 75q-154 0 -225.5 -100.5t-74.5 -321.5v-291q0 -215 82 -330.5t236 -115.5q145 0 221 71l26 24v330h-260v152h440v-533l-32 -39q-135 -158 -396 -158q-231 0 -363 153.5 t-134 433.5zM420 -441q60 108 62 229v92h165v-74q0 -92 -36 -179.5t-94 -138.5z" />
<glyph unicode="&#x123;" horiz-adv-x="988" d="M95 461v117q0 248 90 375t264 127q162 0 246 -138l9 118h156v-1070q0 -197 -100.5 -302t-281.5 -105q-78 0 -175.5 38.5t-146.5 95.5l70 119q108 -106 239 -106q216 0 222 237v138q-84 -125 -239 -125q-165 0 -257 124t-96 357zM269 479q0 -178 52 -262t172 -84 q129 0 194 133v530q-68 130 -192 130q-120 0 -172.5 -83.5t-53.5 -257.5v-106zM383 1229v127q0 73 37.5 157.5t90.5 135.5l98 -81q-52 -95 -54 -209v-130h-172z" />
<glyph unicode="&#x124;" horiz-adv-x="1244" d="M154 0v1427h179v-614h574v614h181v-1427h-181v660h-574v-660h-179zM348 1543v12l205 266h102l206 -268v-10h-139l-118 167l-117 -167h-139z" />
<glyph unicode="&#x125;" horiz-adv-x="969" d="M129 0v1505h174v-553q99 128 253 128q281 0 285 -375v-705h-173v697q0 124 -41.5 176.5t-124.5 52.5q-65 0 -116.5 -43t-82.5 -113v-770h-174zM179 1542v12l205 266h102l206 -268v-10h-139l-118 167l-117 -167h-139z" />
<glyph unicode="&#x126;" horiz-adv-x="1226" d="M45 1004v139h110v284h180v-284h572v284h181v-284h108v-139h-108v-1004h-181v660h-572v-660h-180v1004h-110zM335 813h572v191h-572v-191z" />
<glyph unicode="&#x127;" horiz-adv-x="998" d="M-15 1209v148h174v148h173v-148h184v-148h-184v-257q99 128 253 128q281 0 285 -375v-705h-172v697q0 124 -42 176.5t-125 52.5q-65 0 -116 -43t-83 -113v-770h-173v1209h-174z" />
<glyph unicode="&#x128;" horiz-adv-x="501" d="M-46 1542q0 107 52 174.5t130 67.5q29 0 52.5 -11t59.5 -36.5t58.5 -36t48.5 -10.5q34 0 56.5 32t22.5 79l112 -12q0 -103 -51 -170t-131 -67q-34 0 -58.5 10t-64 40t-57 36.5t-39.5 6.5q-34 0 -56 -31.5t-22 -78.5zM162 0v1427h179v-1427h-179z" />
<glyph unicode="&#x129;" horiz-adv-x="471" d="M-61 1225q0 107 52 174.5t130 67.5q29 0 52.5 -11t59.5 -36.5t58.5 -36t48.5 -10.5q34 0 56.5 32t22.5 79l112 -12q0 -103 -51 -170t-131 -67q-34 0 -58.5 10t-64 40t-57 36.5t-39.5 6.5q-34 0 -56 -31.5t-22 -78.5zM143 0v1060h174v-1060h-174z" />
<glyph unicode="&#x12a;" horiz-adv-x="501" d="M-46 1610v140h602v-140h-602zM162 0v1427h179v-1427h-179z" />
<glyph unicode="&#x12b;" horiz-adv-x="471" d="M-61 1293v140h602v-140h-602zM143 0v1060h174v-1060h-174z" />
<glyph unicode="&#x12c;" horiz-adv-x="501" d="M-43 1782h148q0 -69 37.5 -107.5t108.5 -38.5q69 0 107.5 38.5t38.5 107.5h147q0 -118 -80.5 -190.5t-212 -72.5t-213 73t-81.5 190zM162 0v1427h179v-1427h-179z" />
<glyph unicode="&#x12d;" horiz-adv-x="471" d="M-58 1465h148q0 -69 37.5 -107.5t108.5 -38.5q69 0 107.5 38.5t38.5 107.5h147q0 -118 -80.5 -190.5t-212 -72.5t-213 73t-81.5 190zM143 0v1060h174v-1060h-174z" />
<glyph unicode="&#x12e;" horiz-adv-x="501" d="M35 -229q0 182 220 293l67 -55q-77 -69 -107.5 -119.5t-30.5 -98.5q0 -70 62 -70q37 0 81 25l10 -118q-61 -43 -138 -43q-75 0 -119.5 50.5t-44.5 135.5zM162 0v1427h179v-1427h-179z" />
<glyph unicode="&#x12f;" horiz-adv-x="459" d="M16 -238q0 182 220 293l67 -55q-77 -69 -107.5 -119.5t-30.5 -98.5q0 -70 62 -70q37 0 81 25l10 -118q-61 -43 -138 -43q-75 0 -119.5 50.5t-44.5 135.5zM133 1342q0 44 24.5 74t73.5 30t74 -30.5t25 -73.5q0 -44 -24.5 -73.5t-74.5 -29.5q-49 0 -73.5 29.5t-24.5 73.5z M143 0v1060h174v-1060h-174z" />
<glyph unicode="&#x130;" horiz-adv-x="501" d="M144 1656q0 44 27 74.5t80 30.5t80.5 -30.5t27.5 -74.5t-27.5 -73.5t-80.5 -29.5t-80 29.5t-27 73.5zM162 0v1427h179v-1427h-179z" />
<glyph unicode="&#x131;" horiz-adv-x="471" d="M143 0v1060h174v-1060h-174z" />
<glyph unicode="&#x132;" horiz-adv-x="1471" d="M162 0v1427h179v-1427h-179zM560 394h179q0 -123 54 -191.5t150 -68.5q93 0 149 74.5t56 208.5v1010h180v-1011q0 -204 -104.5 -320t-280.5 -116q-181 0 -282 110t-101 304z" />
<glyph unicode="&#x133;" horiz-adv-x="908" d="M133 1342q0 44 24.5 74t73.5 30t74 -30.5t25 -73.5q0 -44 -24.5 -73.5t-74.5 -29.5q-49 0 -73.5 29.5t-24.5 73.5zM143 0v1060h174v-1060h-174zM437 -266q27 -7 68 -7q44 0 66 32.5t22 114.5v1186h174v-1193q-3 -295 -233 -295q-53 0 -96 17zM579 1342q0 44 24 74t73 30 t74 -30.5t25 -73.5q0 -44 -24.5 -73.5t-74.5 -29.5q-49 0 -73 29.5t-24 73.5z" />
<glyph unicode="&#x134;" horiz-adv-x="970" d="M58 394h179q0 -123 54 -191.5t150 -68.5q93 0 149 74.5t56 208.5v1010h180v-1011q0 -204 -104.5 -320t-280.5 -116q-181 0 -282 110t-101 304zM456 1530v12l205 266h102l206 -268v-10h-139l-118 167l-117 -167h-139z" />
<glyph unicode="&#x135;" horiz-adv-x="477" d="M-30 -411l11 144q10 -4 39 -8t41 -4q98 0 98 207v1132h173v-1147q0 -167 -71.5 -254t-199.5 -87q-49 0 -91 17zM-9 1188v12l205 266h102l206 -268v-10h-139l-118 167l-117 -167h-139z" />
<glyph unicode="&#x136;" horiz-adv-x="1093" d="M154 0v1427h179v-689l118 156l384 533h216l-464 -628l500 -799h-215l-399 658l-140 -170v-488h-179zM422 -345q60 108 62 229v92h165v-74q0 -92 -36 -179.5t-94 -138.5z" />
<glyph unicode="&#x137;" horiz-adv-x="904" d="M130 0v1505h174v-900l330 455h208l-337 -443l381 -617h-202l-288 485l-92 -106v-379h-174zM310 -363q60 108 62 229v92h165v-74q0 -92 -36 -179.5t-94 -138.5z" />
<glyph unicode="&#x138;" horiz-adv-x="985" d="M144 0v1060h174v-448h60l313 448h208l-372 -511l397 -549h-217l-315 452h-74v-452h-174z" />
<glyph unicode="&#x139;" horiz-adv-x="953" d="M142 1514l189 288h219l-262 -288h-146zM154 0v1427h180v-1273h560v-154h-740z" />
<glyph unicode="&#x13a;" horiz-adv-x="459" d="M131 1613l189 288h219l-262 -288h-146zM143 0v1505h174v-1505h-174z" />
<glyph unicode="&#x13b;" horiz-adv-x="953" d="M154 0v1427h180v-1273h560v-154h-740zM383 -422q60 108 62 229v92h165v-74q0 -92 -36 -179.5t-94 -138.5z" />
<glyph unicode="&#x13c;" horiz-adv-x="459" d="M86 -422q60 108 62 229v92h165v-74q0 -92 -36 -179.5t-94 -138.5zM143 0v1505h174v-1505h-174z" />
<glyph unicode="&#x13d;" horiz-adv-x="953" d="M154 0v1427h180v-1273h560v-154h-740zM485 1107q60 108 62 229v92h165v-74q0 -92 -36 -179.5t-94 -138.5z" />
<glyph unicode="&#x13e;" horiz-adv-x="606" d="M143 0v1505h174v-1505h-174zM384 1186q60 108 62 229v92h165v-74q0 -92 -36 -179.5t-94 -138.5z" />
<glyph unicode="&#x13f;" horiz-adv-x="953" d="M154 0v1427h180v-1273h560v-154h-740zM499 780q0 44 27 74.5t80 30.5t80.5 -30.5t27.5 -74.5t-27.5 -73.5t-80.5 -29.5t-80 29.5t-27 73.5z" />
<glyph unicode="&#x140;" horiz-adv-x="675" d="M143 0v1505h174v-1505h-174zM401 766q0 44 27 74.5t80 30.5t80.5 -30.5t27.5 -74.5t-27.5 -73.5t-80.5 -29.5t-80 29.5t-27 73.5z" />
<glyph unicode="&#x141;" horiz-adv-x="953" d="M52 603v122l102 38v664h180v-595l203 76v-122l-203 -76v-556h560v-154h-740v641z" />
<glyph unicode="&#x142;" horiz-adv-x="501" d="M50 608v120l108 49v728h173v-649l124 55v-120l-124 -56v-735h-173v657z" />
<glyph unicode="&#x143;" horiz-adv-x="1242" d="M154 0v1427h180l573 -1105v1105h179v-1427h-180l-572 1100v-1100h-180zM518 1519l189 288h219l-262 -288h-146z" />
<glyph unicode="&#x144;" horiz-adv-x="971" d="M129 0v1060h164l5 -114q101 134 258 134q281 0 285 -375v-705h-173v697q0 124 -41.5 176.5t-124.5 52.5q-65 0 -116.5 -43t-82.5 -113v-770h-174zM391 1215l189 288h219l-262 -288h-146z" />
<glyph unicode="&#x145;" horiz-adv-x="1242" d="M154 0v1427h180l573 -1105v1105h179v-1427h-180l-572 1100v-1100h-180zM465 -422q60 108 62 229v92h165v-74q0 -92 -36 -179.5t-94 -138.5z" />
<glyph unicode="&#x146;" horiz-adv-x="971" d="M129 0v1060h164l5 -114q101 134 258 134q281 0 285 -375v-705h-173v697q0 124 -41.5 176.5t-124.5 52.5q-65 0 -116.5 -43t-82.5 -113v-770h-174zM335 -422q60 108 62 229v92h165v-74q0 -92 -36 -179.5t-94 -138.5z" />
<glyph unicode="&#x147;" horiz-adv-x="1242" d="M154 0v1427h180l573 -1105v1105h179v-1427h-180l-572 1100v-1100h-180zM354 1799v10h145l118 -166l116 166h149v-10l-214 -268h-102z" />
<glyph unicode="&#x148;" horiz-adv-x="971" d="M129 0v1060h164l5 -114q101 134 258 134q281 0 285 -375v-705h-173v697q0 124 -41.5 176.5t-124.5 52.5q-65 0 -116.5 -43t-82.5 -113v-770h-174zM226 1495v10h145l118 -166l116 166h149v-10l-214 -268h-102z" />
<glyph unicode="&#x149;" horiz-adv-x="971" d="M-42 1188q60 108 62 229v92h165v-74q0 -92 -36 -179.5t-94 -138.5zM129 0v1060h164l5 -114q101 134 258 134q281 0 285 -375v-705h-173v697q0 124 -41.5 176.5t-124.5 52.5q-65 0 -116.5 -43t-82.5 -113v-770h-174z" />
<glyph unicode="&#x14a;" horiz-adv-x="1202" d="M147 0v1427h179l556 -1072v1072h181v-1509q0 -169 -73 -257.5t-202 -88.5q-51 0 -95 17l11 151q32 -13 81 -13q97 0 97 204v69l-556 1073v-1073h-179z" />
<glyph unicode="&#x14b;" horiz-adv-x="1000" d="M135 0v1060h155l12 -142q93 162 254 162q149 0 225 -104.5t77 -301.5v-761q0 -167 -72 -254t-199 -87q-48 0 -92 17l12 154q29 -13 80 -13q98 0 98 193v741q0 138 -42.5 200t-141.5 62q-126 0 -192 -116v-810h-174z" />
<glyph unicode="&#x14c;" horiz-adv-x="1205" d="M122 567v269q0 286 126.5 448t353.5 162q225 0 351 -155t129 -443v-260q0 -292 -124.5 -450t-353.5 -158q-221 0 -349 153.5t-133 433.5zM301 588q0 -219 76 -333.5t227 -114.5t223.5 106t75.5 324v268q0 226 -74 336.5t-227 110.5q-148 0 -224 -112t-77 -329v-256z M309 1601v140h602v-140h-602z" />
<glyph unicode="&#x14d;" d="M93 464v115q0 231 112.5 366t296.5 135t296 -131.5t115 -357.5v-112q0 -230 -111.5 -364.5t-297.5 -134.5q-185 0 -296 130.5t-115 353.5zM197 1295v140h602v-140h-602zM267 479q0 -163 64 -257t173 -94q229 0 236 332v119q0 163 -64.5 257.5t-173.5 94.5 q-107 0 -171 -94.5t-64 -256.5v-101z" />
<glyph unicode="&#x14e;" horiz-adv-x="1205" d="M122 567v269q0 286 126.5 448t353.5 162q225 0 351 -155t129 -443v-260q0 -292 -124.5 -450t-353.5 -158q-221 0 -349 153.5t-133 433.5zM301 588q0 -219 76 -333.5t227 -114.5t223.5 106t75.5 324v268q0 226 -74 336.5t-227 110.5q-148 0 -224 -112t-77 -329v-256z M312 1772h148q0 -69 37.5 -107.5t108.5 -38.5q69 0 107.5 38.5t38.5 107.5h147q0 -118 -80.5 -190.5t-212 -72.5t-213 73t-81.5 190z" />
<glyph unicode="&#x14f;" d="M93 464v115q0 231 112.5 366t296.5 135t296 -131.5t115 -357.5v-112q0 -230 -111.5 -364.5t-297.5 -134.5q-185 0 -296 130.5t-115 353.5zM200 1466h148q0 -69 37.5 -107.5t108.5 -38.5q69 0 107.5 38.5t38.5 107.5h147q0 -118 -80.5 -190.5t-212 -72.5t-213 73 t-81.5 190zM267 479q0 -163 64 -257t173 -94q229 0 236 332v119q0 163 -64.5 257.5t-173.5 94.5q-107 0 -171 -94.5t-64 -256.5v-101z" />
<glyph unicode="&#x150;" horiz-adv-x="1205" d="M122 567v269q0 286 126.5 448t353.5 162q225 0 351 -155t129 -443v-260q0 -292 -124.5 -450t-353.5 -158q-221 0 -349 153.5t-133 433.5zM301 588q0 -219 76 -333.5t227 -114.5t223.5 106t75.5 324v268q0 226 -74 336.5t-227 110.5q-148 0 -224 -112t-77 -329v-256z M391 1513l131 297h181l-176 -297h-136zM628 1513l183 297h190l-219 -297h-154z" />
<glyph unicode="&#x151;" d="M93 464v115q0 231 112.5 366t296.5 135t296 -131.5t115 -357.5v-112q0 -230 -111.5 -364.5t-297.5 -134.5q-185 0 -296 130.5t-115 353.5zM267 479q0 -163 64 -257t173 -94q229 0 236 332v119q0 163 -64.5 257.5t-173.5 94.5q-107 0 -171 -94.5t-64 -256.5v-101z M279 1207l131 297h181l-176 -297h-136zM516 1207l183 297h190l-219 -297h-154z" />
<glyph unicode="&#x152;" horiz-adv-x="1659" d="M104 564v298q0 169 57 302t163.5 207.5t241.5 74.5q99 0 237 -19h690v-155h-579v-459h504v-153h-504v-506h588v-154h-699q-144 -21 -235 -21q-135 0 -241.5 74t-164.5 208t-58 303zM277 564q0 -204 76 -320.5t215 -116.5q82 0 167 13v1145q-80 13 -169 13 q-136 0 -212.5 -113t-76.5 -323v-298z" />
<glyph unicode="&#x153;" horiz-adv-x="1560" d="M100 526v14q0 241 109 390.5t290 149.5q108 0 188.5 -52t131.5 -143q54 92 132 143.5t166 51.5q176 0 272 -123t96 -354v-116h-577q4 -168 67.5 -264t169.5 -96q152 0 248 106l68 -123l-12 -13q-110 -117 -304 -117q-215 0 -328 190q-111 -190 -317 -190 q-182 0 -291 148.5t-109 397.5zM273 518q0 -182 60 -286.5t167 -104.5t166 104.5t59 308.5q0 183 -60 287t-166 104q-105 0 -165.5 -103.5t-60.5 -309.5zM913 636h398v26q0 125 -51.5 197t-142.5 72q-76 0 -133 -85t-71 -210z" />
<glyph unicode="&#x154;" horiz-adv-x="1065" d="M154 0v1427h400q209 0 317 -109.5t108 -319.5q0 -133 -58.5 -231.5t-164.5 -148.5l276 -606v-12h-193l-254 577h-251v-577h-180zM334 731h218q112 0 179.5 72.5t67.5 194.5q0 274 -249 274h-216v-541zM422 1519l189 288h219l-262 -288h-146z" />
<glyph unicode="&#x155;" horiz-adv-x="610" d="M129 0v1060h169l3 -107q69 127 197 127q41 0 68 -14l1 -168q-36 7 -78 7q-133 0 -186 -146v-759h-174zM254 1215l189 288h219l-262 -288h-146z" />
<glyph unicode="&#x156;" horiz-adv-x="1065" d="M154 0v1427h400q209 0 317 -109.5t108 -319.5q0 -133 -58.5 -231.5t-164.5 -148.5l276 -606v-12h-193l-254 577h-251v-577h-180zM334 731h218q112 0 179.5 72.5t67.5 194.5q0 274 -249 274h-216v-541zM377 -422q60 108 62 229v92h165v-74q0 -92 -36 -179.5t-94 -138.5z " />
<glyph unicode="&#x157;" horiz-adv-x="610" d="M84 -422q60 108 62 229v92h165v-74q0 -92 -36 -179.5t-94 -138.5zM129 0v1060h169l3 -107q69 127 197 127q41 0 68 -14l1 -168q-36 7 -78 7q-133 0 -186 -146v-759h-174z" />
<glyph unicode="&#x158;" horiz-adv-x="1065" d="M154 0v1427h400q209 0 317 -109.5t108 -319.5q0 -133 -58.5 -231.5t-164.5 -148.5l276 -606v-12h-193l-254 577h-251v-577h-180zM257 1799v10h145l118 -166l116 166h149v-10l-214 -268h-102zM334 731h218q112 0 179.5 72.5t67.5 194.5q0 274 -249 274h-216v-541z" />
<glyph unicode="&#x159;" horiz-adv-x="610" d="M91 1495v10h145l118 -166l116 166h149v-10l-214 -268h-102zM129 0v1060h169l3 -107q69 127 197 127q41 0 68 -14l1 -168q-36 7 -78 7q-133 0 -186 -146v-759h-174z" />
<glyph unicode="&#x15a;" horiz-adv-x="1039" d="M83 414h181q0 -133 74 -206.5t201 -73.5q119 0 178.5 61t59.5 166q0 106 -57.5 163t-208.5 111t-231 113.5t-119.5 135t-39.5 173.5q0 170 113 279.5t296 109.5q126 0 224 -56t150.5 -156t52.5 -220h-180q0 133 -63.5 205.5t-183.5 72.5q-109 0 -168.5 -61t-59.5 -171 q0 -90 64.5 -150.5t199.5 -108.5q211 -70 301.5 -172t90.5 -266q0 -174 -112.5 -278.5t-306.5 -104.5q-124 0 -229.5 54.5t-166 153t-60.5 226.5zM431 1521l189 288h219l-262 -288h-146z" />
<glyph unicode="&#x15b;" horiz-adv-x="914" d="M97 317h174q3 -89 54 -139t143 -50q87 0 132 39t45 104q0 56 -42 96.5t-163 94.5q-140 57 -197.5 98.5t-86 94t-28.5 124.5q0 129 95 215t242 86q154 0 248.5 -90t94.5 -231h-173q0 71 -48 121.5t-122 50.5q-77 0 -120.5 -39.5t-43.5 -106.5q0 -53 32 -85.5t153 -85.5 q193 -75 262.5 -147t69.5 -183q0 -138 -95 -221t-255 -83q-165 0 -268 95.5t-103 241.5zM391 1215l189 288h219l-262 -288h-146z" />
<glyph unicode="&#x15c;" horiz-adv-x="1039" d="M83 414h181q0 -133 74 -206.5t201 -73.5q119 0 178.5 61t59.5 166q0 106 -57.5 163t-208.5 111t-231 113.5t-119.5 135t-39.5 173.5q0 170 113 279.5t296 109.5q126 0 224 -56t150.5 -156t52.5 -220h-180q0 133 -63.5 205.5t-183.5 72.5q-109 0 -168.5 -61t-59.5 -171 q0 -90 64.5 -150.5t199.5 -108.5q211 -70 301.5 -172t90.5 -266q0 -174 -112.5 -278.5t-306.5 -104.5q-124 0 -229.5 54.5t-166 153t-60.5 226.5zM274 1533v12l205 266h102l206 -268v-10h-139l-118 167l-117 -167h-139z" />
<glyph unicode="&#x15d;" horiz-adv-x="914" d="M97 317h174q3 -89 54 -139t143 -50q87 0 132 39t45 104q0 56 -42 96.5t-163 94.5q-140 57 -197.5 98.5t-86 94t-28.5 124.5q0 129 95 215t242 86q154 0 248.5 -90t94.5 -231h-173q0 71 -48 121.5t-122 50.5q-77 0 -120.5 -39.5t-43.5 -106.5q0 -53 32 -85.5t153 -85.5 q193 -75 262.5 -147t69.5 -183q0 -138 -95 -221t-255 -83q-165 0 -268 95.5t-103 241.5zM234 1227v12l205 266h102l206 -268v-10h-139l-118 167l-117 -167h-139z" />
<glyph unicode="&#x15e;" horiz-adv-x="1039" d="M83 414h181q0 -133 74 -206.5t201 -73.5q119 0 178.5 61t59.5 166q0 106 -57.5 163t-208.5 111t-231 113.5t-119.5 135t-39.5 173.5q0 170 113 279.5t296 109.5q126 0 224 -56t150.5 -156t52.5 -220h-180q0 133 -63.5 205.5t-183.5 72.5q-109 0 -168.5 -61t-59.5 -171 q0 -90 64.5 -150.5t199.5 -108.5q211 -70 301.5 -172t90.5 -266q0 -174 -112.5 -278.5t-306.5 -104.5q-124 0 -229.5 54.5t-166 153t-60.5 226.5zM453 -131l27 131h123l-10 -51q59 -13 90 -57t31 -112q0 -95 -65 -150.5t-187 -55.5l-5 105q125 0 125 97q0 44 -26 64t-103 29 z" />
<glyph unicode="&#x15f;" horiz-adv-x="914" d="M97 317h174q3 -89 54 -139t143 -50q87 0 132 39t45 104q0 56 -42 96.5t-163 94.5q-140 57 -197.5 98.5t-86 94t-28.5 124.5q0 129 95 215t242 86q154 0 248.5 -90t94.5 -231h-173q0 71 -48 121.5t-122 50.5q-77 0 -120.5 -39.5t-43.5 -106.5q0 -53 32 -85.5t153 -85.5 q193 -75 262.5 -147t69.5 -183q0 -138 -95 -221t-255 -83q-165 0 -268 95.5t-103 241.5zM407 -139l27 131h123l-10 -51q59 -13 90 -57t31 -112q0 -95 -65 -150.5t-187 -55.5l-5 105q125 0 125 97q0 44 -26 64t-103 29z" />
<glyph unicode="&#x160;" horiz-adv-x="1039" d="M83 414h181q0 -133 74 -206.5t201 -73.5q119 0 178.5 61t59.5 166q0 106 -57.5 163t-208.5 111t-231 113.5t-119.5 135t-39.5 173.5q0 170 113 279.5t296 109.5q126 0 224 -56t150.5 -156t52.5 -220h-180q0 133 -63.5 205.5t-183.5 72.5q-109 0 -168.5 -61t-59.5 -171 q0 -90 64.5 -150.5t199.5 -108.5q211 -70 301.5 -172t90.5 -266q0 -174 -112.5 -278.5t-306.5 -104.5q-124 0 -229.5 54.5t-166 153t-60.5 226.5zM266 1801v10h145l118 -166l116 166h149v-10l-214 -268h-102z" />
<glyph unicode="&#x161;" horiz-adv-x="914" d="M97 317h174q3 -89 54 -139t143 -50q87 0 132 39t45 104q0 56 -42 96.5t-163 94.5q-140 57 -197.5 98.5t-86 94t-28.5 124.5q0 129 95 215t242 86q154 0 248.5 -90t94.5 -231h-173q0 71 -48 121.5t-122 50.5q-77 0 -120.5 -39.5t-43.5 -106.5q0 -53 32 -85.5t153 -85.5 q193 -75 262.5 -147t69.5 -183q0 -138 -95 -221t-255 -83q-165 0 -268 95.5t-103 241.5zM226 1495v10h145l118 -166l116 166h149v-10l-214 -268h-102z" />
<glyph unicode="&#x162;" horiz-adv-x="1044" d="M59 1272v155h929v-155h-376v-1272h-179v1272h-374zM441 -131l27 131h123l-10 -51q59 -13 90 -57t31 -112q0 -95 -65 -150.5t-187 -55.5l-5 105q125 0 125 97q0 44 -26 64t-103 29z" />
<glyph unicode="&#x163;" horiz-adv-x="592" d="M23 920v140h161v257h173v-257h159v-140h-159v-657q0 -63 20.5 -95.5t70.5 -32.5q34 0 69 12l-2 -147q-58 -20 -120 -20q-103 0 -157 73.5t-54 208.5v658h-161zM315 -131l27 131h123l-10 -51q59 -13 90 -57t31 -112q0 -95 -65 -150.5t-187 -55.5l-5 105q125 0 125 97 q0 44 -26 64t-103 29z" />
<glyph unicode="&#x164;" horiz-adv-x="1044" d="M59 1272v155h929v-155h-376v-1272h-179v1272h-374zM259 1799v10h145l118 -166l116 166h149v-10l-214 -268h-102z" />
<glyph unicode="&#x165;" horiz-adv-x="632" d="M23 920v140h161v257h173v-257h159v-140h-159v-657q0 -63 20.5 -95.5t70.5 -32.5q34 0 69 12l-2 -147q-58 -20 -120 -20q-103 0 -157 73.5t-54 208.5v658h-161zM436 1303q60 108 62 229v92h165v-74q0 -92 -36 -179.5t-94 -138.5z" />
<glyph unicode="&#x166;" horiz-adv-x="1044" d="M59 1272v155h929v-155h-376v-317h188v-148h-188v-807h-179v807h-164v148h164v317h-374z" />
<glyph unicode="&#x167;" horiz-adv-x="592" d="M2 590v148h182v182h-161v140h161v257h173v-257h159v-140h-159v-182h176v-148h-176v-327q0 -63 20.5 -95.5t70.5 -32.5q34 0 69 12l-2 -147q-58 -20 -120 -20q-103 0 -157 73.5t-54 208.5v328h-182z" />
<glyph unicode="&#x168;" horiz-adv-x="1127" d="M127 413v1014h179v-1008q0 -144 61 -215t197 -71q138 0 199 71t61 215v1008h180v-1014q-1 -203 -117 -318t-323 -115q-211 0 -323 112.5t-114 320.5zM267 1531q0 107 52 174.5t130 67.5q29 0 52.5 -11t59.5 -36.5t58.5 -36t48.5 -10.5q34 0 56.5 32t22.5 79l112 -12 q0 -103 -51 -170t-131 -67q-34 0 -58.5 10t-64 40t-57 36.5t-39.5 6.5q-34 0 -56 -31.5t-22 -78.5z" />
<glyph unicode="&#x169;" horiz-adv-x="970" d="M126 369v691h173v-678q0 -248 149 -248q158 0 217 141v785h174v-1060h-165l-4 93q-86 -113 -252 -113q-144 0 -217.5 99.5t-74.5 289.5zM188 1227q0 107 52 174.5t130 67.5q29 0 52.5 -11t59.5 -36.5t58.5 -36t48.5 -10.5q34 0 56.5 32t22.5 79l112 -12q0 -103 -51 -170 t-131 -67q-34 0 -58.5 10t-64 40t-57 36.5t-39.5 6.5q-34 0 -56 -31.5t-22 -78.5z" />
<glyph unicode="&#x16a;" horiz-adv-x="1127" d="M127 413v1014h179v-1008q0 -144 61 -215t197 -71q138 0 199 71t61 215v1008h180v-1014q-1 -203 -117 -318t-323 -115q-211 0 -323 112.5t-114 320.5zM267 1599v140h602v-140h-602z" />
<glyph unicode="&#x16b;" horiz-adv-x="970" d="M126 369v691h173v-678q0 -248 149 -248q158 0 217 141v785h174v-1060h-165l-4 93q-86 -113 -252 -113q-144 0 -217.5 99.5t-74.5 289.5zM188 1295v140h602v-140h-602z" />
<glyph unicode="&#x16c;" horiz-adv-x="1127" d="M127 413v1014h179v-1008q0 -144 61 -215t197 -71q138 0 199 71t61 215v1008h180v-1014q-1 -203 -117 -318t-323 -115q-211 0 -323 112.5t-114 320.5zM270 1770h148q0 -69 37.5 -107.5t108.5 -38.5q69 0 107.5 38.5t38.5 107.5h147q0 -118 -80.5 -190.5t-212 -72.5 t-213 73t-81.5 190z" />
<glyph unicode="&#x16d;" horiz-adv-x="970" d="M126 369v691h173v-678q0 -248 149 -248q158 0 217 141v785h174v-1060h-165l-4 93q-86 -113 -252 -113q-144 0 -217.5 99.5t-74.5 289.5zM191 1466h148q0 -69 37.5 -107.5t108.5 -38.5q69 0 107.5 38.5t38.5 107.5h147q0 -118 -80.5 -190.5t-212 -72.5t-213 73t-81.5 190z " />
<glyph unicode="&#x16e;" horiz-adv-x="1127" d="M127 413v1014h179v-1008q0 -144 61 -215t197 -71q138 0 199 71t61 215v1008h180v-1014q-1 -203 -117 -318t-323 -115q-211 0 -323 112.5t-114 320.5zM353 1695q0 84 60 144t150 60t150.5 -60t60.5 -144q0 -85 -61 -142.5t-150 -57.5q-90 0 -150 58t-60 142zM450 1695 q0 -46 32.5 -79.5t80.5 -33.5q47 0 80.5 32.5t33.5 80.5t-33 81.5t-81 33.5q-49 0 -81 -34t-32 -81z" />
<glyph unicode="&#x16f;" horiz-adv-x="970" d="M126 369v691h173v-678q0 -248 149 -248q158 0 217 141v785h174v-1060h-165l-4 93q-86 -113 -252 -113q-144 0 -217.5 99.5t-74.5 289.5zM274 1391q0 84 60 144t150 60t150.5 -60t60.5 -144q0 -85 -61 -142.5t-150 -57.5q-90 0 -150 58t-60 142zM371 1391 q0 -46 32.5 -79.5t80.5 -33.5q47 0 80.5 32.5t33.5 80.5t-33 81.5t-81 33.5q-49 0 -81 -34t-32 -81z" />
<glyph unicode="&#x170;" horiz-adv-x="1127" d="M127 413v1014h179v-1008q0 -144 61 -215t197 -71q138 0 199 71t61 215v1008h180v-1014q-1 -203 -117 -318t-323 -115q-211 0 -323 112.5t-114 320.5zM349 1511l131 297h181l-176 -297h-136zM586 1511l183 297h190l-219 -297h-154z" />
<glyph unicode="&#x171;" horiz-adv-x="970" d="M126 369v691h173v-678q0 -248 149 -248q158 0 217 141v785h174v-1060h-165l-4 93q-86 -113 -252 -113q-144 0 -217.5 99.5t-74.5 289.5zM269 1207l131 297h181l-176 -297h-136zM506 1207l183 297h190l-219 -297h-154z" />
<glyph unicode="&#x172;" horiz-adv-x="1127" d="M127 409v1018h179v-1008q0 -144 61 -215t197 -71q138 0 199 71t61 215v1008h180v-1007q0 -150 -61.5 -254.5t-179.5 -150.5q-107 -103 -107 -189q0 -71 61 -71q38 0 82 25l9 -118q-60 -43 -137 -43q-75 0 -119.5 50.5t-44.5 135.5q0 96 64 175q-218 0 -329.5 112 t-114.5 317z" />
<glyph unicode="&#x173;" horiz-adv-x="970" d="M126 369v691h173v-678q0 -248 149 -248q158 0 217 141v785h174v-1060h-10q-77 -69 -107.5 -119.5t-30.5 -98.5q0 -70 62 -70q37 0 81 25l10 -118q-61 -43 -137 -43t-120.5 50.5t-44.5 135.5q0 141 132 239l-4 92q-86 -113 -252 -113q-144 0 -217.5 99.5t-74.5 289.5z" />
<glyph unicode="&#x174;" horiz-adv-x="1528" d="M70 1427h179l177 -977l19 -160l28 141l229 996h150l221 -996l29 -145l20 165l175 976h179l-284 -1427h-162l-238 1040l-15 84l-15 -84l-247 -1040h-162zM524 1531v12l205 266h102l206 -268v-10h-139l-118 167l-117 -167h-139z" />
<glyph unicode="&#x175;" horiz-adv-x="1304" d="M49 1060h171l164 -737l197 737h137l202 -755l161 755h171l-259 -1060h-138l-207 759l-202 -759h-139zM390 1227v12l205 266h102l206 -268v-10h-139l-118 167l-117 -167h-139z" />
<glyph unicode="&#x176;" horiz-adv-x="1052" d="M29 1427h204l292 -717l292 717h203l-406 -895v-532h-179v532zM273 1531v12l205 266h102l206 -268v-10h-139l-118 167l-117 -167h-139z" />
<glyph unicode="&#x177;" horiz-adv-x="835" d="M34 1060h189l196 -772l193 772h185l-347 -1210q-39 -136 -110.5 -207t-163.5 -71q-35 0 -90 15v147l38 -4q76 0 118.5 36t69.5 124l34 119zM180 1227v12l205 266h102l206 -268v-10h-139l-118 167l-117 -167h-139z" />
<glyph unicode="&#x178;" horiz-adv-x="1052" d="M29 1427h204l292 -717l292 717h203l-406 -895v-532h-179v532zM215 1648q0 44 27 73.5t80 29.5t80.5 -29.5t27.5 -74t-27.5 -73.5t-80.5 -29t-80 29t-27 74zM636 1646q0 44 27 74t80 30t80.5 -30t27.5 -74t-27.5 -73.5t-80.5 -29.5t-80 29.5t-27 73.5z" />
<glyph unicode="&#x179;" horiz-adv-x="1048" d="M89 0v141l650 1131h-643v155h843v-138l-651 -1135h677v-154h-876zM429 1519l189 288h219l-262 -288h-146z" />
<glyph unicode="&#x17a;" horiz-adv-x="881" d="M92 0v133l486 777h-482v150h686v-128l-492 -784h512v-148h-710zM343 1215l189 288h219l-262 -288h-146z" />
<glyph unicode="&#x17b;" horiz-adv-x="1048" d="M89 0v141l650 1131h-643v155h843v-138l-651 -1135h677v-154h-876zM422 1644q0 44 27 74.5t80 30.5t80.5 -30.5t27.5 -74.5t-27.5 -73.5t-80.5 -29.5t-80 29.5t-27 73.5z" />
<glyph unicode="&#x17c;" horiz-adv-x="881" d="M92 0v133l486 777h-482v150h686v-128l-492 -784h512v-148h-710zM337 1340q0 44 27 74.5t80 30.5t80.5 -30.5t27.5 -74.5t-27.5 -73.5t-80.5 -29.5t-80 29.5t-27 73.5z" />
<glyph unicode="&#x17d;" horiz-adv-x="1048" d="M89 0v141l650 1131h-643v155h843v-138l-651 -1135h677v-154h-876zM264 1799v10h145l118 -166l116 166h149v-10l-214 -268h-102z" />
<glyph unicode="&#x17e;" horiz-adv-x="881" d="M92 0v133l486 777h-482v150h686v-128l-492 -784h512v-148h-710zM179 1495v10h145l118 -166l116 166h149v-10l-214 -268h-102z" />
<glyph unicode="&#x17f;" horiz-adv-x="470" d="M149 0v1175q1 168 76.5 259.5t211.5 91.5q47 0 121 -21l-22 -139q-30 11 -70 11q-144 0 -144 -217v-1160h-173z" />
<glyph unicode="&#x18f;" horiz-adv-x="1198" d="M86 637v115h817v7q0 252 -96.5 391.5t-273.5 139.5q-130 0 -238 -56l-49 -27l-41 141q40 40 132.5 69t195.5 29q254 0 402.5 -185.5t148.5 -511.5v-83q0 -192 -64.5 -349t-181 -247t-254.5 -90q-238 0 -368 169t-130 488zM267 572q0 -218 79.5 -327.5t237.5 -109.5 q132 0 218 126.5t99 344.5h-634v-34z" />
<glyph unicode="&#x192;" horiz-adv-x="621" d="M5 -411l12 144q14 -6 64 -11l16 -1q98 0 98 207v992h-138v140h138v117q1 170 77 259.5t209 89.5q47 0 121 -21l-21 -144q-27 10 -77 10q-134 0 -136 -192v-119h154v-140h-154v-1007q0 -166 -72 -253.5t-199 -87.5q-50 0 -92 17z" />
<glyph unicode="&#x1a0;" horiz-adv-x="1189" d="M93 664v94q0 203 61 360.5t172 242.5t254 85q199 0 327 -149q74 12 105.5 80.5t31.5 181.5h156q0 -155 -54 -252.5t-161 -129.5q80 -164 83 -404v-106q0 -316 -131 -501.5t-355 -185.5q-143 0 -254 84t-173 240.5t-62 359.5zM271 667q0 -245 83.5 -386t227.5 -141 q148 0 228.5 136t80.5 391v93q0 250 -81 387.5t-230 137.5q-145 0 -227 -141.5t-82 -385.5v-91z" />
<glyph unicode="&#x1a1;" horiz-adv-x="1009" d="M95 526v14q0 240 112.5 390t294.5 150q172 0 284 -134q54 11 77 59.5t23 170.5h138q0 -143 -42 -225t-130 -109q59 -132 60 -297v-27q0 -238 -112.5 -388t-296 -150t-296 148.5t-112.5 397.5zM268 518q0 -177 63.5 -283.5t172 -106.5t171.5 106.5t63 305.5 q0 179 -64.5 285t-171.5 106q-106 0 -170 -106t-64 -307z" />
<glyph unicode="&#x1af;" horiz-adv-x="1221" d="M127 447v980h179v-971q1 -153 67.5 -237.5t190.5 -84.5q126 0 192.5 84.5t67.5 238.5v970h180v-209q92 11 132 77t40 212h147q0 -206 -77 -308t-242 -114v-637q-3 -213 -125 -340.5t-315 -127.5q-196 0 -314.5 124.5t-122.5 342.5z" />
<glyph unicode="&#x1b0;" horiz-adv-x="1103" d="M126 369v691h173v-678q0 -248 149 -248q158 0 217 141v785h174v-128q67 1 97 29t34 95l2 89h130q0 -174 -60.5 -247.5t-202.5 -77.5v-820h-165l-4 93q-86 -113 -252 -113q-144 0 -217.5 99.5t-74.5 289.5z" />
<glyph unicode="&#x1f0;" horiz-adv-x="477" d="M-30 -411l11 144q10 -4 39 -8t41 -4q98 0 98 207v1132h173v-1147q0 -167 -71.5 -254t-199.5 -87q-49 0 -91 17zM-16 1456v10h145l118 -166l116 166h149v-10l-214 -268h-102z" />
<glyph unicode="&#x1fa;" horiz-adv-x="1156" d="M42 0l460 1427h154l460 -1427h-184l-113 372h-482l-111 -372h-184zM384 527h389l-195 649zM439 1510q0 70 43 117t104 47q60 0 101 -47t41 -117q0 -68 -40.5 -114t-101.5 -46t-104 45.5t-43 114.5zM515 1510q0 -35 21 -59t50 -24q28 0 48 24t20 59q0 37 -20 61.5 t-48 24.5q-29 0 -50 -24.5t-21 -61.5zM549 1721l115 180h173l-187 -180h-101z" />
<glyph unicode="&#x1fb;" horiz-adv-x="961" d="M112 289q0 162 109.5 257t300.5 97h128v113q0 95 -42.5 135t-128.5 40q-78 0 -127 -46.5t-49 -118.5h-174q0 82 48 156t129.5 116t181.5 42q163 0 247.5 -81t86.5 -236v-535q1 -122 34 -212v-16h-181q-15 34 -22 116q-92 -136 -236 -136t-224.5 81t-80.5 228zM285 310 q0 -90 36.5 -131t122.5 -41q64 0 121.5 35.5t84.5 88.5v252h-98q-124 -1 -195.5 -54.5t-71.5 -149.5zM356 1207q0 70 43 117t104 47q60 0 101 -47t41 -117q0 -68 -40.5 -114t-101.5 -46t-104 45.5t-43 114.5zM432 1207q0 -35 21 -59t50 -24q28 0 48 24t20 59q0 37 -20 61.5 t-48 24.5q-29 0 -50 -24.5t-21 -61.5zM466 1418l115 180h173l-187 -180h-101z" />
<glyph unicode="&#x1fc;" horiz-adv-x="1629" d="M-2 0l724 1427h811v-149h-569l17 -462h485v-148h-480l18 -520h580v-148h-748l-13 346h-449l-164 -346h-212zM456 516h361l-24 709zM687 1531l189 288h219l-262 -288h-146z" />
<glyph unicode="&#x1fd;" horiz-adv-x="1461" d="M81 298q0 154 94.5 239t277.5 85h173v84q0 104 -42.5 164.5t-120.5 60.5q-80 0 -133.5 -53.5t-53.5 -133.5l-171 18q0 140 100.5 229t257.5 89q194 0 279 -150q109 150 275 150q177 0 273.5 -126.5t96.5 -354.5v-112h-590q5 -170 73 -265t187 -95q124 0 220 75l38 30 l58 -133q-50 -54 -135 -86.5t-181 -32.5q-215 0 -328 169q-55 -80 -149 -124.5t-207 -44.5q-136 0 -214 84t-78 234zM255 294q0 -79 40.5 -123t113.5 -44q92 0 188 87l29 29v242h-173q-89 -1 -143.5 -54t-54.5 -137zM628 1216l189 288h219l-262 -288h-146zM800 627h414v31 q0 132 -51 202.5t-146 70.5q-89 0 -147.5 -85.5t-69.5 -218.5z" />
<glyph unicode="&#x1fe;" horiz-adv-x="1205" d="M115 675v83q0 203 59.5 360t171 242.5t256.5 85.5q175 0 296 -116l82 156h128l-133 -253q111 -178 115 -457v-109q0 -316 -131.5 -501.5t-354.5 -185.5q-138 0 -245 77l-78 -148h-128l119 228q-157 189 -157 538zM293 667q0 -223 69 -360l453 864q-80 114 -213 114 q-145 0 -227 -141.5t-82 -385.5v-91zM436 205q71 -65 168 -65q147 0 227 136t80 391v93q0 163 -36 282zM508 1591l189 288h219l-262 -288h-146z" />
<glyph unicode="&#x1ff;" horiz-adv-x="1000" d="M95 540q0 240 112.5 390t294.5 150q88 0 164 -38l59 142h112l-84 -202q159 -152 159 -464q0 -238 -112.5 -388t-295.5 -150q-80 0 -153 32l-60 -143h-112l84 201q-168 145 -168 470zM268 518q0 -176 63 -284l276 665q-46 32 -105 32q-106 0 -170 -106t-64 -307zM365 1215 l189 288h219l-262 -288h-146zM410 153q43 -25 94 -25q108 0 171 106.5t63 305.5q0 165 -56 270z" />
<glyph unicode="&#x218;" horiz-adv-x="1039" d="M83 414h181q0 -133 74 -206.5t201 -73.5q119 0 178.5 61t59.5 166q0 106 -57.5 163t-208.5 111t-231 113.5t-119.5 135t-39.5 173.5q0 170 113 279.5t296 109.5q126 0 224 -56t150.5 -156t52.5 -220h-180q0 133 -63.5 205.5t-183.5 72.5q-109 0 -168.5 -61t-59.5 -171 q0 -90 64.5 -150.5t199.5 -108.5q211 -70 301.5 -172t90.5 -266q0 -174 -112.5 -278.5t-306.5 -104.5q-124 0 -229.5 54.5t-166 153t-60.5 226.5zM391 -432q60 108 62 229v92h165v-74q0 -92 -36 -179.5t-94 -138.5z" />
<glyph unicode="&#x219;" horiz-adv-x="914" d="M97 317h174q3 -89 54 -139t143 -50q87 0 132 39t45 104q0 56 -42 96.5t-163 94.5q-140 57 -197.5 98.5t-86 94t-28.5 124.5q0 129 95 215t242 86q154 0 248.5 -90t94.5 -231h-173q0 71 -48 121.5t-122 50.5q-77 0 -120.5 -39.5t-43.5 -106.5q0 -53 32 -85.5t153 -85.5 q193 -75 262.5 -147t69.5 -183q0 -138 -95 -221t-255 -83q-165 0 -268 95.5t-103 241.5zM345 -441q60 108 62 229v92h165v-74q0 -92 -36 -179.5t-94 -138.5z" />
<glyph unicode="&#x21a;" horiz-adv-x="1044" d="M59 1272v155h929v-155h-376v-1272h-179v1272h-374zM379 -432q60 108 62 229v92h165v-74q0 -92 -36 -179.5t-94 -138.5z" />
<glyph unicode="&#x21b;" horiz-adv-x="592" d="M23 920v140h161v257h173v-257h159v-140h-159v-657q0 -63 20.5 -95.5t70.5 -32.5q34 0 69 12l-2 -147q-58 -20 -120 -20q-103 0 -157 73.5t-54 208.5v658h-161zM253 -432q60 108 62 229v92h165v-74q0 -92 -36 -179.5t-94 -138.5z" />
<glyph unicode="&#x237;" horiz-adv-x="477" d="M-30 -411l11 144q10 -4 39 -8t41 -4q98 0 98 207v1132h173v-1147q0 -167 -71.5 -254t-199.5 -87q-49 0 -91 17z" />
<glyph unicode="&#x259;" horiz-adv-x="934" d="M102 459v113h576q-4 168 -66.5 264.5t-169.5 96.5q-150 0 -249 -106l-67 123q110 131 316 131q186 0 298 -145.5t112 -391.5v-36q0 -148 -53 -270.5t-143.5 -190.5t-186.5 -66q-176 0 -271.5 122.5t-95.5 355.5zM275 399q0 -126 51.5 -198t142.5 -72q75 0 131.5 79.5 t72.5 215.5h-398v-25z" />
<glyph unicode="&#x2bc;" horiz-adv-x="390" d="M55 1096q76 128 79 266v143h172v-132q-2 -94 -44 -190.5t-110 -157.5z" />
<glyph unicode="&#x2c6;" horiz-adv-x="859" d="M162 1227v12l205 266h102l206 -268v-10h-139l-118 167l-117 -167h-139z" />
<glyph unicode="&#x2c7;" horiz-adv-x="810" d="M135 1494v10h145l118 -166l116 166h149v-10l-214 -268h-102z" />
<glyph unicode="&#x2c9;" horiz-adv-x="832" d="M122 1287v140h602v-140h-602z" />
<glyph unicode="&#x2d8;" horiz-adv-x="856" d="M126 1465h148q0 -69 37.5 -107.5t108.5 -38.5q69 0 107.5 38.5t38.5 107.5h147q0 -118 -80.5 -190.5t-212 -72.5t-213 73t-81.5 190z" />
<glyph unicode="&#x2d9;" horiz-adv-x="487" d="M138 1340q0 44 27 74.5t80 30.5t80.5 -30.5t27.5 -74.5t-27.5 -73.5t-80.5 -29.5t-80 29.5t-27 73.5z" />
<glyph unicode="&#x2da;" horiz-adv-x="671" d="M119 1380q0 84 60 144t150 60t150.5 -60t60.5 -144q0 -85 -61 -142.5t-150 -57.5q-90 0 -150 58t-60 142zM216 1380q0 -46 32.5 -79.5t80.5 -33.5q47 0 80.5 32.5t33.5 80.5t-33 81.5t-81 33.5q-49 0 -81 -34t-32 -81z" />
<glyph unicode="&#x2db;" horiz-adv-x="508" d="M58 -238q0 182 220 293l67 -55q-77 -69 -107.5 -119.5t-30.5 -98.5q0 -70 62 -70q37 0 81 25l10 -118q-61 -43 -138 -43q-75 0 -119.5 50.5t-44.5 135.5z" />
<glyph unicode="&#x2dc;" horiz-adv-x="857" d="M126 1223q0 107 52 174.5t130 67.5q29 0 52.5 -11t59.5 -36.5t58.5 -36t48.5 -10.5q34 0 56.5 32t22.5 79l112 -12q0 -103 -51 -170t-131 -67q-34 0 -58.5 10t-64 40t-57 36.5t-39.5 6.5q-34 0 -56 -31.5t-22 -78.5z" />
<glyph unicode="&#x2dd;" horiz-adv-x="665" d="M89 1207l131 297h181l-176 -297h-136zM326 1207l183 297h190l-219 -297h-154z" />
<glyph unicode="&#x2f3;" horiz-adv-x="528" d="M114 -237q0 71 44 117t104.5 46t103 -46t42.5 -117q0 -70 -41.5 -115t-103.5 -45q-64 0 -106.5 45.5t-42.5 114.5zM189 -237q0 -34 22 -57.5t52 -23.5q28 0 48.5 23.5t20.5 57.5q0 35 -20.5 59.5t-48.5 24.5q-30 0 -52 -24.5t-22 -59.5z" />
<glyph unicode="&#x300;" horiz-adv-x="39" d="M-704 1503h209l160 -288h-146z" />
<glyph unicode="&#x301;" horiz-adv-x="39" d="M-534 1215l160 288h208l-232 -288h-136z" />
<glyph unicode="&#x303;" horiz-adv-x="39" d="M-719 1223q0 107 52 174.5t130 67.5q29 0 52.5 -11t59.5 -36.5t58.5 -36t48.5 -10.5q34 0 56.5 32t22.5 79l112 -12q0 -103 -51 -170t-131 -67q-34 0 -58.5 10t-64 40t-57 36.5t-39.5 6.5q-34 0 -56 -31.5t-22 -78.5z" />
<glyph unicode="&#x309;" horiz-adv-x="39" d="M-540 1515l6 104q126 0 189 -50.5t63 -133.5q0 -63 -32 -101t-89 -48l-1 -70h-121l-1 150q58 4 84.5 19t26.5 54q0 76 -125 76z" />
<glyph unicode="&#x30f;" horiz-adv-x="39" d="M-794 1488h208l200 -261h-155zM-504 1488h190l148 -261h-136z" />
<glyph unicode="&#x323;" horiz-adv-x="0" d="M-698 -240q0 44 27 74.5t80 30.5t80.5 -30.5t27.5 -74.5t-27.5 -73.5t-80.5 -29.5t-80 29.5t-27 73.5z" />
<glyph unicode="&#x384;" horiz-adv-x="514" d="M179 1237l53 330h171l-114 -330h-110z" />
<glyph unicode="&#x385;" horiz-adv-x="908" d="M100 1343.5q0 44.5 24.5 74t73.5 29.5q50 0 74.5 -29.5t24.5 -74t-24.5 -73.5t-74.5 -29q-49 0 -73.5 29t-24.5 73.5zM374 1380l43 259h173l-92 -259h-124zM586 1342q0 43 24.5 73.5t73.5 30.5t74 -30t25 -74t-25 -73.5t-74 -29.5q-50 0 -74 29.5t-24 73.5z" />
<glyph unicode="&#x386;" horiz-adv-x="1156" d="M42 0l460 1427h154l460 -1427h-184l-113 372h-482l-111 -372h-184zM159 1237l53 330h171l-114 -330h-110zM384 527h389l-195 649z" />
<glyph unicode="&#x387;" horiz-adv-x="489" d="M135 714q0 47 26 78.5t78 31.5t78.5 -31.5t26.5 -78.5q0 -46 -26.5 -76.5t-78.5 -30.5t-78 30.5t-26 76.5z" />
<glyph unicode="&#x388;" horiz-adv-x="1094" d="M-99 1237l53 330h171l-114 -330h-110zM252 0v1427h757v-155h-578v-459h505v-153h-505v-506h588v-154h-767z" />
<glyph unicode="&#x389;" horiz-adv-x="1342" d="M-88 1239l53 330h171l-114 -330h-110zM252 0v1427h179v-614h574v614h181v-1427h-181v660h-574v-660h-179z" />
<glyph unicode="&#x38a;" horiz-adv-x="599" d="M-86 1238l53 330h171l-114 -330h-110zM260 0v1427h179v-1427h-179z" />
<glyph unicode="&#x38c;" horiz-adv-x="1225" d="M-27 1237l53 330h171l-114 -330h-110zM142 567v269q0 286 126.5 448t353.5 162q225 0 351 -155t129 -443v-260q0 -292 -124.5 -450t-353.5 -158q-221 0 -349 153.5t-133 433.5zM321 588q0 -219 76 -333.5t227 -114.5t223.5 106t75.5 324v268q0 226 -74 336.5t-227 110.5 q-148 0 -224 -112t-77 -329v-256z" />
<glyph unicode="&#x38e;" horiz-adv-x="1150" d="M-200 1237l53 330h171l-114 -330h-110zM127 1427h204l292 -717l292 717h203l-406 -895v-532h-179v532z" />
<glyph unicode="&#x38f;" horiz-adv-x="1186" d="M-27 1237l53 330h171l-114 -330h-110zM129 710v112q0 182 57.5 324.5t164 221t241.5 78.5t241 -77t165.5 -220.5t59.5 -325.5v-112q0 -164 -51.5 -313t-136.5 -244h179v-154h-407v159q111 26 171.5 161t62.5 376v128q0 225 -75 346.5t-209 121.5q-131 0 -206 -121.5 t-75 -347.5v-112q0 -251 62.5 -389t176.5 -163v-159h-414v154h181q-85 95 -136.5 243.5t-51.5 312.5z" />
<glyph unicode="&#x390;" horiz-adv-x="600" d="M-66 1323.5q0 44.5 24.5 74t73.5 29.5q50 0 74.5 -29.5t24.5 -74t-24.5 -73.5t-74.5 -29q-49 0 -73.5 29t-24.5 73.5zM184 270v790h173v-802q3 -115 91 -115q45 0 68 12l-1 -148q-55 -19 -122 -19q-101 0 -155 71.5t-54 210.5zM208 1360l43 259h173l-92 -259h-124z M420 1322q0 43 24.5 73.5t73.5 30.5t74 -30t25 -74t-25 -73.5t-74 -29.5q-50 0 -74 29.5t-24 73.5z" />
<glyph unicode="&#x391;" horiz-adv-x="1156" d="M42 0l460 1427h154l460 -1427h-184l-113 372h-482l-111 -372h-184zM384 527h389l-195 649z" />
<glyph unicode="&#x392;" horiz-adv-x="1094" d="M154 0v1427h407q195 0 293.5 -95t98.5 -285q0 -100 -50 -176.5t-136 -118.5q98 -30 155.5 -121t57.5 -219q0 -192 -105.5 -302t-300.5 -110h-420zM333 154h245q102 0 162 67t60 189q0 257 -218 257h-249v-513zM333 818h231q93 0 150 63t57 167q0 117 -52 170.5t-158 53.5 h-228v-454z" />
<glyph unicode="&#x393;" horiz-adv-x="979" d="M163 0v1427h742v-155h-562v-1272h-180z" />
<glyph unicode="&#x394;" horiz-adv-x="1232" d="M41 0l506 1427h157l470 -1427h-1133zM277 154h664l-319 1007z" />
<glyph unicode="&#x2206;" horiz-adv-x="1232" d="M41 0l506 1427h157l470 -1427h-1133zM277 154h664l-319 1007z" />
<glyph unicode="&#x395;" horiz-adv-x="996" d="M154 0v1427h757v-155h-578v-459h505v-153h-505v-506h588v-154h-767z" />
<glyph unicode="&#x396;" horiz-adv-x="1048" d="M89 0v141l650 1131h-643v155h843v-138l-651 -1135h677v-154h-876z" />
<glyph unicode="&#x397;" horiz-adv-x="1244" d="M154 0v1427h179v-614h574v614h181v-1427h-181v660h-574v-660h-179z" />
<glyph unicode="&#x398;" horiz-adv-x="1190" d="M100 659v99q0 203 60 360t171 242.5t256 85.5t256 -82.5t171 -237.5t61 -361v-98q0 -209 -60.5 -366.5t-170.5 -239t-255 -81.5q-143 0 -253.5 82.5t-172.5 238t-63 358.5zM278 667q0 -244 82.5 -385.5t228.5 -141.5q147 0 227.5 136t80.5 391v93q0 250 -81 387.5 t-229 137.5q-141 0 -224 -136t-85 -378v-104zM394 646v149h414v-149h-414z" />
<glyph unicode="&#x399;" horiz-adv-x="501" d="M162 0v1427h179v-1427h-179z" />
<glyph unicode="&#x39a;" horiz-adv-x="1093" d="M154 0v1427h179v-689l118 156l384 533h216l-464 -628l500 -799h-215l-399 658l-140 -170v-488h-179z" />
<glyph unicode="&#x39b;" horiz-adv-x="1148" d="M55 0l436 1427h158l437 -1427h-194l-323 1112l-321 -1112h-193z" />
<glyph unicode="&#x39c;" horiz-adv-x="1516" d="M154 0v1427h231l373 -1164l372 1164h231v-1427h-179v556l17 556l-374 -1112h-137l-371 1108l16 -552v-556h-179z" />
<glyph unicode="&#x39d;" horiz-adv-x="1242" d="M154 0v1427h180l573 -1105v1105h179v-1427h-180l-572 1100v-1100h-180z" />
<glyph unicode="&#x39e;" horiz-adv-x="1009" d="M120 0v154h776v-154h-776zM121 1272v155h765v-155h-765zM188 661v153h632v-153h-632z" />
<glyph unicode="&#x39f;" horiz-adv-x="1205" d="M122 567v269q0 286 126.5 448t353.5 162q225 0 351 -155t129 -443v-260q0 -292 -124.5 -450t-353.5 -158q-221 0 -349 153.5t-133 433.5zM301 588q0 -219 76 -333.5t227 -114.5t223.5 106t75.5 324v268q0 226 -74 336.5t-227 110.5q-148 0 -224 -112t-77 -329v-256z" />
<glyph unicode="&#x3a0;" horiz-adv-x="1245" d="M163 0v1427h918v-1427h-180v1272h-559v-1272h-179z" />
<glyph unicode="&#x3a1;" horiz-adv-x="1112" d="M154 0v1427h455q199 0 312.5 -119t113.5 -317q0 -206 -108.5 -317t-305.5 -115h-288v-559h-179zM333 712h276q119 0 183 72t64 205q0 128 -66 205.5t-180 77.5h-277v-560z" />
<glyph unicode="&#x3a3;" horiz-adv-x="1009" d="M78 0v140l386 574l-386 572v141h809v-155h-597l366 -545v-23l-368 -550h637v-154h-847z" />
<glyph unicode="&#x3a4;" horiz-adv-x="1044" d="M59 1272v155h929v-155h-376v-1272h-179v1272h-374z" />
<glyph unicode="&#x3a5;" horiz-adv-x="1052" d="M29 1427h204l292 -717l292 717h203l-406 -895v-532h-179v532z" />
<glyph unicode="&#x3a6;" horiz-adv-x="1247" d="M79 708q0 233 129 385.5t329 152.5v181h181v-181q128 0 232.5 -69t164 -192.5t59.5 -274.5q0 -153 -60 -277t-163.5 -192.5t-232.5 -68.5v-172h-181v172q-199 0 -328.5 150.5t-129.5 385.5zM258 708q0 -176 71.5 -278.5t207.5 -102.5v763h-6q-129 0 -201 -103t-72 -279z M718 327h4q130 0 202 103t72 280q0 174 -72 277t-206 103v-763z" />
<glyph unicode="&#x3a7;" horiz-adv-x="1105" d="M67 0l381 719l-374 708h210l271 -547l268 547h211l-372 -708l380 -719h-213l-274 557l-276 -557h-212z" />
<glyph unicode="&#x3a8;" horiz-adv-x="1204" d="M83 910v517h180v-516q0 -159 62 -262.5t172 -132.5v911h180v-913q117 27 182.5 130t66.5 263v520h180v-519q0 -152 -53 -273t-150.5 -192.5t-225.5 -86.5v-356h-180v356q-193 27 -303.5 175t-110.5 379z" />
<glyph unicode="&#x3a9;" horiz-adv-x="1167" d="M109 710v112q0 182 57.5 324.5t164 221t241.5 78.5t241 -77t165.5 -220.5t59.5 -325.5v-112q0 -164 -51.5 -313t-136.5 -244h179v-154h-407v159q111 26 171.5 161t62.5 376v128q0 225 -75 346.5t-209 121.5q-131 0 -206 -121.5t-75 -347.5v-112q0 -251 62.5 -389 t176.5 -163v-159h-414v154h181q-85 95 -136.5 243.5t-51.5 312.5z" />
<glyph unicode="&#x2126;" horiz-adv-x="1167" d="M109 710v112q0 182 57.5 324.5t164 221t241.5 78.5t241 -77t165.5 -220.5t59.5 -325.5v-112q0 -164 -51.5 -313t-136.5 -244h179v-154h-407v159q111 26 171.5 161t62.5 376v128q0 225 -75 346.5t-209 121.5q-131 0 -206 -121.5t-75 -347.5v-112q0 -251 62.5 -389 t176.5 -163v-159h-414v154h181q-85 95 -136.5 243.5t-51.5 312.5z" />
<glyph unicode="&#x3aa;" horiz-adv-x="501" d="M-64 1660q0 44 27 73.5t80 29.5t80.5 -29.5t27.5 -74t-27.5 -73.5t-80.5 -29t-80 29t-27 74zM162 0v1427h179v-1427h-179zM357 1658q0 44 27 74t80 30t80.5 -30t27.5 -74t-27.5 -73.5t-80.5 -29.5t-80 29.5t-27 73.5z" />
<glyph unicode="&#x3ab;" horiz-adv-x="1052" d="M29 1427h204l292 -717l292 717h203l-406 -895v-532h-179v532zM215 1648q0 44 27 73.5t80 29.5t80.5 -29.5t27.5 -74t-27.5 -73.5t-80.5 -29t-80 29t-27 74zM636 1646q0 44 27 74t80 30t80.5 -30t27.5 -74t-27.5 -73.5t-80.5 -29.5t-80 29.5t-27 73.5z" />
<glyph unicode="&#x3ac;" horiz-adv-x="992" d="M98 511q0 261 94.5 415t255.5 154q160 0 249 -140l13 120h147v-777q1 -141 58 -141q14 0 24 5l20 -134q-42 -34 -107 -34q-118 0 -152 146q-89 -146 -253 -146q-160 0 -254.5 138t-94.5 394zM271 490q0 -177 58 -270t163 -93q127 0 192 161v479q-68 164 -191 164 q-106 0 -164 -109t-58 -332zM466 1232l53 330h171l-114 -330h-110z" />
<glyph unicode="&#x3ad;" horiz-adv-x="944" d="M98 298q0 182 170 247q-73 35 -113.5 95t-40.5 131q0 146 96 227t263 81q154 0 256.5 -87.5t102.5 -227.5h-172q0 70 -53 119t-134 49q-86 0 -136 -45.5t-50 -116.5q0 -157 181 -157h168v-145h-182q-181 -2 -181 -170q0 -75 55 -123.5t145 -48.5q85 0 143 54t58 134h173 q0 -153 -105.5 -243.5t-268.5 -90.5q-167 0 -271 86t-104 232zM405 1231l53 330h171l-114 -330h-110z" />
<glyph unicode="&#x3ae;" horiz-adv-x="1000" d="M134 0v1060h156l10 -123q100 143 256 143t228 -96.5t74 -292.5v-1098h-173v1084q0 133 -41.5 193.5t-142.5 60.5q-132 0 -192 -147v-784h-175zM428 1232l53 330h171l-114 -330h-110z" />
<glyph unicode="&#x3af;" horiz-adv-x="600" d="M184 270v790h173v-802q3 -115 91 -115q45 0 68 12l-1 -148q-55 -19 -122 -19q-101 0 -155 71.5t-54 210.5zM209 1212l53 330h171l-114 -330h-110z" />
<glyph unicode="&#x3b0;" horiz-adv-x="965" d="M125 1323.5q0 44.5 24.5 74t73.5 29.5q50 0 74.5 -29.5t24.5 -74t-24.5 -73.5t-74.5 -29q-49 0 -73.5 29t-24.5 73.5zM133 414v646h174v-630q0 -303 154 -303q100 0 167 125t67 299q-5 224 -103 509h180q95 -229 95 -509q0 -260 -107.5 -415.5t-291.5 -155.5 q-164 0 -249 110t-86 324zM399 1360l43 259h173l-92 -259h-124zM611 1322q0 43 24.5 73.5t73.5 30.5t74 -30t25 -74t-25 -73.5t-74 -29.5q-50 0 -74 29.5t-24 73.5z" />
<glyph unicode="&#x3b1;" horiz-adv-x="992" d="M98 511q0 261 94.5 415t255.5 154q160 0 249 -140l13 120h147v-777q1 -141 58 -141q14 0 24 5l20 -134q-42 -34 -107 -34q-118 0 -152 146q-89 -146 -253 -146q-160 0 -254.5 138t-94.5 394zM271 490q0 -177 58 -270t163 -93q127 0 192 161v479q-68 164 -191 164 q-106 0 -164 -109t-58 -332z" />
<glyph unicode="&#x3b2;" horiz-adv-x="1037" d="M146 -376v1429q0 103 51 195.5t138.5 145t185.5 52.5q161 0 259.5 -106.5t98.5 -278.5q0 -89 -41.5 -163.5t-115.5 -120.5q99 -44 153 -139.5t54 -221.5q0 -199 -103 -317.5t-271 -118.5q-139 0 -236 82v-438h-173zM319 229q74 -101 217 -101q100 0 160.5 77t60.5 207 q0 115 -52 197t-134 83h-119v149h72q89 2 136 60t47 164q0 101 -52.5 167t-133.5 66q-84 0 -143 -69.5t-59 -180.5v-819z" />
<glyph unicode="&#x3b3;" horiz-adv-x="891" d="M58 1060h176l221 -755l213 755h176l-306 -996v-472h-173v483z" />
<glyph unicode="&#x3b4;" horiz-adv-x="1000" d="M100 519q0 166 75.5 294t192.5 161l-1 5q-76 38 -120 106.5t-44 158.5q0 135 84 212t230 77q110 0 220 -54l1 -157q-48 26 -112 42t-112 16q-65 0 -101 -35.5t-36 -95.5q0 -111 175 -184t259.5 -204.5t88.5 -324.5v-37q0 -231 -108.5 -375t-290.5 -144q-184 0 -292.5 144 t-108.5 395zM274 499q0 -173 60.5 -272.5t166.5 -99.5q104 0 164 97.5t60 294.5q0 137 -63 243t-162 130q-103 0 -164.5 -100t-61.5 -293z" />
<glyph unicode="&#x3b5;" horiz-adv-x="944" d="M98 298q0 182 170 247q-73 35 -113.5 95t-40.5 131q0 146 96 227t263 81q154 0 256.5 -87.5t102.5 -227.5h-172q0 70 -53 119t-134 49q-86 0 -136 -45.5t-50 -116.5q0 -157 181 -157h168v-145h-182q-181 -2 -181 -170q0 -75 55 -123.5t145 -48.5q85 0 143 54t58 134h173 q0 -153 -105.5 -243.5t-268.5 -90.5q-167 0 -271 86t-104 232z" />
<glyph unicode="&#x3b6;" horiz-adv-x="929" d="M121 1278v149h703v-118l-273 -418q-124 -178 -162.5 -285t-38.5 -228q0 -94 22.5 -140t79.5 -70l198 -66q73 -25 104.5 -68.5t31.5 -119.5q-2 -69 -47 -151.5t-103 -137.5l-90 82q74 96 74 179q0 67 -124 105l-70 22q-137 42 -193.5 121.5t-56.5 238.5q0 127 65 287.5 t173 307.5l226 310h-519z" />
<glyph unicode="&#x3b7;" horiz-adv-x="1000" d="M134 0v1060h156l10 -123q100 143 256 143t228 -96.5t74 -292.5v-1098h-173v1084q0 133 -41.5 193.5t-142.5 60.5q-132 0 -192 -147v-784h-175z" />
<glyph unicode="&#x3b8;" horiz-adv-x="996" d="M115 620v188q0 309 98.5 473.5t283.5 164.5q183 0 281 -158.5t102 -456.5v-204q0 -314 -99.5 -480.5t-282.5 -166.5q-181 0 -281.5 165.5t-101.5 474.5zM288 598q0 -218 54.5 -344t155.5 -126t154.5 122.5t53.5 348.5v37h-418v-38zM288 785h418v54q0 222 -53.5 340.5 t-155.5 118.5q-101 0 -155 -118.5t-54 -340.5v-54z" />
<glyph unicode="&#x3b9;" horiz-adv-x="600" d="M184 270v790h173v-802q3 -115 91 -115q45 0 68 12l-1 -148q-55 -19 -122 -19q-101 0 -155 71.5t-54 210.5z" />
<glyph unicode="&#x3ba;" horiz-adv-x="985" d="M144 0v1060h174v-448h60l313 448h208l-372 -511l397 -549h-217l-315 452h-74v-452h-174z" />
<glyph unicode="&#x3bb;" horiz-adv-x="975" d="M46 0l318 1000l-85 239q-17 56 -37 78t-51 22l-39 -2l1 139q30 12 84 12q80 0 129.5 -40.5t77.5 -131.5l360 -1087q14 -50 30.5 -69t41.5 -19q21 0 30 3l4 -149q-32 -12 -67 -12q-83 0 -125 41.5t-76 137.5l-192 579l-211 -741h-193z" />
<glyph unicode="&#x3bc;" horiz-adv-x="1000" d="M144 -408v1468h173v-629q1 -156 39.5 -230t127.5 -74q144 0 198 132v801h175v-1060h-156l-8 100q-73 -120 -202 -120q-113 0 -174 66v-454h-173z" />
<glyph unicode="&#x3bd;" horiz-adv-x="858" d="M45 1060h176l209 -796l201 796h177l-315 -1060h-129z" />
<glyph unicode="&#x3be;" horiz-adv-x="865" d="M97 439q0 148 70.5 245.5t191.5 140.5q-99 41 -155 115.5t-56 168.5q0 156 108.5 246.5t299.5 90.5q125 0 208 -38l-25 -146q-106 36 -181 36q-110 0 -173.5 -50.5t-63.5 -134.5q0 -214 262 -214h113v-149h-123q-151 -1 -227 -77t-76 -238q0 -108 54 -185.5t154 -110.5 l79 -21q114 -32 156 -57.5t62 -63t20 -96.5q0 -64 -43.5 -146t-104.5 -140l-100 82q53 66 68 101t15 81q0 39 -29.5 60.5t-128.5 49.5t-162 58q-213 101 -213 392z" />
<glyph unicode="&#x3bf;" d="M93 464v115q0 231 112.5 366t296.5 135t296 -131.5t115 -357.5v-112q0 -230 -111.5 -364.5t-297.5 -134.5q-185 0 -296 130.5t-115 353.5zM267 479q0 -163 64 -257t173 -94q229 0 236 332v119q0 163 -64.5 257.5t-173.5 94.5q-107 0 -171 -94.5t-64 -256.5v-101z" />
<glyph unicode="&#x3c0;" horiz-adv-x="1043" d="M50 910v150h906v-150h-118v-640q0 -65 20.5 -96t70.5 -31q44 0 68 12v-148q-56 -19 -123 -19q-103 0 -156 72.5t-54 204.5v645h-306v-910h-173v910h-135z" />
<glyph unicode="&#x3c1;" horiz-adv-x="1000" d="M134 -408v977q0 153 47.5 269.5t133 179t192.5 62.5q184 0 287 -150t103 -440q0 -232 -91.5 -371t-251.5 -139q-152 0 -245 105v-493h-175zM309 260q63 -132 191 -132q106 0 165 95t59 288q0 203 -56.5 311.5t-160.5 108.5q-89 0 -143.5 -107t-54.5 -270v-294z" />
<glyph unicode="&#x3c2;" horiz-adv-x="947" d="M99 551q0 149 49 271.5t138 190t205 67.5q159 0 254.5 -104t95.5 -281h-163q0 112 -50 174t-137 62q-101 0 -160 -106.5t-59 -283.5v-31q0 -257 251 -352l119 -40q77 -28 112 -75t35 -123q-2 -65 -46 -147.5t-104 -139.5l-90 84q49 63 61.5 98t12.5 82q0 44 -30.5 65 t-97.5 39q-375 97 -395 465z" />
<glyph unicode="&#x3c3;" horiz-adv-x="1000" d="M100 525v15q0 231 109 375.5t292 144.5h467v-150h-227q159 -147 159 -411v-18q0 -137 -51.5 -254t-142.5 -182t-206 -65q-182 0 -291 148.5t-109 396.5zM273 518q0 -178 60 -284t167 -106t166.5 105t59.5 307q0 169 -59.5 269.5t-168.5 100.5q-107 0 -166 -100.5 t-59 -291.5z" />
<glyph unicode="&#x3c4;" horiz-adv-x="925" d="M87 913v147h748v-147h-295v-649q0 -131 74 -131q39 0 73 26l40 -128q-66 -51 -161 -51q-194 0 -199 274v659h-280z" />
<glyph unicode="&#x3c5;" horiz-adv-x="965" d="M133 414v646h174v-630q0 -303 154 -303q100 0 167 125t67 299q-5 224 -103 509h180q95 -229 95 -509q0 -260 -107.5 -415.5t-291.5 -155.5q-164 0 -249 110t-86 324z" />
<glyph unicode="&#x3c6;" horiz-adv-x="1239" d="M83 553q0 342 210 507l95 -130q-121 -128 -131 -377q0 -168 72.5 -279t195.5 -138v700q0 104 59 164t160 60q110 0 205 -69t150.5 -191t55.5 -267q0 -237 -118.5 -380.5t-338.5 -168.5v-452h-173v452q-210 24 -326 172t-116 397zM698 135q132 25 208 131t76 267 q-5 169 -69.5 273t-168.5 104q-46 0 -46 -76v-699z" />
<glyph unicode="&#x3c7;" horiz-adv-x="881" d="M51 0l295 536l-287 524h199l178 -387l181 387h201l-288 -524l295 -536h-199l-187 397l-188 -397h-200z" />
<glyph unicode="&#x3c8;" horiz-adv-x="1229" d="M89 583v477h175v-473q0 -392 252 -451v924h173v-925q131 27 207.5 140t76.5 281q-5 226 -100 504h180q94 -227 94 -504q0 -253 -118.5 -401t-339.5 -171v-447h-173v449q-211 28 -319 179t-108 418z" />
<glyph unicode="&#x3c9;" horiz-adv-x="1427" d="M116 549q0 282 109 511h182q-112 -273 -119 -511q0 -202 43 -312t124 -110q79 0 123 80.5t46 240.5v307h175v-301q1 -162 45 -244.5t124.5 -82.5t123.5 109.5t43 312.5q-7 238 -119 511h182q109 -234 109 -511q0 -276 -85.5 -422.5t-243.5 -146.5q-197 0 -267 229 q-69 -229 -266 -229q-158 0 -243.5 146.5t-85.5 422.5z" />
<glyph unicode="&#x3ca;" horiz-adv-x="600" d="M-36 1324q0 44 27 73.5t80 29.5t80.5 -29.5t27.5 -74t-27.5 -73.5t-80.5 -29t-80 29t-27 74zM184 270v790h173v-802q3 -115 91 -115q45 0 68 12l-1 -148q-55 -19 -122 -19q-101 0 -155 71.5t-54 210.5zM385 1322q0 44 27 74t80 30t80.5 -30t27.5 -74t-27.5 -73.5 t-80.5 -29.5t-80 29.5t-27 73.5z" />
<glyph unicode="&#x3cb;" horiz-adv-x="965" d="M133 414v646h174v-630q0 -303 154 -303q100 0 167 125t67 299q-5 224 -103 509h180q95 -229 95 -509q0 -260 -107.5 -415.5t-291.5 -155.5q-164 0 -249 110t-86 324zM155 1324q0 44 27 73.5t80 29.5t80.5 -29.5t27.5 -74t-27.5 -73.5t-80.5 -29t-80 29t-27 74zM576 1322 q0 44 27 74t80 30t80.5 -30t27.5 -74t-27.5 -73.5t-80.5 -29.5t-80 29.5t-27 73.5z" />
<glyph unicode="&#x3cc;" d="M93 464v115q0 231 112.5 366t296.5 135t296 -131.5t115 -357.5v-112q0 -230 -111.5 -364.5t-297.5 -134.5q-185 0 -296 130.5t-115 353.5zM267 479q0 -163 64 -257t173 -94q229 0 236 332v119q0 163 -64.5 257.5t-173.5 94.5q-107 0 -171 -94.5t-64 -256.5v-101z M426 1232l53 330h171l-114 -330h-110z" />
<glyph unicode="&#x3cd;" horiz-adv-x="965" d="M133 414v646h174v-630q0 -303 154 -303q100 0 167 125t67 299q-5 224 -103 509h180q95 -229 95 -509q0 -260 -107.5 -415.5t-291.5 -155.5q-164 0 -249 110t-86 324zM401 1212l53 330h171l-114 -330h-110z" />
<glyph unicode="&#x3ce;" horiz-adv-x="1427" d="M116 549q0 282 109 511h182q-112 -273 -119 -511q0 -202 43 -312t124 -110q79 0 123 80.5t46 240.5v307h175v-301q1 -162 45 -244.5t124.5 -82.5t123.5 109.5t43 312.5q-7 238 -119 511h182q109 -234 109 -511q0 -276 -85.5 -422.5t-243.5 -146.5q-197 0 -267 229 q-69 -229 -266 -229q-158 0 -243.5 146.5t-85.5 422.5zM645 1209l53 330h171l-114 -330h-110z" />
<glyph unicode="&#x3d1;" horiz-adv-x="1018" d="M116 416v338l173 2v-330q0 -140 54 -216t150 -76q88 0 137.5 71t49.5 221v165q-181 38 -288 176.5t-107 340.5q0 157 78 248.5t207 91.5q133 0 208 -96t75 -271v-343q58 9 104 22l6 -146q-52 -23 -110 -30v-168q-3 -204 -98 -320t-262 -116q-169 0 -271.5 118.5 t-105.5 317.5zM460 1092q0 -120 59 -212.5t161 -126.5v349q-4 192 -110 192q-107 0 -110 -177v-25z" />
<glyph unicode="&#x3d2;" horiz-adv-x="933" d="M-9 1411q48 28 105 28q73 0 118 -45.5t77 -137.5l177 -473l190 493q34 88 75 125.5t108 37.5q58 0 106 -27l-33 -148q-10 8 -37 8q-50 0 -70 -77l-249 -631v-564h-180v565l-247 630q-21 77 -70 77q-29 0 -39 -8z" />
<glyph unicode="&#x3d6;" horiz-adv-x="1362" d="M86 910v150h1217v-150h-109q52 -176 52 -361q0 -274 -77 -421.5t-218 -147.5q-196 0 -266 229q-68 -229 -265 -229q-143 0 -219 148t-76 421q0 185 52 361h-91zM299 549q0 -204 34.5 -313t95.5 -109q80 0 124 80.5t46 240.5v260h174v-237q0 -344 170 -344q61 0 94.5 110 t33.5 312q-4 168 -64 361h-644q-60 -193 -64 -361z" />
<glyph unicode="&#x400;" horiz-adv-x="996" d="M154 0v1427h757v-155h-578v-459h505v-153h-505v-506h588v-154h-767zM225 1819h218l191 -288h-156z" />
<glyph unicode="&#x401;" horiz-adv-x="996" d="M154 0v1427h757v-155h-578v-459h505v-153h-505v-506h588v-154h-767zM215 1660q0 44 27 73.5t80 29.5t80.5 -29.5t27.5 -74t-27.5 -73.5t-80.5 -29t-80 29t-27 74zM636 1658q0 44 27 74t80 30t80.5 -30t27.5 -74t-27.5 -73.5t-80.5 -29.5t-80 29.5t-27 73.5z" />
<glyph unicode="&#x402;" horiz-adv-x="1306" d="M50 1272v155h933v-155h-416v-443q131 44 225 44q205 0 319 -116.5t114 -332.5q0 -210 -109 -322.5t-307 -112.5l-1 147q120 0 178.5 68t58.5 219q-4 287 -254 287q-113 0 -224 -42v-668h-181v1272h-336z" />
<glyph unicode="&#x403;" horiz-adv-x="979" d="M163 0v1427h742v-155h-562v-1272h-180zM437 1531l189 288h219l-262 -288h-146z" />
<glyph unicode="&#x404;" horiz-adv-x="1183" d="M118 638v145q0 197 59.5 348.5t172 233t260.5 81.5q191 0 306 -123t137 -355h-181q-20 176 -84 250t-178 74q-147 0 -228.5 -130t-83.5 -365h458v-154h-458v-2q0 -238 77 -372.5t218 -134.5q125 0 190 68.5t88 250.5h182q-23 -230 -141.5 -351.5t-318.5 -121.5 q-213 0 -343.5 179.5t-131.5 478.5z" />
<glyph unicode="&#x405;" horiz-adv-x="1039" d="M83 414h181q0 -133 74 -206.5t201 -73.5q119 0 178.5 61t59.5 166q0 106 -57.5 163t-208.5 111t-231 113.5t-119.5 135t-39.5 173.5q0 170 113 279.5t296 109.5q126 0 224 -56t150.5 -156t52.5 -220h-180q0 133 -63.5 205.5t-183.5 72.5q-109 0 -168.5 -61t-59.5 -171 q0 -90 64.5 -150.5t199.5 -108.5q211 -70 301.5 -172t90.5 -266q0 -174 -112.5 -278.5t-306.5 -104.5q-124 0 -229.5 54.5t-166 153t-60.5 226.5z" />
<glyph unicode="&#x406;" horiz-adv-x="501" d="M162 0v1427h179v-1427h-179z" />
<glyph unicode="&#x407;" horiz-adv-x="501" d="M-64 1660q0 44 27 73.5t80 29.5t80.5 -29.5t27.5 -74t-27.5 -73.5t-80.5 -29t-80 29t-27 74zM162 0v1427h179v-1427h-179zM357 1658q0 44 27 74t80 30t80.5 -30t27.5 -74t-27.5 -73.5t-80.5 -29.5t-80 29.5t-27 73.5z" />
<glyph unicode="&#x408;" horiz-adv-x="970" d="M58 394h179q0 -123 54 -191.5t150 -68.5q93 0 149 74.5t56 208.5v1010h180v-1011q0 -204 -104.5 -320t-280.5 -116q-181 0 -282 110t-101 304z" />
<glyph unicode="&#x409;" horiz-adv-x="1854" d="M59 0v154l34 2q71 6 110 52.5t60 148t30 316.5l25 754h758v-554h287q124 0 217 -54.5t142.5 -153.5t49.5 -229q0 -198 -111 -316.5t-298 -119.5h-467v1272h-405l-22 -600q-11 -262 -49.5 -400.5t-112 -204t-192.5 -67.5h-56zM1076 154h285q108 0 169.5 78.5t61.5 205.5 q0 125 -60 201.5t-164 78.5h-292v-564z" />
<glyph unicode="&#x40a;" horiz-adv-x="1861" d="M163 0v1427h180v-619h558v619h180v-598h283q194 0 303.5 -110.5t109.5 -299.5q0 -190 -110 -304.5t-304 -114.5h-462v655h-558v-655h-180zM1081 163h286q109 0 169.5 70.5t60.5 187.5q0 113 -58.5 182.5t-164.5 71.5h-293v-512z" />
<glyph unicode="&#x40b;" horiz-adv-x="1416" d="M74 1272v155h930v-155h-425v-419q119 35 264 35q205 0 306 -105.5t104 -318.5v-464h-181v454q-1 150 -53 214.5t-176 64.5q-126 0 -264 -37v-696h-180v1272h-325z" />
<glyph unicode="&#x40c;" horiz-adv-x="1093" d="M154 0v1427h179v-689l118 156l384 533h216l-464 -628l500 -799h-215l-399 658l-140 -170v-488h-179zM418 1513l189 288h219l-262 -288h-146z" />
<glyph unicode="&#x40d;" horiz-adv-x="1242" d="M162 0v1427h180v-1100l556 1100h179v-1427h-179v1100l-556 -1100h-180zM318 1819h218l191 -288h-156z" />
<glyph unicode="&#x40e;" horiz-adv-x="1099" d="M90 1427h200l276 -800l255 800h208l-411 -1189q-45 -115 -80.5 -161.5t-85.5 -72t-126 -25.5q-67 0 -85 9l4 149l77 -4q79 0 113 95l47 140zM258 1782h148q0 -69 37.5 -107.5t108.5 -38.5q69 0 107.5 38.5t38.5 107.5h147q0 -118 -80.5 -190.5t-212 -72.5t-213 73 t-81.5 190z" />
<glyph unicode="&#x40f;" horiz-adv-x="1246" d="M162 0v1427h180v-1273h558v1273h180v-1427h-363v-352h-181v352h-374z" />
<glyph unicode="&#x410;" horiz-adv-x="1156" d="M42 0l460 1427h154l460 -1427h-184l-113 372h-482l-111 -372h-184zM384 527h389l-195 649z" />
<glyph unicode="&#x411;" horiz-adv-x="1103" d="M148 0v1427h742v-155h-562v-427h288q192 -1 301 -112.5t109 -306.5q0 -196 -110 -311t-305 -115h-463zM328 154h286q110 0 171 75.5t61 198.5q0 122 -60.5 192t-170.5 70h-287v-536z" />
<glyph unicode="&#x412;" horiz-adv-x="1094" d="M154 0v1427h407q195 0 293.5 -95t98.5 -285q0 -100 -50 -176.5t-136 -118.5q98 -30 155.5 -121t57.5 -219q0 -192 -105.5 -302t-300.5 -110h-420zM333 154h245q102 0 162 67t60 189q0 257 -218 257h-249v-513zM333 818h231q93 0 150 63t57 167q0 117 -52 170.5t-158 53.5 h-228v-454z" />
<glyph unicode="&#x413;" horiz-adv-x="979" d="M163 0v1427h742v-155h-562v-1272h-180z" />
<glyph unicode="&#x414;" horiz-adv-x="1324" d="M54 154h105q68 87 112 262.5t55 391.5l28 619h738v-1273h167l-2 -504h-179v350h-843v-351h-180zM350 154h561v1118h-383l-20 -461q-12 -226 -54 -390t-104 -267z" />
<glyph unicode="&#x415;" horiz-adv-x="996" d="M154 0v1427h757v-155h-578v-459h505v-153h-505v-506h588v-154h-767z" />
<glyph unicode="&#x416;" horiz-adv-x="1587" d="M43 0l395 758l-364 669h212l296 -619h132v619h181v-619h125l296 619h211l-363 -668l394 -759h-222l-317 651h-124v-651h-181v651h-132l-315 -651h-224z" />
<glyph unicode="&#x417;" horiz-adv-x="1038" d="M82 396h180q0 -112 69 -187.5t177 -75.5q120 0 192 71t72 190q0 249 -238 256h-147v155h134q114 0 173.5 61.5t59.5 177.5q0 114 -65.5 181t-180.5 67q-98 0 -163.5 -69t-65.5 -171h-179q0 175 116.5 284.5t291.5 109.5q202 0 314 -107.5t112 -297.5q0 -99 -52 -180.5 t-143 -128.5q213 -85 213 -334q0 -194 -122 -306t-322 -112q-87 0 -166.5 28t-139.5 85q-120 113 -120 303z" />
<glyph unicode="&#x418;" horiz-adv-x="1242" d="M162 0v1427h180v-1100l556 1100h179v-1427h-179v1100l-556 -1100h-180z" />
<glyph unicode="&#x419;" horiz-adv-x="1242" d="M162 0v1427h180v-1100l556 1100h179v-1427h-179v1100l-556 -1100h-180zM329 1782h148q0 -69 37.5 -107.5t108.5 -38.5q69 0 107.5 38.5t38.5 107.5h147q0 -118 -80.5 -190.5t-212 -72.5t-213 73t-81.5 190z" />
<glyph unicode="&#x41a;" horiz-adv-x="1125" d="M163 0v1427h179v-629h110l402 629h223l-453 -690l486 -737h-219l-414 641h-135v-641h-179z" />
<glyph unicode="&#x41b;" horiz-adv-x="1235" d="M61 0v154l33 2q72 6 112 55.5t60.5 157t29.5 329.5l23 729h752v-1427h-180v1272h-399l-22 -600q-11 -262 -49.5 -400.5t-112 -204t-192.5 -67.5h-55z" />
<glyph unicode="&#x41c;" horiz-adv-x="1516" d="M154 0v1427h231l373 -1164l372 1164h231v-1427h-179v556l17 556l-374 -1112h-137l-371 1108l16 -552v-556h-179z" />
<glyph unicode="&#x41d;" horiz-adv-x="1244" d="M154 0v1427h179v-614h574v614h181v-1427h-181v660h-574v-660h-179z" />
<glyph unicode="&#x41e;" horiz-adv-x="1205" d="M122 567v269q0 286 126.5 448t353.5 162q225 0 351 -155t129 -443v-260q0 -292 -124.5 -450t-353.5 -158q-221 0 -349 153.5t-133 433.5zM301 588q0 -219 76 -333.5t227 -114.5t223.5 106t75.5 324v268q0 226 -74 336.5t-227 110.5q-148 0 -224 -112t-77 -329v-256z" />
<glyph unicode="&#x41f;" horiz-adv-x="1245" d="M163 0v1427h918v-1427h-180v1272h-559v-1272h-179z" />
<glyph unicode="&#x420;" horiz-adv-x="1112" d="M154 0v1427h455q199 0 312.5 -119t113.5 -317q0 -206 -108.5 -317t-305.5 -115h-288v-559h-179zM333 712h276q119 0 183 72t64 205q0 128 -66 205.5t-180 77.5h-277v-560z" />
<glyph unicode="&#x421;" horiz-adv-x="1137" d="M122 586v259q0 278 129.5 439.5t354.5 161.5q206 0 319.5 -123.5t123.5 -354.5h-182q-11 175 -73 249.5t-188 74.5q-146 0 -224.5 -114.5t-78.5 -334.5v-262q0 -216 73 -332t213 -116t202 69.5t76 250.5h182q-12 -230 -129 -351.5t-331 -121.5q-215 0 -341 163.5 t-126 442.5z" />
<glyph unicode="&#x422;" horiz-adv-x="1044" d="M59 1272v155h929v-155h-376v-1272h-179v1272h-374z" />
<glyph unicode="&#x423;" horiz-adv-x="1099" d="M90 1427h200l276 -800l255 800h208l-411 -1189q-45 -115 -80.5 -161.5t-85.5 -72t-126 -25.5q-67 0 -85 9l4 149l77 -4q79 0 113 95l47 140z" />
<glyph unicode="&#x424;" horiz-adv-x="1358" d="M90 709q0 162 63.5 294.5t174.5 206.5t247 74h23v202h173v-202h25q132 -1 244 -75.5t175 -205.5t63 -293t-63 -294t-174.5 -207t-245.5 -76h-24v-192h-173v192h-24q-135 0 -246.5 74.5t-174.5 207t-63 294.5zM262 709q0 -201 82 -313.5t228 -113.5h26v854h-24 q-145 0 -228.5 -113t-83.5 -314zM771 282h23q146 0 228.5 115t82.5 313q0 195 -80.5 309t-223.5 117h-30v-854z" />
<glyph unicode="&#x425;" horiz-adv-x="1105" d="M67 0l381 719l-374 708h210l271 -547l268 547h211l-372 -708l380 -719h-213l-274 557l-276 -557h-212z" />
<glyph unicode="&#x426;" horiz-adv-x="1282" d="M163 0v1427h180v-1273h558v1273h179v-1269h129l-17 -502h-161v344h-868z" />
<glyph unicode="&#x427;" horiz-adv-x="1205" d="M136 963v464h181v-454q1 -150 52.5 -214.5t175.5 -64.5q154 0 316 52v681h181v-1427h-181v590q-149 -51 -316 -51q-205 0 -305 105t-104 319z" />
<glyph unicode="&#x428;" horiz-adv-x="1634" d="M163 0v1427h180v-1273h387v1273h178v-1273h385v1273h180v-1427h-1310z" />
<glyph unicode="&#x429;" horiz-adv-x="1689" d="M163 0v1427h180v-1273h387v1273h178v-1273h385v1273h180v-1279h123l-17 -492h-153v344h-1263z" />
<glyph unicode="&#x42a;" horiz-adv-x="1308" d="M41 1278v149h494v-582h284q194 0 303 -112t109 -307t-109.5 -310.5t-304.5 -115.5h-463v1278h-313zM535 154h286q108 0 169 74t61 200q0 123 -59.5 192t-167.5 70h-289v-536z" />
<glyph unicode="&#x42b;" horiz-adv-x="1516" d="M164 0v1427h179v-582h288q192 -1 301 -112.5t109 -306.5q0 -196 -110.5 -311t-305.5 -115h-461zM343 154h286q110 0 170.5 75.5t60.5 198.5q0 122 -60 192t-170 70h-287v-536zM1166 0v1427h180v-1427h-180z" />
<glyph unicode="&#x42c;" horiz-adv-x="1106" d="M149 0v1427h179v-582h288q192 -1 301 -112.5t109 -306.5q0 -196 -110 -311t-305 -115h-462zM328 154h286q110 0 171 75.5t61 198.5q0 122 -60.5 192t-170.5 70h-287v-536z" />
<glyph unicode="&#x42d;" horiz-adv-x="1183" d="M142 453h181q24 -184 89 -251.5t190 -67.5q137 0 215 129t80 371h-462v155h462q0 237 -82.5 370t-229.5 133q-116 0 -178.5 -74.5t-83.5 -249.5h-181q22 232 137 355t306 123q224 0 358 -180t134 -491v-134q0 -196 -58.5 -345.5t-167 -232.5t-249.5 -83 q-200 0 -318.5 121.5t-141.5 351.5z" />
<glyph unicode="&#x42e;" horiz-adv-x="1536" d="M163 0v1427h179v-655h161v73q1 187 58.5 323t165 207t255.5 71q225 0 351 -155t129 -443v-260q0 -292 -124.5 -450t-353.5 -158q-221 0 -348.5 153.5t-132.5 433.5v57h-161v-624h-179zM681 588q0 -219 76 -333.5t227 -114.5t223.5 106t75.5 324v268q0 226 -74 336.5 t-227 110.5q-148 0 -224 -112t-77 -329v-256z" />
<glyph unicode="&#x42f;" horiz-adv-x="1128" d="M92 0l279 611q-233 108 -233 386q0 201 112.5 315t313.5 115h392v-1427h-180v556h-247l-246 -556h-191zM318 997q0 -130 65 -208t181 -79h212v562h-210q-121 0 -184.5 -73.5t-63.5 -201.5z" />
<glyph unicode="&#x430;" horiz-adv-x="961" d="M112 289q0 162 109.5 257t300.5 97h128v113q0 95 -42.5 135t-128.5 40q-78 0 -127 -46.5t-49 -118.5h-174q0 82 48 156t129.5 116t181.5 42q163 0 247.5 -81t86.5 -236v-535q1 -122 34 -212v-16h-181q-15 34 -22 116q-92 -136 -236 -136t-224.5 81t-80.5 228zM285 310 q0 -90 36.5 -131t122.5 -41q64 0 121.5 35.5t84.5 88.5v252h-98q-124 -1 -195.5 -54.5t-71.5 -149.5z" />
<glyph unicode="&#x431;" horiz-adv-x="972" d="M99 505v89q0 328 103 525.5t302 243.5q114 27 155 63t41 96h140l-1 -38q-12 -194 -186 -246l-120 -34q-129 -35 -198 -124t-90 -233q120 153 288 153t267 -133t99 -355v-15q0 -235 -110 -376t-290.5 -141t-290 142.5t-109.5 382.5zM273 497q0 -173 60 -271.5t166 -98.5 t166.5 99t60.5 293q0 153 -61 242.5t-167 89.5q-104 0 -164.5 -88.5t-60.5 -265.5z" />
<glyph unicode="&#x432;" horiz-adv-x="1010" d="M145 0v1060h356q182 0 278 -74.5t96 -216.5q0 -73 -38 -132t-112 -90q82 -22 131.5 -87.5t49.5 -158.5q0 -147 -92 -224t-259 -77h-410zM318 146h239q175 0 175 161q0 159 -177 159h-237v-320zM318 611h181q203 0 203 149t-191 153h-193v-302z" />
<glyph unicode="&#x433;" horiz-adv-x="744" d="M143 0v1060h569v-150h-394v-910h-175z" />
<glyph unicode="&#x434;" horiz-adv-x="1076" d="M56 -312l1 460h70l52 74q85 130 97 382l15 456h592v-912h123v-460h-173v312h-603v-312h-174zM320 148h390v745h-250l-9 -259q-14 -310 -131 -486z" />
<glyph unicode="&#x435;" horiz-adv-x="939" d="M97 445v128q0 237 103.5 372t288.5 135q186 0 278 -118.5t94 -369.5v-114h-591v-24q0 -171 64 -248.5t184 -77.5q77 0 135 29t109 92l91 -110q-113 -159 -344 -159q-198 0 -304 118.5t-108 346.5zM270 627h418v24q-7 151 -54.5 215.5t-144.5 64.5q-108 0 -160 -74 t-59 -230z" />
<glyph unicode="&#x436;" horiz-adv-x="1328" d="M36 0l305 553l-278 507h208l206 -439h99v439h173v-439h97l208 439h209l-279 -508l305 -552h-219l-220 461h-101v-461h-173v461h-101l-221 -461h-218z" />
<glyph unicode="&#x437;" horiz-adv-x="895" d="M89 314h172q0 -79 53 -134t132 -55q80 0 128.5 48t48.5 125q0 89 -39.5 128t-124.5 39h-159v152h170q138 5 138 153q0 75 -43 118.5t-118 43.5q-74 0 -123.5 -49t-49.5 -119h-171q0 139 98 227t246 88q158 0 245.5 -80.5t87.5 -227.5q0 -71 -36 -131t-103 -95 q156 -64 156 -247q0 -148 -96.5 -232.5t-254.5 -84.5q-156 0 -256.5 90t-100.5 243z" />
<glyph unicode="&#x438;" horiz-adv-x="1022" d="M145 0v1060h173v-774l385 774h172v-1060h-172v773l-385 -773h-173z" />
<glyph unicode="&#x439;" horiz-adv-x="1022" d="M145 0v1060h173v-774l385 774h172v-1060h-172v773l-385 -773h-173zM217 1446h148q0 -69 37.5 -107.5t108.5 -38.5q69 0 107.5 38.5t38.5 107.5h147q0 -118 -80.5 -190.5t-212 -72.5t-213 73t-81.5 190z" />
<glyph unicode="&#x43a;" horiz-adv-x="963" d="M146 0v1060h173v-448h87l289 448h207l-354 -504l379 -556h-217l-293 452h-98v-452h-173z" />
<glyph unicode="&#x43b;" horiz-adv-x="1023" d="M56 0v160l44 4q72 9 102 97t40 346l17 453h618v-1060h-173v910h-280l-16 -359q-14 -299 -80.5 -424t-213.5 -127h-58z" />
<glyph unicode="&#x43c;" horiz-adv-x="1296" d="M145 0v1060h223l282 -820l284 820h216v-1060h-173v731l-267 -731h-119l-273 749v-749h-173z" />
<glyph unicode="&#x43d;" horiz-adv-x="1021" d="M145 0v1060h174v-459h383v459h172v-1060h-172v453h-383v-453h-174z" />
<glyph unicode="&#x43e;" d="M93 464v115q0 231 112.5 366t296.5 135t296 -131.5t115 -357.5v-112q0 -230 -111.5 -364.5t-297.5 -134.5q-185 0 -296 130.5t-115 353.5zM267 479q0 -163 64 -257t173 -94q229 0 236 332v119q0 163 -64.5 257.5t-173.5 94.5q-107 0 -171 -94.5t-64 -256.5v-101z" />
<glyph unicode="&#x43f;" horiz-adv-x="1022" d="M145 0v1060h730v-1060h-172v910h-384v-910h-174z" />
<glyph unicode="&#x440;" horiz-adv-x="989" d="M130 -408v1468h157l9 -117q87 137 250 137q174 0 260.5 -121.5t89.5 -363.5v-116q0 -252 -91 -375.5t-256 -123.5q-160 0 -246 121v-509h-173zM303 250q64 -122 191 -122q118 0 173 85t56 259v106q0 179 -55 263.5t-176 84.5q-124 0 -189 -124v-552z" />
<glyph unicode="&#x441;" horiz-adv-x="927" d="M94 473v117q0 240 103 365t300 125q163 0 258.5 -103t101.5 -281h-164q-6 117 -56.5 176t-139.5 59q-116 0 -171.5 -76t-57.5 -249v-136q0 -187 55 -264.5t175 -77.5q86 0 138 53.5t57 152.5h164q-6 -153 -108.5 -253.5t-250.5 -100.5q-197 0 -300.5 124t-103.5 369z" />
<glyph unicode="&#x442;" horiz-adv-x="852" d="M53 913v147h747v-147h-289v-913h-173v913h-285z" />
<glyph unicode="&#x443;" horiz-adv-x="835" d="M34 1060h189l196 -772l193 772h185l-347 -1210q-39 -136 -110.5 -207t-163.5 -71q-35 0 -90 15v147l38 -4q76 0 118.5 36t69.5 124l34 119z" />
<glyph unicode="&#x444;" horiz-adv-x="1262" d="M98 511q0 264 86 416.5t238 152.5q63 0 114 -22v447h174v-452q54 27 128 27q153 0 239 -152t86 -438q0 -238 -86 -374.5t-237 -136.5q-75 0 -130 26v-413h-174v408q-54 -21 -115 -21q-151 0 -237 138t-86 394zM271 490q0 -180 49.5 -271.5t145.5 -91.5q40 0 70 11v781 q-35 12 -68 12q-97 0 -147 -106.5t-50 -334.5zM710 139q30 -12 77 -12q97 0 150.5 94.5t53.5 289.5q0 199 -54 309.5t-152 110.5q-42 0 -75 -15v-777z" />
<glyph unicode="&#x445;" horiz-adv-x="881" d="M51 0l295 536l-287 524h199l178 -387l181 387h201l-288 -524l295 -536h-199l-187 397l-188 -397h-200z" />
<glyph unicode="&#x446;" horiz-adv-x="1052" d="M145 0v1060h174v-912h384v912h172v-912h112l-18 -463h-154v315h-670z" />
<glyph unicode="&#x447;" horiz-adv-x="962" d="M102 740v321h173v-326q6 -233 173 -233q98 0 195 29v529h174v-1060h-174v380q-95 -27 -195 -27q-163 0 -253 100.5t-93 286.5z" />
<glyph unicode="&#x448;" horiz-adv-x="1412" d="M145 0v1060h174v-912h299v912h173v-912h300v912h173v-1060h-1119z" />
<glyph unicode="&#x449;" horiz-adv-x="1449" d="M134 0v1060h175v-912h299v912h172v-912h300v912h173v-912h133l-18 -463h-154v315h-1080z" />
<glyph unicode="&#x44a;" horiz-adv-x="1079" d="M43 911v149h429v-365h219q152 -1 242 -93t90 -251t-91 -254.5t-241 -96.5h-391v911h-257zM472 148h216q77 0 119 52.5t42 143.5q0 88 -41 144.5t-114 58.5h-222v-399z" />
<glyph unicode="&#x44b;" horiz-adv-x="1364" d="M145 0v1060h173v-365h218q152 -1 242 -93t90 -251t-91 -254.5t-241 -96.5h-391zM318 148h215q77 0 119.5 52t42.5 144q0 90 -42 146t-116 57h-219v-399zM1018 0v1060h174v-1060h-174z" />
<glyph unicode="&#x44c;" horiz-adv-x="959" d="M145 0v1060h173v-365h218q152 -1 242 -93t90 -251t-91 -254.5t-241 -96.5h-391zM318 148h215q77 0 119.5 52t42.5 144q0 90 -42 146t-116 57h-219v-399z" />
<glyph unicode="&#x44d;" horiz-adv-x="947" d="M98 364h165q0 -102 54 -169.5t131 -67.5q92 0 150.5 90t67.5 249h-308v148h306q-11 147 -67.5 232t-147.5 85q-77 0 -131.5 -61.5t-54.5 -146.5h-165q0 91 48.5 174.5t131 133t171.5 49.5q174 0 282.5 -147.5t108.5 -393.5v-29q0 -149 -49 -271.5t-138 -190.5t-205 -68 q-150 0 -250 109t-100 275z" />
<glyph unicode="&#x44e;" horiz-adv-x="1417" d="M145 0v1060h173v-449h197q19 215 129.5 342t275.5 127q177 0 288.5 -138.5t121.5 -363.5l1 -60q0 -238 -113 -388t-296 -150q-174 0 -284 134t-124 348h-196v-462h-173zM686 518q0 -177 63.5 -283.5t172.5 -106.5q107 0 170.5 106t63.5 306q0 179 -64.5 285t-171.5 106 q-106 0 -170 -106t-64 -307z" />
<glyph unicode="&#x44f;" horiz-adv-x="968" d="M44 0l229 443q-86 37 -131 114.5t-45 179.5q0 146 94 234.5t253 88.5h378v-1060h-173v413h-205l-214 -413h-186zM270 735q0 -78 42.5 -125.5t113.5 -47.5h223v351h-207q-77 0 -124.5 -49.5t-47.5 -128.5z" />
<glyph unicode="&#x450;" horiz-adv-x="939" d="M97 445v128q0 237 103.5 372t288.5 135q186 0 278 -118.5t94 -369.5v-114h-591v-24q0 -171 64 -248.5t184 -77.5q77 0 135 29t109 92l91 -110q-113 -159 -344 -159q-198 0 -304 118.5t-108 346.5zM179 1503h218l191 -288h-156zM270 627h418v24q-7 151 -54.5 215.5 t-144.5 64.5q-108 0 -160 -74t-59 -230z" />
<glyph unicode="&#x451;" horiz-adv-x="939" d="M97 445v128q0 237 103.5 372t288.5 135q186 0 278 -118.5t94 -369.5v-114h-591v-24q0 -171 64 -248.5t184 -77.5q77 0 135 29t109 92l91 -110q-113 -159 -344 -159q-198 0 -304 118.5t-108 346.5zM170 1344q0 44 27 73.5t80 29.5t80.5 -29.5t27.5 -74t-27.5 -73.5 t-80.5 -29t-80 29t-27 74zM270 627h418v24q-7 151 -54.5 215.5t-144.5 64.5q-108 0 -160 -74t-59 -230zM591 1342q0 44 27 74t80 30t80.5 -30t27.5 -74t-27.5 -73.5t-80.5 -29.5t-80 29.5t-27 73.5z" />
<glyph unicode="&#x452;" horiz-adv-x="969" d="M0 1185v149h129v171h174v-171h228v-149h-228v-233q99 128 253 128q281 0 285 -375v-792q0 -167 -71 -254t-200 -87q-48 0 -92 17l13 144q14 -6 65 -11l14 -1q46 0 72 51t26 141v784q0 124 -41.5 176.5t-124.5 52.5q-65 0 -116.5 -43t-82.5 -113v-770h-174v1185h-129z" />
<glyph unicode="&#x453;" horiz-adv-x="744" d="M143 0v1060h569v-150h-394v-910h-175zM275 1195l189 288h219l-262 -288h-146z" />
<glyph unicode="&#x454;" horiz-adv-x="947" d="M103 520v31q0 243 108.5 386t294.5 143q156 0 254 -108t104 -276h-163q-6 103 -60 169t-135 66q-102 0 -162 -84.5t-68 -242.5h306v-149h-306q8 -163 67 -245t162 -82q76 0 133 59t63 147h163q-4 -92 -53 -174t-132 -131t-174 -49q-187 0 -294.5 144t-107.5 396z" />
<glyph unicode="&#x455;" horiz-adv-x="914" d="M97 317h174q3 -89 54 -139t143 -50q87 0 132 39t45 104q0 56 -42 96.5t-163 94.5q-140 57 -197.5 98.5t-86 94t-28.5 124.5q0 129 95 215t242 86q154 0 248.5 -90t94.5 -231h-173q0 71 -48 121.5t-122 50.5q-77 0 -120.5 -39.5t-43.5 -106.5q0 -53 32 -85.5t153 -85.5 q193 -75 262.5 -147t69.5 -183q0 -138 -95 -221t-255 -83q-165 0 -268 95.5t-103 241.5z" />
<glyph unicode="&#x456;" horiz-adv-x="459" d="M133 1342q0 44 24.5 74t73.5 30t74 -30.5t25 -73.5q0 -44 -24.5 -73.5t-74.5 -29.5q-49 0 -73.5 29.5t-24.5 73.5zM143 0v1060h174v-1060h-174z" />
<glyph unicode="&#x457;" horiz-adv-x="471" d="M-79 1343q0 44 27 73.5t80 29.5t80.5 -29.5t27.5 -74t-27.5 -73.5t-80.5 -29t-80 29t-27 74zM143 0v1060h174v-1060h-174zM342 1341q0 44 27 74t80 30t80.5 -30t27.5 -74t-27.5 -73.5t-80.5 -29.5t-80 29.5t-27 73.5z" />
<glyph unicode="&#x458;" horiz-adv-x="448" d="M-23 -266q27 -7 68 -7q44 0 66 32.5t22 114.5v1186h174v-1193q-3 -295 -233 -295q-53 0 -96 17zM119 1342q0 44 24 74t73 30t74 -30.5t25 -73.5q0 -44 -24.5 -73.5t-74.5 -29.5q-49 0 -73 29.5t-24 73.5z" />
<glyph unicode="&#x459;" horiz-adv-x="1465" d="M53 0v160l33 3q75 5 107 81.5t43 285.5l20 530h586v-403h220q165 -2 255 -104q76 -87 76 -222q0 -148 -90 -239t-244 -92h-391v910h-248l-18 -403q-17 -276 -83.5 -391t-210.5 -116h-55zM842 146h215q76 0 119 51t43 136q0 82 -43 128.5t-118 46.5h-216v-362z" />
<glyph unicode="&#x45a;" horiz-adv-x="1491" d="M145 0v1060h174v-400h383v400h172v-404h222q151 -2 240 -89t89 -236q0 -147 -88.5 -238t-240.5 -93h-394v512h-383v-512h-174zM874 146h216q75 0 118 51t43 136q0 82 -43 128.5t-117 46.5h-217v-362z" />
<glyph unicode="&#x45b;" horiz-adv-x="1001" d="M22 1190v148h107v167h174v-167h250v-148h-250v-238q99 128 253 128q281 0 285 -375v-705h-173v697q0 124 -41.5 176.5t-124.5 52.5q-65 0 -116.5 -43t-82.5 -113v-770h-174v1190h-107z" />
<glyph unicode="&#x45c;" horiz-adv-x="963" d="M146 0v1060h173v-448h87l289 448h207l-354 -504l379 -556h-217l-293 452h-98v-452h-173zM365 1194l189 288h219l-262 -288h-146z" />
<glyph unicode="&#x45d;" horiz-adv-x="1022" d="M145 0v1060h173v-774l385 774h172v-1060h-172v773l-385 -773h-173zM206 1483h218l191 -288h-156z" />
<glyph unicode="&#x45e;" horiz-adv-x="835" d="M34 1060h189l196 -772l193 772h185l-347 -1210q-39 -136 -110.5 -207t-163.5 -71q-35 0 -90 15v147l38 -4q76 0 118.5 36t69.5 124l34 119zM143 1466h148q0 -69 37.5 -107.5t108.5 -38.5q69 0 107.5 38.5t38.5 107.5h147q0 -118 -80.5 -190.5t-212 -72.5t-213 73 t-81.5 190z" />
<glyph unicode="&#x45f;" horiz-adv-x="1022" d="M145 0v1060h174v-912h384v912h172v-1060h-276v-349h-173v349h-281z" />
<glyph unicode="&#x460;" horiz-adv-x="1515" d="M143 390v1037h181v-1038q0 -129 45 -192.5t112 -63.5q88 0 138 68.5t50 187.5v1038h188v-1038q0 -119 46 -187.5t127 -68.5q80 0 126 68.5t46 187.5v1038h180v-1041q-1 -190 -94 -298t-258 -108q-187 0 -269 163q-87 -163 -280 -163q-158 0 -248 108.5t-90 301.5z" />
<glyph unicode="&#x461;" horiz-adv-x="1305" d="M117 342v718h173v-714q0 -111 34.5 -165t89.5 -54q74 0 115.5 59.5t41.5 159.5v714h174v-714q0 -111 39.5 -165t101.5 -54q66 0 102.5 58t37.5 157v718h173v-722q-2 -169 -86 -264t-227 -95q-156 0 -229 136q-78 -136 -243 -136q-138 0 -217 95.5t-80 267.5z" />
<glyph unicode="&#x462;" horiz-adv-x="1106" d="M-29 1082v148h178v197h179v-197h174v-148h-174v-237h288q192 -1 301 -112.5t109 -306.5q0 -196 -110 -311t-305 -115h-462v1082h-178zM328 154h286q110 0 171 75.5t61 198.5q0 122 -60.5 192t-170.5 70h-287v-536z" />
<glyph unicode="&#x463;" horiz-adv-x="957" d="M-12 1060v148h155v319h174v-319h263v-148h-263v-329h213q157 0 247 -97.5t90 -264.5q0 -164 -88.5 -265t-239.5 -104h-396v1060h-155zM317 148h214q78 0 120 57.5t42 157.5q0 97 -42 157.5t-116 61.5h-218v-434z" />
<glyph unicode="&#x464;" horiz-adv-x="1551" d="M162 0v1427h180v-612h145q5 189 66.5 334t171.5 221.5t254 76.5q193 0 308.5 -125t134.5 -353h-179q-24 180 -86.5 252t-177.5 72q-143 0 -223.5 -122.5t-87.5 -355.5h449v-148h-449v-25q0 -238 76.5 -372.5t217.5 -134.5q88 0 143 31t87 94.5t51 193.5h179 q-23 -230 -141.5 -351.5t-318.5 -121.5q-204 0 -334 168t-140 449l-1 69h-145v-667h-180z" />
<glyph unicode="&#x465;" horiz-adv-x="1298" d="M141 0v1060h175v-457h139q13 221 119 349t282 128q154 0 253.5 -107.5t105.5 -276.5h-163q-6 103 -60 169t-136 66q-104 0 -162.5 -85.5t-66.5 -242.5h350v-148h-350q8 -163 67 -245t162 -82q76 0 133 59t63 147h163q-4 -92 -54.5 -175t-132 -131t-172.5 -48 q-118 0 -205 57.5t-137 165t-59 252.5h-139v-455h-175z" />
<glyph unicode="&#x466;" horiz-adv-x="1056" d="M54 0l429 1427h157l420 -1427h-184l-121 429h-114v-429h-175v429h-105l-124 -429h-183zM407 590h303l-150 532z" />
<glyph unicode="&#x467;" horiz-adv-x="943" d="M28 0l361 1060h148l364 -1060h-177l-96 291h-76v-291h-173v291h-80l-94 -291h-177zM347 440h232l-102 309l-15 65l-15 -65z" />
<glyph unicode="&#x468;" horiz-adv-x="1524" d="M176 0v1427h182v-838h308l252 838h157l420 -1427h-183l-121 429h-115v-429h-175v429h-105l-124 -429h-183l129 431h-260v-431h-182zM842 590h304l-150 534z" />
<glyph unicode="&#x469;" horiz-adv-x="1314" d="M171 0v1060h173v-620h202l212 620h148l363 -1060h-177l-96 291h-76v-291h-173v291h-81l-94 -291h-175l98 290h-151v-290h-173zM715 440h232l-102 309l-15 64l-15 -64z" />
<glyph unicode="&#x46a;" horiz-adv-x="1499" d="M137 0v376q3 209 101 312.5t302 105.5h35l-323 633h1011l-323 -633q153 0 242 -45.5t134.5 -140t46.5 -238.5v-370h-180v370q-1 141 -50 203.5t-167 65.5h-105l-17 -34v-605h-181v621l-8 18h-107q-127 0 -178.5 -62.5t-52.5 -202.5v-374h-180zM532 1272l226 -464l225 464 h-451z" />
<glyph unicode="&#x46b;" horiz-adv-x="1296" d="M140 0v168q1 208 87.5 312.5t260.5 110.5l-234 469h800l-235 -469q171 -11 252 -114.5t84 -300.5v-176h-173v176q-2 142 -45.5 204t-147.5 63h-44l-8 -17v-426h-173v438l-2 5h-49q-108 0 -152 -61.5t-47 -199.5v-182h-174zM515 911l139 -299l138 299h-277z" />
<glyph unicode="&#x46c;" horiz-adv-x="1968" d="M161 0v1427h181v-631h701l-323 631h1013l-324 -633q153 0 242 -45.5t135 -140t47 -238.5v-370h-181v370q-1 141 -50 203.5t-167 65.5h-104l-19 -36v-603h-179v619l-10 20h-106q-126 0 -177.5 -62.5t-53.5 -202.5v-374h-180v364q0 180 67 283h-331v-647h-181zM1002 1272 l225 -464l225 464h-450z" />
<glyph unicode="&#x46d;" horiz-adv-x="1718" d="M143 0v1060h174v-468h592l-233 468h800l-234 -469q171 -11 252.5 -114.5t84.5 -300.5v-176h-175v176q-2 142 -45.5 204t-147.5 63h-43l-9 -19v-424h-172v438l-3 5h-59q-100 -2 -143 -63t-45 -204v-176h-174v169q1 174 60 274h-306v-443h-174zM938 911l138 -299l138 299 h-276z" />
<glyph unicode="&#x46e;" horiz-adv-x="912" d="M74 -120q0 119 73 184t232 65t209 145q19 54 19 120q0 260 -247 264h-127v149h113q243 0 243 238q0 107 -58.5 169t-156.5 64h-252v149h241q182 0 290 -106t108 -280q0 -101 -53 -181.5t-148 -124.5q220 -83 220 -337q0 -191 -106 -304t-287 -113h-37q-112 -2 -112 -109 q0 -111 130 -183l-70 -122q-106 52 -165 134t-59 179zM196 1878v9h145l117 -166l117 166h148v-9l-214 -269h-102z" />
<glyph unicode="&#x46f;" horiz-adv-x="850" d="M76 -120q0 119 73 184t217 65h31q84 0 133 45.5t49 119.5q0 159 -213 162h-129v149h117q208 0 208 156q0 65 -49 106.5t-136 42.5h-255v150h246q168 0 267 -83.5t99 -218.5q0 -72 -42.5 -130.5t-119.5 -93.5q180 -65 180 -236q0 -145 -97.5 -231t-263.5 -86h-40 q-110 -3 -110 -109q0 -111 129 -183l-71 -122q-102 50 -162.5 132.5t-60.5 180.5zM142 1543v9h144l118 -166l117 166h148v-9l-214 -269h-103z" />
<glyph unicode="&#x470;" horiz-adv-x="1204" d="M83 910v517h180v-516q0 -159 62 -262.5t172 -132.5v911h180v-913q117 27 182.5 130t66.5 263v520h180v-519q0 -152 -53 -273t-150.5 -192.5t-225.5 -86.5v-356h-180v356q-193 27 -303.5 175t-110.5 379z" />
<glyph unicode="&#x471;" horiz-adv-x="1229" d="M89 583v477h175v-473q0 -392 252 -451v924h173v-925q131 27 207.5 140t76.5 281q-5 226 -100 504h180q94 -227 94 -504q0 -253 -118.5 -401t-339.5 -171v-447h-173v449q-211 28 -319 179t-108 418z" />
<glyph unicode="&#x472;" horiz-adv-x="1190" d="M100 659v99q0 203 60 360t171 242.5t256 85.5t256 -82.5t171 -237.5t61 -361v-98q0 -209 -60.5 -366.5t-170.5 -239t-255 -81.5q-143 0 -253.5 82.5t-172.5 238t-63 358.5zM278 630q6 -226 88.5 -358t222.5 -132q142 0 221.5 125.5t85.5 364.5h-618zM278 778h619 q-4 244 -85 375.5t-225 131.5q-143 0 -225 -137t-84 -370z" />
<glyph unicode="&#x473;" horiz-adv-x="998" d="M95 526v14q0 240 112.5 390t294.5 150q176 0 288 -138.5t121 -363.5l1 -60q0 -238 -112.5 -388t-296 -150t-296 148.5t-112.5 397.5zM270 461q10 -157 73.5 -245t160.5 -88t159 88.5t73 244.5h-466zM270 610h465q-14 150 -75.5 235.5t-157.5 85.5t-157.5 -86.5 t-74.5 -234.5z" />
<glyph unicode="&#x474;" horiz-adv-x="1110" d="M35 1427h195l277 -1060l28 -121l222 893q41 164 96.5 235.5t150.5 71.5l45 -1l-1 -168h-15q-37 -1 -59 -31.5t-42 -109.5l-320 -1136h-155z" />
<glyph unicode="&#x475;" horiz-adv-x="889" d="M58 1060h176l189 -750l15 -77l132 609q69 237 214 237q60 0 91 -24l-18 -145q-11 8 -30 8q-25 0 -48.5 -23.5t-33.5 -67.5l-243 -827h-131z" />
<glyph unicode="&#x476;" horiz-adv-x="1110" d="M35 1427h195l277 -1060l28 -121l222 893q41 164 96.5 235.5t150.5 71.5l45 -1l-1 -168h-15q-37 -1 -59 -31.5t-42 -109.5l-320 -1136h-155zM95 1733h208l200 -261h-155zM385 1733h190l148 -261h-136z" />
<glyph unicode="&#x477;" horiz-adv-x="889" d="M11 1444h208l200 -261h-155zM58 1060h176l189 -750l15 -77l132 609q69 237 214 237q60 0 91 -24l-18 -145q-11 8 -30 8q-25 0 -48.5 -23.5t-33.5 -67.5l-243 -827h-131zM301 1444h190l148 -261h-136z" />
<glyph unicode="&#x478;" horiz-adv-x="2041" d="M122 567v269q0 286 126.5 448t353.5 162q225 0 351 -155t129 -443v-260q0 -292 -124.5 -450t-353.5 -158q-221 0 -349 153.5t-133 433.5zM301 588q0 -219 76 -333.5t227 -114.5t223.5 106t75.5 324v268q0 226 -74 336.5t-227 110.5q-148 0 -224 -112t-77 -329v-256z M1239 1060h189l196 -772l193 772h185l-347 -1210q-39 -136 -110.5 -207t-163.5 -71q-35 0 -90 15v147l38 -4q76 0 118.5 36t69.5 124l34 119z" />
<glyph unicode="&#x479;" horiz-adv-x="1843" d="M93 464v115q0 231 112.5 366t296.5 135t296 -131.5t115 -357.5v-112q0 -230 -111.5 -364.5t-297.5 -134.5q-185 0 -296 130.5t-115 353.5zM267 479q0 -163 64 -257t173 -94q229 0 236 332v119q0 163 -64.5 257.5t-173.5 94.5q-107 0 -171 -94.5t-64 -256.5v-101z M1041 1060h189l196 -772l193 772h185l-347 -1210q-39 -136 -110.5 -207t-163.5 -71q-35 0 -90 15v147l38 -4q76 0 118.5 36t69.5 124l34 119z" />
<glyph unicode="&#x47a;" horiz-adv-x="1190" d="M100 648v110q0 284 110.5 465.5t298.5 216.5v116h173v-119q184 -41 288.5 -221t104.5 -460v-89q0 -279 -104 -459t-289 -218v-128h-173v126q-187 35 -296 212t-113 448zM278 667q0 -211 62 -345t169 -169v96h173v-93q104 39 159.5 168.5t55.5 342.5v93q0 211 -56 339.5 t-159 168.5v-90h-173v94q-106 -34 -168.5 -165t-62.5 -347v-93z" />
<glyph unicode="&#x47b;" horiz-adv-x="1000" d="M95 522v18q0 210 87 352.5t233 176.5v112h172v-111q149 -34 237 -177t88 -359v-16q0 -205 -87.5 -350.5t-237.5 -178.5v-106h-172v107q-147 34 -233.5 177.5t-86.5 354.5zM268 518q0 -136 39 -232.5t108 -134.5v92h172v-95q73 37 112 135.5t39 256.5q0 134 -39.5 234 t-111.5 136v-89h-172v87q-68 -37 -107.5 -133.5t-39.5 -256.5z" />
<glyph unicode="&#x47c;" horiz-adv-x="1510" d="M143 414v568q0 208 90 326t248 118v-155q-67 0 -112 -71.5t-45 -217.5v-560q0 -147 45 -218t112 -71q88 0 138 68.5t50 187.5v419h182v-419q0 -119 49.5 -187.5t139.5 -68.5q67 0 111.5 71t44.5 218v560q0 146 -44.5 217.5t-111.5 71.5v155q157 0 246 -117.5t90 -322.5 v-564q0 -205 -89 -324t-247 -119q-91 0 -163.5 40t-116.5 120q-45 -80 -117 -120t-162 -40q-156 0 -246 116t-92 319zM493 1587v39q1 107 53 158.5t142 51.5q32 0 61.5 -8.5t108 -48t124.5 -53.5t141 -14v-124h-40q-68 0 -123.5 17.5t-134 56.5t-97 44t-36.5 5 q-82 0 -82 -113v-11h-117zM660 1351q55 80 56 143v98h145v-104q-2 -51 -41.5 -107t-88.5 -84z" />
<glyph unicode="&#x47d;" horiz-adv-x="1313" d="M119 372v294q0 192 79 298t218 106v-149q-55 0 -90 -62.5t-35 -192.5v-284q0 -129 35 -192t90 -63q72 0 113.5 57t42.5 158v234h174v-235q1 -97 42.5 -155.5t115.5 -58.5q53 0 88 63t35 192v284q0 130 -35 192.5t-88 62.5v149q137 0 216.5 -105.5t79.5 -294.5v-288 q0 -192 -79.5 -297.5t-216.5 -105.5q-168 0 -245 137q-78 -137 -243 -137q-136 0 -215.5 103t-81.5 290zM419 1242v29q0 220 196 220q33 0 61 -8t108 -48t125.5 -54t140.5 -14v-124h-41q-72 0 -132 20t-183 82q-41 20 -76 20t-58.5 -25.5t-23.5 -97.5h-117zM589 997 q54 76 56 139v101h146v-104q-2 -51 -41.5 -107t-88.5 -84z" />
<glyph unicode="&#x47e;" horiz-adv-x="1515" d="M143 390v1037h181v-1038q0 -129 45 -192.5t112 -63.5q88 0 138 68.5t50 187.5v1038h188v-1038q0 -119 46 -187.5t127 -68.5q80 0 126 68.5t46 187.5v1038h180v-1041q-1 -190 -94 -298t-258 -108q-187 0 -269 163q-87 -163 -280 -163q-158 0 -248 108.5t-90 301.5z M424 1654v105h686v-105h-271v-122h-157v122h-258z" />
<glyph unicode="&#x47f;" horiz-adv-x="1305" d="M117 342v718h173v-714q0 -111 34.5 -165t89.5 -54q74 0 115.5 59.5t41.5 159.5v714h174v-714q0 -111 39.5 -165t101.5 -54q66 0 102.5 58t37.5 157v718h173v-722q-2 -169 -86 -264t-227 -95q-156 0 -229 136q-78 -136 -243 -136q-138 0 -217 95.5t-80 267.5zM320 1322 v105h686l3 -105h-274v-125h-157v125h-258z" />
<glyph unicode="&#x480;" horiz-adv-x="1144" d="M112 588v248q0 174 59 315t164.5 218.5t236.5 77.5q208 0 329 -129t121 -349h-180q2 154 -69.5 239t-200.5 85q-124 0 -202 -128t-78 -335v-239q0 -201 77.5 -329t203.5 -129h106v-505h-178v358q-175 32 -281.5 197.5t-107.5 404.5z" />
<glyph unicode="&#x481;" horiz-adv-x="947" d="M98 516v35q0 151 49.5 273t138.5 189t205 67q150 0 249.5 -109t99.5 -276h-163q0 100 -54.5 168t-131.5 68q-101 0 -160.5 -105.5t-59.5 -286.5v-29q0 -168 58 -274.5t157 -108.5h97v-501h-173v363q-143 34 -227.5 175.5t-84.5 351.5z" />
<glyph unicode="&#x482;" horiz-adv-x="1099" d="M109 558l61 120l241 -167l163 357l-238 168l62 122l240 -167l150 324h146l-187 -400l241 -167l-64 -120l-237 167l-167 -358l239 -168l-61 -121l-239 167l-149 -315h-148l185 390z" />
<glyph unicode="&#x483;" horiz-adv-x="39" d="M-758 1167l1 229h453l-1 105l154 -1v-211h-453v-123z" />
<glyph unicode="&#x484;" horiz-adv-x="39" d="M-735 1278v123q93 0 136.5 13t126 54t111.5 49.5t60 8.5q92 0 144.5 -52.5t52.5 -161.5v-35h-117v11q0 112 -83 112q-34 0 -73 -19.5t-84.5 -41.5t-101.5 -41t-123 -20h-49z" />
<glyph unicode="&#x485;" horiz-adv-x="39" d="M-533 1470v121h161v-138l47 -113l-70 -64z" />
<glyph unicode="&#x486;" horiz-adv-x="39" d="M-478 1340l47 113l-1 138h162v-121l-139 -194z" />
<glyph unicode="&#x488;" horiz-adv-x="0" d="M-1479 477q0 84 57.5 134.5t148.5 50.5q93 0 150 -51t57 -134h-110q0 48 -26 73.5t-71 25.5t-70 -27t-25 -72h-111zM-1316 -31q0 83 57.5 133.5t148.5 50.5q93 0 150 -50.5t57 -133.5h-110q0 48 -26 73.5t-71 25.5q-44 0 -69 -26t-25 -73h-112zM-1306 970 q0 83 56.5 133.5t150 50.5t150 -50.5t56.5 -133.5h-110q0 45 -25 72t-72 27q-45 0 -70 -26t-25 -73h-111zM-745 1242q0 82 56.5 133t149.5 51t150 -51t57 -133h-110q0 45 -25 72t-72 27q-45 0 -70 -26t-25 -73h-111zM-740 -310q0 83 56.5 134t149.5 51t150 -51t57 -134h-110 q0 45 -25 72t-72 27q-45 0 -70 -27t-25 -72h-111zM-175 -31q0 82 56.5 133t147.5 51q93 0 150 -51t57 -133h-110q0 48 -26 73.5t-71 25.5q-44 0 -69 -27t-25 -72h-110zM-166 970q0 83 57 133.5t148 50.5q93 0 150.5 -50t57.5 -134h-111q0 48 -26 73.5t-71 25.5 q-43 0 -68 -26t-25 -73h-112zM17 477q0 84 57 134.5t148 50.5q94 0 150.5 -51t56.5 -134h-110q0 48 -25.5 73.5t-71 25.5t-70.5 -27t-25 -72h-110z" />
<glyph unicode="&#x489;" horiz-adv-x="0" d="M-1462 534v96l339 -69v-137l-13 -11zM-1271 -78l288 196l95 -97l-2 -17l-313 -150zM-1187 1164l64 68l194 -293l-96 -96l-17 2zM-659 -405l69 346h134l11 -14l-119 -332h-95zM-659 1117l120 331h94l-69 -345h-133zM-218 982l2 16l314 150l67 -67l-287 -196zM-177 61 l95 97l16 -2l145 -319l-64 -69zM17 482v136l12 12l327 -121v-96z" />
<glyph unicode="&#x48a;" horiz-adv-x="1242" d="M162 0v1427h180v-1100l556 1100h179v-1427h-179v1100l-556 -1100h-180zM329 1782h148q0 -69 37.5 -107.5t108.5 -38.5q69 0 107.5 38.5t38.5 107.5h147q0 -118 -80.5 -190.5t-212 -72.5t-213 73t-81.5 190zM979 -280q93 129 96 265v164h178v-142q0 -99 -48.5 -198 t-122.5 -159z" />
<glyph unicode="&#x48b;" horiz-adv-x="1022" d="M145 0v1060h173v-774l385 774h172v-1060h-172v773l-385 -773h-173zM217 1446h148q0 -69 37.5 -107.5t108.5 -38.5q69 0 107.5 38.5t38.5 107.5h147q0 -118 -80.5 -190.5t-212 -72.5t-213 73t-81.5 190zM778 -280q93 129 96 265v164h178v-142q0 -99 -48.5 -198 t-122.5 -159z" />
<glyph unicode="&#x48c;" horiz-adv-x="1106" d="M-29 1082v148h178v197h179v-197h174v-148h-174v-237h288q192 -1 301 -112.5t109 -306.5q0 -196 -110 -311t-305 -115h-462v1082h-178zM328 154h286q110 0 171 75.5t61 198.5q0 122 -60.5 192t-170.5 70h-287v-536z" />
<glyph unicode="&#x48d;" horiz-adv-x="957" d="M-12 1278v149h155v189h174v-189h263v-149h-263v-547h213q157 0 247 -97.5t90 -264.5q0 -164 -88.5 -265t-239.5 -104h-396v1278h-155zM317 148h214q78 0 120 57.5t42 157.5q0 97 -42 157.5t-116 61.5h-218v-434z" />
<glyph unicode="&#x48e;" horiz-adv-x="1119" d="M154 0v1427h455q198 0 312.5 -118.5t114.5 -317.5q0 -179 -83 -287l110 -140l-100 -101l-117 149q-97 -53 -237 -53h-275v-559h-180zM334 712h275q78 0 133 31l-92 116l102 100l82 -104q22 57 22 134q0 130 -65.5 206t-178.5 77h-278v-560z" />
<glyph unicode="&#x48f;" horiz-adv-x="996" d="M130 -408v1468h157l8 -101q92 121 251 121q164 0 257 -145.5t93 -416.5q0 -233 -87 -379l97 -124l-100 -100l-93 117q-71 -52 -164 -52q-154 0 -246 106v-494h-173zM303 260q64 -132 191 -132q66 0 114 40l-87 111l101 101l68 -87q33 98 33 246q0 176 -60.5 281.5 t-170.5 105.5q-124 0 -189 -135v-531z" />
<glyph unicode="&#x490;" horiz-adv-x="963" d="M148 0v1427h571v329h173v-478h-3v-6h-562v-1272h-179z" />
<glyph unicode="&#x491;" horiz-adv-x="794" d="M134 0v1060h401v310h173v-460h-399v-910h-175z" />
<glyph unicode="&#x492;" horiz-adv-x="979" d="M10 670v148h153v609h742v-155h-562v-454h198v-148h-198v-670h-180v670h-153z" />
<glyph unicode="&#x493;" horiz-adv-x="744" d="M16 469v148h127v443h569v-150h-394v-293h229v-148h-229v-469h-175v469h-127z" />
<glyph unicode="&#x494;" horiz-adv-x="1081" d="M163 0v1427h742v-155h-562v-456h138q237 0 368 -148t131 -417q0 -256 -102.5 -395t-291.5 -139l-2 144q112 0 167.5 92t55.5 298q-1 196 -77 300.5t-241 106.5h-146v-658h-180z" />
<glyph unicode="&#x495;" horiz-adv-x="889" d="M134 0v1060h570v-150h-395v-278h78q198 0 312.5 -127t114.5 -338q-2 -99 -42 -194.5t-110.5 -162.5t-167.5 -87l-44 143q192 62 192 301q-2 142 -68 224t-182 82h-83v-473h-175z" />
<glyph unicode="&#x496;" horiz-adv-x="1587" d="M43 0l395 758l-364 669h212l296 -619h132v619h181v-619h125l296 619h211l-363 -668l394 -759h-222l-317 651h-124v-651h-181v651h-132l-315 -651h-224zM1458 150h174v-502h-174v502z" />
<glyph unicode="&#x497;" horiz-adv-x="1328" d="M36 0l305 553l-278 507h208l206 -439h99v439h173v-439h97l208 439h209l-279 -508l305 -552h-219l-220 461h-101v-461h-173v461h-101l-221 -461h-218zM1171 150h174v-502h-174v502z" />
<glyph unicode="&#x498;" horiz-adv-x="1038" d="M82 396h180q0 -112 69 -187.5t177 -75.5q120 0 192 71t72 190q0 249 -238 256h-147v155h134q114 0 173.5 61.5t59.5 177.5q0 114 -65.5 181t-180.5 67q-98 0 -163.5 -69t-65.5 -171h-179q0 175 116.5 284.5t291.5 109.5q202 0 314 -107.5t112 -297.5q0 -99 -52 -180.5 t-143 -128.5q213 -85 213 -334q0 -194 -122 -306t-322 -112q-87 0 -166.5 28t-139.5 85q-120 113 -120 303zM430 79h174v-502h-174v502z" />
<glyph unicode="&#x499;" horiz-adv-x="895" d="M89 314h172q0 -79 53 -134t132 -55q80 0 128.5 48t48.5 125q0 89 -39.5 128t-124.5 39h-159v152h170q138 5 138 153q0 75 -43 118.5t-118 43.5q-74 0 -123.5 -49t-49.5 -119h-171q0 139 98 227t246 88q158 0 245.5 -80.5t87.5 -227.5q0 -71 -36 -131t-103 -95 q156 -64 156 -247q0 -148 -96.5 -232.5t-254.5 -84.5q-156 0 -256.5 90t-100.5 243zM362 80h174v-502h-174v502z" />
<glyph unicode="&#x49a;" horiz-adv-x="1125" d="M163 0v1427h179v-629h110l402 629h223l-453 -690l486 -737h-219l-414 641h-135v-641h-179zM973 149h174v-502h-174v502z" />
<glyph unicode="&#x49b;" horiz-adv-x="963" d="M146 0v1060h173v-448h87l289 448h207l-354 -504l379 -556h-217l-293 452h-98v-452h-173zM818 150h174v-502h-174v502z" />
<glyph unicode="&#x49c;" horiz-adv-x="1110" d="M149 0v1427h180v-628h73v251h137v-251h57l248 628h210l-326 -671l358 -756h-226l-261 641h-60v-239h-137v239h-73v-641h-180z" />
<glyph unicode="&#x49d;" horiz-adv-x="999" d="M144 0v1060h174v-448h71v208h137v-208h24l204 448h206l-280 -498l307 -562h-218l-213 452h-30v-190h-137v190h-71v-452h-174z" />
<glyph unicode="&#x49e;" horiz-adv-x="1144" d="M14 1057v148h168v222h180v-222h183v-148h-183v-259h109l402 629h224l-453 -690l486 -737h-220l-413 641h-135v-641h-180v1057h-168z" />
<glyph unicode="&#x49f;" horiz-adv-x="929" d="M-51 1193v148h206v164h174v-164h151v-148h-151v-552h104l231 419h203l-298 -483l344 -577h-203l-277 491h-104v-491h-174v1193h-206z" />
<glyph unicode="&#x4a0;" horiz-adv-x="1425" d="M72 1278v149h567v-629h110l401 629h223l-453 -690l486 -737h-219l-414 641h-134v-641h-180v1278h-387z" />
<glyph unicode="&#x4a1;" horiz-adv-x="1219" d="M74 910v150h516v-448h86l289 448h208l-355 -505l381 -555h-218l-293 452h-98v-452h-174v910h-342z" />
<glyph unicode="&#x4a2;" horiz-adv-x="1244" d="M154 0v1427h179v-614h574v614h181v-1427h-181v660h-574v-660h-179zM1063 150h174v-502h-174v502z" />
<glyph unicode="&#x4a3;" horiz-adv-x="1021" d="M145 0v1060h174v-459h383v459h172v-1060h-172v453h-383v-453h-174zM851 150h174v-502h-174v502z" />
<glyph unicode="&#x4a4;" horiz-adv-x="1665" d="M154 0v1427h180v-614h573v614h678v-149h-497v-1278h-181v660h-573v-660h-180z" />
<glyph unicode="&#x4a5;" horiz-adv-x="1233" d="M134 0v1060h175v-459h382v459h461v-150h-289v-910h-172v453h-382v-453h-175z" />
<glyph unicode="&#x4a6;" horiz-adv-x="1767" d="M164 0v1427h918v-611h83q237 0 368 -148t131 -417q0 -256 -102.5 -395t-291.5 -139l-2 144q112 0 167.5 92t55.5 298q-1 196 -77 300.5t-241 106.5h-91v-658h-180v1272h-559v-1272h-179z" />
<glyph unicode="&#x4a7;" horiz-adv-x="1516" d="M134 0v1060h730v-428h133q205 0 325 -127.5t120 -337.5q-2 -97 -43 -194t-111 -163.5t-167 -86.5l-44 143q195 64 190 301q-2 146 -73 226t-192 80h-138v-473h-172v910h-383v-910h-175z" />
<glyph unicode="&#x4a8;" horiz-adv-x="1287" d="M110 656v174q0 173 48.5 316t134.5 222t195 79v-161q-87 0 -141.5 -123t-55.5 -325v-176q0 -231 91 -377t239 -146q60 0 103 14q-210 198 -210 543v211q0 150 43.5 274t122.5 194t177 70q150 0 246.5 -151t96.5 -398v-232q0 -154 -46.5 -283.5t-129.5 -222.5 q84 -28 185 -28v-157q-178 0 -327 71q-120 -65 -261 -65q-145 0 -261.5 87.5t-182.5 243.5t-67 346zM693 683q0 -144 45 -257t133 -186q149 145 149 437v231q0 172 -44.5 274t-118.5 102q-72 0 -118 -103t-46 -276v-222z" />
<glyph unicode="&#x4a9;" horiz-adv-x="1061" d="M107 552v62q0 203 82 334.5t211 131.5v-155q-55 0 -87.5 -83.5t-32.5 -229.5v-54q0 -187 64 -306t170 -119q39 0 73 12q-161 159 -161 424v93q0 191 72.5 305t192.5 114q117 0 191.5 -121t74.5 -325v-96q0 -222 -105 -375q64 -22 148 -22v-154q-148 0 -268 56 q-97 -65 -218 -65q-116 0 -208.5 73t-145 205.5t-53.5 294.5zM600 559q0 -198 111 -310q74 115 74 295v101q0 128 -25 206q-26 76 -69 76q-42 0 -66 -68.5t-25 -185.5v-114z" />
<glyph unicode="&#x4aa;" horiz-adv-x="1137" d="M122 586v259q0 278 129.5 439.5t354.5 161.5q206 0 319.5 -123.5t123.5 -354.5h-182q-11 175 -73 249.5t-188 74.5q-146 0 -224.5 -114.5t-78.5 -334.5v-262q0 -216 73 -332t213 -116t202 69.5t76 250.5h182q-12 -230 -129 -351.5t-331 -121.5q-215 0 -341 163.5 t-126 442.5zM494 79h174v-502h-174v502z" />
<glyph unicode="&#x4ab;" horiz-adv-x="927" d="M94 473v117q0 240 103 365t300 125q163 0 258.5 -103t101.5 -281h-164q-6 117 -56.5 176t-139.5 59q-116 0 -171.5 -76t-57.5 -249v-136q0 -187 55 -264.5t175 -77.5q86 0 138 53.5t57 152.5h164q-6 -153 -108.5 -253.5t-250.5 -100.5q-197 0 -300.5 124t-103.5 369z M369 79h174v-502h-174v502z" />
<glyph unicode="&#x4ac;" horiz-adv-x="1044" d="M59 1272v155h929v-155h-376v-1272h-179v1272h-374zM584 150h174v-502h-174v502z" />
<glyph unicode="&#x4ad;" horiz-adv-x="852" d="M53 913v147h747v-147h-289v-913h-173v913h-285zM487 150h174v-502h-174v502z" />
<glyph unicode="&#x4ae;" horiz-adv-x="1052" d="M29 1427h204l292 -717l292 717h203l-406 -895v-532h-179v532z" />
<glyph unicode="&#x4af;" horiz-adv-x="891" d="M58 1060h176l221 -755l213 755h176l-306 -996v-472h-173v483z" />
<glyph unicode="&#x4b0;" horiz-adv-x="1052" d="M29 1427h204l292 -717l292 717h203l-349 -768h124v-148h-181v-511h-179v511h-171v148h113z" />
<glyph unicode="&#x4b1;" horiz-adv-x="891" d="M58 1060h176l221 -755l213 755h176l-283 -923h162v-148h-185v-397h-173v397h-173v148h153z" />
<glyph unicode="&#x4b2;" horiz-adv-x="1105" d="M67 0l381 719l-374 708h210l271 -547l268 547h211l-372 -708l380 -719h-213l-274 557l-276 -557h-212zM908 150h174v-502h-174v502z" />
<glyph unicode="&#x4b3;" horiz-adv-x="881" d="M51 0l295 536l-287 524h199l178 -387l181 387h201l-288 -524l295 -536h-199l-187 397l-188 -397h-200zM707 150h174v-502h-174v502z" />
<glyph unicode="&#x4b4;" horiz-adv-x="1568" d="M68 1278v148h301v1h181v-1h304v-148h-304v-1124h557v1273h182v-1269h127l-18 -502h-159v344h-870v1278h-301z" />
<glyph unicode="&#x4b5;" horiz-adv-x="1178" d="M46 912v148h583v-148h-193v-764h383v912h174v-912h110l-17 -463h-153v315h-669v912h-218z" />
<glyph unicode="&#x4b6;" horiz-adv-x="1205" d="M136 963v464h181v-454q1 -150 52.5 -214.5t175.5 -64.5q154 0 316 52v681h181v-1427h-181v590q-149 -51 -316 -51q-205 0 -305 105t-104 319zM1014 150h174v-502h-174v502z" />
<glyph unicode="&#x4b7;" horiz-adv-x="962" d="M102 740v321h173v-326q6 -233 173 -233q98 0 195 29v529h174v-1060h-174v380q-95 -27 -195 -27q-163 0 -253 100.5t-93 286.5zM793 150h174v-502h-174v502z" />
<glyph unicode="&#x4b8;" horiz-adv-x="1194" d="M136 963v464h181v-454q1 -150 52.5 -214.5t175.5 -64.5v304h137v-294q82 11 179 42v681h181v-1427h-181v590q-99 -33 -179 -43v-235h-137v227q-205 0 -305 105t-104 319z" />
<glyph unicode="&#x4b9;" horiz-adv-x="970" d="M121 748v313h173v-326q4 -193 120 -226v270h138v-271q53 6 110 23v529h174v-1060h-174v380q-48 -13 -110 -22v-134h-138v132q-142 16 -217 117.5t-76 274.5z" />
<glyph unicode="&#x4ba;" horiz-adv-x="1195" d="M85 0v1427h181v-590q80 27 150.5 39t165.5 12q205 0 305 -105t104 -319v-464h-181v454q-1 150 -52.5 214.5t-175.5 64.5q-158 0 -316 -53v-680h-181z" />
<glyph unicode="&#x4bb;" horiz-adv-x="969" d="M129 0v1505h174v-553q99 128 253 128q281 0 285 -375v-705h-173v697q0 124 -41.5 176.5t-124.5 52.5q-65 0 -116.5 -43t-82.5 -113v-770h-174z" />
<glyph unicode="&#x4bc;" horiz-adv-x="1354" d="M79 1059h141q0 -188 126 -228q0 174 59 315t163 220.5t228 79.5q213 0 330 -170.5t117 -486.5v-107h-717v-91q0 -218 88 -338t247 -120q148 0 270 82l42 -141q-41 -41 -127.5 -68.5t-184.5 -27.5q-239 0 -377 166t-138 456v89q-129 21 -198 117.5t-69 252.5zM526 819h537 v33q0 223 -68 330t-199 107q-122 0 -196 -126t-74 -344z" />
<glyph unicode="&#x4bd;" horiz-adv-x="1039" d="M-16 839h136q0 -137 73 -186q28 195 135.5 311t248.5 116q180 0 276 -134t96 -391v-77h-591q2 -157 71 -253.5t178 -96.5q144 0 228 143l105 -86q-113 -205 -343 -205q-185 0 -298.5 141.5t-113.5 388.5q-101 28 -151 113.5t-50 215.5zM362 627h414v14q-16 290 -199 290 q-85 0 -143 -78t-72 -226z" />
<glyph unicode="&#x4be;" horiz-adv-x="1354" d="M79 1059h141q0 -188 126 -228q0 174 59 315t163 220.5t228 79.5q213 0 330 -170.5t117 -486.5v-107h-717v-91q0 -218 88 -338t247 -120q148 0 270 82l42 -141q-41 -41 -127.5 -68.5t-184.5 -27.5q-239 0 -377 166t-138 456v89q-129 21 -198 117.5t-69 252.5zM526 819h537 v33q0 223 -68 330t-199 107q-122 0 -196 -126t-74 -344zM744 83h174v-502h-174v502z" />
<glyph unicode="&#x4bf;" horiz-adv-x="1039" d="M-16 839h136q0 -137 73 -186q28 195 135.5 311t248.5 116q180 0 276 -134t96 -391v-77h-591q2 -157 71 -253.5t178 -96.5q144 0 228 143l105 -86q-113 -205 -343 -205q-185 0 -298.5 141.5t-113.5 388.5q-101 28 -151 113.5t-50 215.5zM362 627h414v14q-16 290 -199 290 q-85 0 -143 -78t-72 -226zM519 87h174v-502h-174v502z" />
<glyph unicode="&#x4c0;" horiz-adv-x="501" d="M162 0v1427h179v-1427h-179z" />
<glyph unicode="&#x4c1;" horiz-adv-x="1587" d="M43 0l395 758l-364 669h212l296 -619h132v619h181v-619h125l296 619h211l-363 -668l394 -759h-222l-317 651h-124v-651h-181v651h-132l-315 -651h-224zM503 1782h148q0 -69 37.5 -107.5t108.5 -38.5q69 0 107.5 38.5t38.5 107.5h147q0 -118 -80.5 -190.5t-212 -72.5 t-213 73t-81.5 190z" />
<glyph unicode="&#x4c2;" horiz-adv-x="1328" d="M36 0l305 553l-278 507h208l206 -439h99v439h173v-439h97l208 439h209l-279 -508l305 -552h-219l-220 461h-101v-461h-173v461h-101l-221 -461h-218zM368 1446h148q0 -69 37.5 -107.5t108.5 -38.5q69 0 107.5 38.5t38.5 107.5h147q0 -118 -80.5 -190.5t-212 -72.5 t-213 73t-81.5 190z" />
<glyph unicode="&#x4c3;" horiz-adv-x="1110" d="M149 0v1427h180v-613h96l413 613h210l-434 -620q203 -24 313.5 -170t110.5 -392q0 -255 -105 -396t-296 -141l-2 149q112 0 167 91t55 295q-2 198 -78 301.5t-239 103.5h-211v-648h-180z" />
<glyph unicode="&#x4c4;" horiz-adv-x="967" d="M144 0v1060h174v-448h60l315 448h207l-341 -460q162 -31 246 -143t84 -285q-4 -154 -92.5 -275t-227.5 -150l-44 143q192 56 192 282q-4 280 -270 280h-129v-452h-174z" />
<glyph unicode="&#x4c5;" horiz-adv-x="1235" d="M61 0v154l33 2q72 6 112 55.5t60.5 157t29.5 329.5l23 729h752v-1427h-180v1272h-399l-22 -600q-11 -262 -49.5 -400.5t-112 -204t-192.5 -67.5h-55zM972 -280q93 129 96 265v164h178v-142q0 -99 -48.5 -198t-122.5 -159z" />
<glyph unicode="&#x4c6;" horiz-adv-x="1023" d="M56 0v160l44 4q72 9 102 97t40 346l17 453h618v-1060h-173v910h-280l-16 -359q-14 -299 -80.5 -424t-213.5 -127h-58zM780 -280q93 129 96 265v164h178v-142q0 -99 -48.5 -198t-122.5 -159z" />
<glyph unicode="&#x4c7;" horiz-adv-x="1244" d="M163 0v1427h180v-645h556v645h180v-1509q0 -169 -73 -257.5t-203 -88.5q-48 0 -94 17l11 151q33 -13 81 -13q98 0 98 205v696h-556v-628h-180z" />
<glyph unicode="&#x4c8;" horiz-adv-x="1000" d="M134 0v1060h175v-459h382v459h172v-1147q0 -166 -72 -253.5t-199 -87.5q-50 0 -92 17l13 144q11 -5 40.5 -8.5t38.5 -3.5q99 0 99 208v524h-382v-453h-175z" />
<glyph unicode="&#x4c9;" horiz-adv-x="1244" d="M154 0v1427h179v-614h574v614h181v-1427h-181v660h-574v-660h-179zM989 -280q93 129 96 265v164h178v-142q0 -99 -48.5 -198t-122.5 -159z" />
<glyph unicode="&#x4ca;" horiz-adv-x="1021" d="M145 0v1060h174v-459h383v459h172v-1060h-172v453h-383v-453h-174zM777 -280q93 129 96 265v164h178v-142q0 -99 -48.5 -198t-122.5 -159z" />
<glyph unicode="&#x4cb;" horiz-adv-x="1205" d="M136 963v464h181v-454q1 -150 52.5 -214.5t175.5 -64.5q154 0 316 52v681h181v-1427h-181v590q-149 -51 -316 -51q-205 0 -305 105t-104 319zM711 150h174v-502h-174v502z" />
<glyph unicode="&#x4cc;" horiz-adv-x="962" d="M102 740v321h173v-326q6 -233 173 -233q98 0 195 29v529h174v-1060h-174v380q-95 -27 -195 -27q-163 0 -253 100.5t-93 286.5zM488 150h174v-502h-174v502z" />
<glyph unicode="&#x4cd;" horiz-adv-x="1516" d="M154 0v1427h231l373 -1164l372 1164h231v-1427h-179v556l17 556l-374 -1112h-137l-371 1108l16 -552v-556h-179zM1250 -280q93 129 96 265v164h178v-142q0 -99 -48.5 -198t-122.5 -159z" />
<glyph unicode="&#x4ce;" horiz-adv-x="1296" d="M145 0v1060h223l282 -820l284 820h216v-1060h-173v731l-267 -731h-119l-273 749v-749h-173zM1052 -280q93 129 96 265v164h178v-142q0 -99 -48.5 -198t-122.5 -159z" />
<glyph unicode="&#x4cf;" horiz-adv-x="501" d="M162 0v1427h179v-1427h-179z" />
<glyph unicode="&#x4d0;" horiz-adv-x="1156" d="M42 0l460 1427h154l460 -1427h-184l-113 372h-482l-111 -372h-184zM289 1770h148q0 -69 37.5 -107.5t108.5 -38.5q69 0 107.5 38.5t38.5 107.5h147q0 -118 -80.5 -190.5t-212 -72.5t-213 73t-81.5 190zM384 527h389l-195 649z" />
<glyph unicode="&#x4d1;" horiz-adv-x="961" d="M112 289q0 162 109.5 257t300.5 97h128v113q0 95 -42.5 135t-128.5 40q-78 0 -127 -46.5t-49 -118.5h-174q0 82 48 156t129.5 116t181.5 42q163 0 247.5 -81t86.5 -236v-535q1 -122 34 -212v-16h-181q-15 34 -22 116q-92 -136 -236 -136t-224.5 81t-80.5 228zM205 1466 h148q0 -69 37.5 -107.5t108.5 -38.5q69 0 107.5 38.5t38.5 107.5h147q0 -118 -80.5 -190.5t-212 -72.5t-213 73t-81.5 190zM285 310q0 -90 36.5 -131t122.5 -41q64 0 121.5 35.5t84.5 88.5v252h-98q-124 -1 -195.5 -54.5t-71.5 -149.5z" />
<glyph unicode="&#x4d2;" horiz-adv-x="1156" d="M42 0l460 1427h154l460 -1427h-184l-113 372h-482l-111 -372h-184zM268 1648q0 44 27 73.5t80 29.5t80.5 -29.5t27.5 -74t-27.5 -73.5t-80.5 -29t-80 29t-27 74zM384 527h389l-195 649zM689 1646q0 44 27 74t80 30t80.5 -30t27.5 -74t-27.5 -73.5t-80.5 -29.5t-80 29.5 t-27 73.5z" />
<glyph unicode="&#x4d3;" horiz-adv-x="961" d="M112 289q0 162 109.5 257t300.5 97h128v113q0 95 -42.5 135t-128.5 40q-78 0 -127 -46.5t-49 -118.5h-174q0 82 48 156t129.5 116t181.5 42q163 0 247.5 -81t86.5 -236v-535q1 -122 34 -212v-16h-181q-15 34 -22 116q-92 -136 -236 -136t-224.5 81t-80.5 228zM184 1344 q0 44 27 73.5t80 29.5t80.5 -29.5t27.5 -74t-27.5 -73.5t-80.5 -29t-80 29t-27 74zM285 310q0 -90 36.5 -131t122.5 -41q64 0 121.5 35.5t84.5 88.5v252h-98q-124 -1 -195.5 -54.5t-71.5 -149.5zM605 1342q0 44 27 74t80 30t80.5 -30t27.5 -74t-27.5 -73.5t-80.5 -29.5 t-80 29.5t-27 73.5z" />
<glyph unicode="&#x4d4;" horiz-adv-x="1629" d="M-2 0l724 1427h811v-149h-569l17 -462h485v-148h-480l18 -520h580v-148h-748l-13 346h-449l-164 -346h-212zM456 516h361l-24 709z" />
<glyph unicode="&#x4d5;" horiz-adv-x="1461" d="M81 298q0 154 94.5 239t277.5 85h173v84q0 104 -42.5 164.5t-120.5 60.5q-80 0 -133.5 -53.5t-53.5 -133.5l-171 18q0 140 100.5 229t257.5 89q194 0 279 -150q109 150 275 150q177 0 273.5 -126.5t96.5 -354.5v-112h-590q5 -170 73 -265t187 -95q124 0 220 75l38 30 l58 -133q-50 -54 -135 -86.5t-181 -32.5q-215 0 -328 169q-55 -80 -149 -124.5t-207 -44.5q-136 0 -214 84t-78 234zM255 294q0 -79 40.5 -123t113.5 -44q92 0 188 87l29 29v242h-173q-89 -1 -143.5 -54t-54.5 -137zM800 627h414v31q0 132 -51 202.5t-146 70.5 q-89 0 -147.5 -85.5t-69.5 -218.5z" />
<glyph unicode="&#x4d6;" horiz-adv-x="996" d="M154 0v1427h757v-155h-578v-459h505v-153h-505v-506h588v-154h-767zM236 1782h148q0 -69 37.5 -107.5t108.5 -38.5q69 0 107.5 38.5t38.5 107.5h147q0 -118 -80.5 -190.5t-212 -72.5t-213 73t-81.5 190z" />
<glyph unicode="&#x4d7;" horiz-adv-x="939" d="M97 445v128q0 237 103.5 372t288.5 135q186 0 278 -118.5t94 -369.5v-114h-591v-24q0 -171 64 -248.5t184 -77.5q77 0 135 29t109 92l91 -110q-113 -159 -344 -159q-198 0 -304 118.5t-108 346.5zM191 1466h148q0 -69 37.5 -107.5t108.5 -38.5q69 0 107.5 38.5 t38.5 107.5h147q0 -118 -80.5 -190.5t-212 -72.5t-213 73t-81.5 190zM270 627h418v24q-7 151 -54.5 215.5t-144.5 64.5q-108 0 -160 -74t-59 -230z" />
<glyph unicode="&#x4d8;" horiz-adv-x="1198" d="M86 637v115h817v7q0 252 -96.5 391.5t-273.5 139.5q-130 0 -238 -56l-49 -27l-41 141q40 40 132.5 69t195.5 29q254 0 402.5 -185.5t148.5 -511.5v-83q0 -192 -64.5 -349t-181 -247t-254.5 -90q-238 0 -368 169t-130 488zM267 572q0 -218 79.5 -327.5t237.5 -109.5 q132 0 218 126.5t99 344.5h-634v-34z" />
<glyph unicode="&#x4d9;" horiz-adv-x="934" d="M102 459v113h576q-4 168 -66.5 264.5t-169.5 96.5q-150 0 -249 -106l-67 123q110 131 316 131q186 0 298 -145.5t112 -391.5v-36q0 -148 -53 -270.5t-143.5 -190.5t-186.5 -66q-176 0 -271.5 122.5t-95.5 355.5zM275 399q0 -126 51.5 -198t142.5 -72q75 0 131.5 79.5 t72.5 215.5h-398v-25z" />
<glyph unicode="&#x4da;" horiz-adv-x="1198" d="M86 637v115h817v7q0 252 -96.5 391.5t-273.5 139.5q-130 0 -238 -56l-49 -27l-41 141q40 40 132.5 69t195.5 29q254 0 402.5 -185.5t148.5 -511.5v-83q0 -192 -64.5 -349t-181 -247t-254.5 -90q-238 0 -368 169t-130 488zM218 1614q0 44 27 73.5t80 29.5t80.5 -29.5 t27.5 -74t-27.5 -73.5t-80.5 -29t-80 29t-27 74zM267 572q0 -218 79.5 -327.5t237.5 -109.5q132 0 218 126.5t99 344.5h-634v-34zM639 1612q0 44 27 74t80 30t80.5 -30t27.5 -74t-27.5 -73.5t-80.5 -29.5t-80 29.5t-27 73.5z" />
<glyph unicode="&#x4db;" horiz-adv-x="934" d="M102 459v113h576q-4 168 -66.5 264.5t-169.5 96.5q-150 0 -249 -106l-67 123q110 131 316 131q186 0 298 -145.5t112 -391.5v-36q0 -148 -53 -270.5t-143.5 -190.5t-186.5 -66q-176 0 -271.5 122.5t-95.5 355.5zM163 1345q0 44 27 73.5t80 29.5t80.5 -29.5t27.5 -74 t-27.5 -73.5t-80.5 -29t-80 29t-27 74zM275 399q0 -126 51.5 -198t142.5 -72q75 0 131.5 79.5t72.5 215.5h-398v-25zM584 1343q0 44 27 74t80 30t80.5 -30t27.5 -74t-27.5 -73.5t-80.5 -29.5t-80 29.5t-27 73.5z" />
<glyph unicode="&#x4dc;" horiz-adv-x="1587" d="M43 0l395 758l-364 669h212l296 -619h132v619h181v-619h125l296 619h211l-363 -668l394 -759h-222l-317 651h-124v-651h-181v651h-132l-315 -651h-224zM482 1660q0 44 27 73.5t80 29.5t80.5 -29.5t27.5 -74t-27.5 -73.5t-80.5 -29t-80 29t-27 74zM903 1658q0 44 27 74 t80 30t80.5 -30t27.5 -74t-27.5 -73.5t-80.5 -29.5t-80 29.5t-27 73.5z" />
<glyph unicode="&#x4dd;" horiz-adv-x="1328" d="M36 0l305 553l-278 507h208l206 -439h99v439h173v-439h97l208 439h209l-279 -508l305 -552h-219l-220 461h-101v-461h-173v461h-101l-221 -461h-218zM347 1324q0 44 27 73.5t80 29.5t80.5 -29.5t27.5 -74t-27.5 -73.5t-80.5 -29t-80 29t-27 74zM768 1322q0 44 27 74 t80 30t80.5 -30t27.5 -74t-27.5 -73.5t-80.5 -29.5t-80 29.5t-27 73.5z" />
<glyph unicode="&#x4de;" horiz-adv-x="1038" d="M82 396h180q0 -112 69 -187.5t177 -75.5q120 0 192 71t72 190q0 249 -238 256h-147v155h134q114 0 173.5 61.5t59.5 177.5q0 114 -65.5 181t-180.5 67q-98 0 -163.5 -69t-65.5 -171h-179q0 175 116.5 284.5t291.5 109.5q202 0 314 -107.5t112 -297.5q0 -99 -52 -180.5 t-143 -128.5q213 -85 213 -334q0 -194 -122 -306t-322 -112q-87 0 -166.5 28t-139.5 85q-120 113 -120 303zM201 1680q0 44 27 73.5t80 29.5t80.5 -29.5t27.5 -74t-27.5 -73.5t-80.5 -29t-80 29t-27 74zM622 1678q0 44 27 74t80 30t80.5 -30t27.5 -74t-27.5 -73.5 t-80.5 -29.5t-80 29.5t-27 73.5z" />
<glyph unicode="&#x4df;" horiz-adv-x="895" d="M89 314h172q0 -79 53 -134t132 -55q80 0 128.5 48t48.5 125q0 89 -39.5 128t-124.5 39h-159v152h170q138 5 138 153q0 75 -43 118.5t-118 43.5q-74 0 -123.5 -49t-49.5 -119h-171q0 139 98 227t246 88q158 0 245.5 -80.5t87.5 -227.5q0 -71 -36 -131t-103 -95 q156 -64 156 -247q0 -148 -96.5 -232.5t-254.5 -84.5q-156 0 -256.5 90t-100.5 243zM132 1344q0 44 27 73.5t80 29.5t80.5 -29.5t27.5 -74t-27.5 -73.5t-80.5 -29t-80 29t-27 74zM553 1342q0 44 27 74t80 30t80.5 -30t27.5 -74t-27.5 -73.5t-80.5 -29.5t-80 29.5t-27 73.5z " />
<glyph unicode="&#x4e0;" horiz-adv-x="1024" d="M102 396h180q0 -112 59.5 -187.5t151.5 -75.5q108 0 171.5 71.5t63.5 189.5q0 154 -66 223.5t-192 69.5h-122v148l303 437h-510v155h721l1 -123l-335 -472q181 -14 280.5 -127.5t99.5 -306.5t-113.5 -306t-301.5 -113q-78 0 -152 28t-129 86q-110 113 -110 303z" />
<glyph unicode="&#x4e1;" horiz-adv-x="1024" d="M103 28h174q0 -113 61 -189.5t154 -76.5q112 0 176 73t64 191q0 156 -66 224t-193 68h-127v148l288 444h-492v150h716v-115l-327 -484q179 -16 276.5 -127.5t97.5 -303.5q0 -191 -113 -304t-300 -113q-110 0 -199 50.5t-139.5 144t-50.5 220.5z" />
<glyph unicode="&#x4e2;" horiz-adv-x="1242" d="M162 0v1427h180v-1100l556 1100h179v-1427h-179v1100l-556 -1100h-180zM326 1610v140h602v-140h-602z" />
<glyph unicode="&#x4e3;" horiz-adv-x="1022" d="M145 0v1060h173v-774l385 774h172v-1060h-172v773l-385 -773h-173zM214 1275v140h602v-140h-602z" />
<glyph unicode="&#x4e4;" horiz-adv-x="1242" d="M162 0v1427h180v-1100l556 1100h179v-1427h-179v1100l-556 -1100h-180zM308 1660q0 44 27 73.5t80 29.5t80.5 -29.5t27.5 -74t-27.5 -73.5t-80.5 -29t-80 29t-27 74zM729 1658q0 44 27 74t80 30t80.5 -30t27.5 -74t-27.5 -73.5t-80.5 -29.5t-80 29.5t-27 73.5z" />
<glyph unicode="&#x4e5;" horiz-adv-x="1022" d="M145 0v1060h173v-774l385 774h172v-1060h-172v773l-385 -773h-173zM196 1324q0 44 27 73.5t80 29.5t80.5 -29.5t27.5 -74t-27.5 -73.5t-80.5 -29t-80 29t-27 74zM617 1322q0 44 27 74t80 30t80.5 -30t27.5 -74t-27.5 -73.5t-80.5 -29.5t-80 29.5t-27 73.5z" />
<glyph unicode="&#x4e6;" horiz-adv-x="1205" d="M122 567v269q0 286 126.5 448t353.5 162q225 0 351 -155t129 -443v-260q0 -292 -124.5 -450t-353.5 -158q-221 0 -349 153.5t-133 433.5zM291 1650q0 44 27 73.5t80 29.5t80.5 -29.5t27.5 -74t-27.5 -73.5t-80.5 -29t-80 29t-27 74zM301 588q0 -219 76 -333.5t227 -114.5 t223.5 106t75.5 324v268q0 226 -74 336.5t-227 110.5q-148 0 -224 -112t-77 -329v-256zM712 1648q0 44 27 74t80 30t80.5 -30t27.5 -74t-27.5 -73.5t-80.5 -29.5t-80 29.5t-27 73.5z" />
<glyph unicode="&#x4e7;" d="M93 464v115q0 231 112.5 366t296.5 135t296 -131.5t115 -357.5v-112q0 -230 -111.5 -364.5t-297.5 -134.5q-185 0 -296 130.5t-115 353.5zM179 1344q0 44 27 73.5t80 29.5t80.5 -29.5t27.5 -74t-27.5 -73.5t-80.5 -29t-80 29t-27 74zM267 479q0 -163 64 -257t173 -94 q229 0 236 332v119q0 163 -64.5 257.5t-173.5 94.5q-107 0 -171 -94.5t-64 -256.5v-101zM600 1342q0 44 27 74t80 30t80.5 -30t27.5 -74t-27.5 -73.5t-80.5 -29.5t-80 29.5t-27 73.5z" />
<glyph unicode="&#x4e8;" horiz-adv-x="1190" d="M100 659v99q0 203 60 360t171 242.5t256 85.5t256 -82.5t171 -237.5t61 -361v-98q0 -209 -60.5 -366.5t-170.5 -239t-255 -81.5q-143 0 -253.5 82.5t-172.5 238t-63 358.5zM278 630q6 -226 88.5 -358t222.5 -132q142 0 221.5 125.5t85.5 364.5h-618zM278 778h619 q-4 244 -85 375.5t-225 131.5q-143 0 -225 -137t-84 -370z" />
<glyph unicode="&#x4e9;" horiz-adv-x="998" d="M95 526v14q0 240 112.5 390t294.5 150q176 0 288 -138.5t121 -363.5l1 -60q0 -238 -112.5 -388t-296 -150t-296 148.5t-112.5 397.5zM270 461q10 -157 73.5 -245t160.5 -88t159 88.5t73 244.5h-466zM270 610h465q-14 150 -75.5 235.5t-157.5 85.5t-157.5 -86.5 t-74.5 -234.5z" />
<glyph unicode="&#x4ea;" horiz-adv-x="1190" d="M100 659v99q0 203 60 360t171 242.5t256 85.5t256 -82.5t171 -237.5t61 -361v-98q0 -209 -60.5 -366.5t-170.5 -239t-255 -81.5q-143 0 -253.5 82.5t-172.5 238t-63 358.5zM278 630q6 -226 88.5 -358t222.5 -132q142 0 221.5 125.5t85.5 364.5h-618zM278 778h619 q-4 244 -85 375.5t-225 131.5q-143 0 -225 -137t-84 -370zM297 1655q0 44 27 73.5t80 29.5t80.5 -29.5t27.5 -74t-27.5 -73.5t-80.5 -29t-80 29t-27 74zM718 1653q0 44 27 74t80 30t80.5 -30t27.5 -74t-27.5 -73.5t-80.5 -29.5t-80 29.5t-27 73.5z" />
<glyph unicode="&#x4eb;" horiz-adv-x="998" d="M95 526v14q0 240 112.5 390t294.5 150q176 0 288 -138.5t121 -363.5l1 -60q0 -238 -112.5 -388t-296 -150t-296 148.5t-112.5 397.5zM166 1346q0 44 27 73.5t80 29.5t80.5 -29.5t27.5 -74t-27.5 -73.5t-80.5 -29t-80 29t-27 74zM270 461q10 -157 73.5 -245t160.5 -88 t159 88.5t73 244.5h-466zM270 610h465q-14 150 -75.5 235.5t-157.5 85.5t-157.5 -86.5t-74.5 -234.5zM587 1344q0 44 27 74t80 30t80.5 -30t27.5 -74t-27.5 -73.5t-80.5 -29.5t-80 29.5t-27 73.5z" />
<glyph unicode="&#x4ec;" horiz-adv-x="1183" d="M142 453h181q24 -184 89 -251.5t190 -67.5q137 0 215 129t80 371h-462v155h462q0 237 -82.5 370t-229.5 133q-116 0 -178.5 -74.5t-83.5 -249.5h-181q22 232 137 355t306 123q224 0 358 -180t134 -491v-134q0 -196 -58.5 -345.5t-167 -232.5t-249.5 -83 q-200 0 -318.5 121.5t-141.5 351.5zM274 1681q0 44 27 73.5t80 29.5t80.5 -29.5t27.5 -74t-27.5 -73.5t-80.5 -29t-80 29t-27 74zM695 1679q0 44 27 74t80 30t80.5 -30t27.5 -74t-27.5 -73.5t-80.5 -29.5t-80 29.5t-27 73.5z" />
<glyph unicode="&#x4ed;" horiz-adv-x="947" d="M98 364h165q0 -102 54 -169.5t131 -67.5q92 0 150.5 90t67.5 249h-308v148h306q-11 147 -67.5 232t-147.5 85q-77 0 -131.5 -61.5t-54.5 -146.5h-165q0 91 48.5 174.5t131 133t171.5 49.5q174 0 282.5 -147.5t108.5 -393.5v-29q0 -149 -49 -271.5t-138 -190.5t-205 -68 q-150 0 -250 109t-100 275zM155 1344q0 44 27 73.5t80 29.5t80.5 -29.5t27.5 -74t-27.5 -73.5t-80.5 -29t-80 29t-27 74zM576 1342q0 44 27 74t80 30t80.5 -30t27.5 -74t-27.5 -73.5t-80.5 -29.5t-80 29.5t-27 73.5z" />
<glyph unicode="&#x4ee;" horiz-adv-x="1099" d="M90 1427h200l276 -800l255 800h208l-411 -1189q-45 -115 -80.5 -161.5t-85.5 -72t-126 -25.5q-67 0 -85 9l4 149l77 -4q79 0 113 95l47 140zM255 1610v140h602v-140h-602z" />
<glyph unicode="&#x4ef;" horiz-adv-x="835" d="M34 1060h189l196 -772l193 772h185l-347 -1210q-39 -136 -110.5 -207t-163.5 -71q-35 0 -90 15v147l38 -4q76 0 118.5 36t69.5 124l34 119zM140 1295v140h602v-140h-602z" />
<glyph unicode="&#x4f0;" horiz-adv-x="1099" d="M90 1427h200l276 -800l255 800h208l-411 -1189q-45 -115 -80.5 -161.5t-85.5 -72t-126 -25.5q-67 0 -85 9l4 149l77 -4q79 0 113 95l47 140zM237 1660q0 44 27 73.5t80 29.5t80.5 -29.5t27.5 -74t-27.5 -73.5t-80.5 -29t-80 29t-27 74zM658 1658q0 44 27 74t80 30 t80.5 -30t27.5 -74t-27.5 -73.5t-80.5 -29.5t-80 29.5t-27 73.5z" />
<glyph unicode="&#x4f1;" horiz-adv-x="835" d="M34 1060h189l196 -772l193 772h185l-347 -1210q-39 -136 -110.5 -207t-163.5 -71q-35 0 -90 15v147l38 -4q76 0 118.5 36t69.5 124l34 119zM122 1344q0 44 27 73.5t80 29.5t80.5 -29.5t27.5 -74t-27.5 -73.5t-80.5 -29t-80 29t-27 74zM543 1342q0 44 27 74t80 30 t80.5 -30t27.5 -74t-27.5 -73.5t-80.5 -29.5t-80 29.5t-27 73.5z" />
<glyph unicode="&#x4f2;" horiz-adv-x="1099" d="M90 1427h200l276 -800l255 800h208l-411 -1189q-45 -115 -80.5 -161.5t-85.5 -72t-126 -25.5q-67 0 -85 9l4 149l77 -4q79 0 113 95l47 140zM337 1523l131 297h181l-176 -297h-136zM574 1523l183 297h190l-219 -297h-154z" />
<glyph unicode="&#x4f3;" horiz-adv-x="835" d="M34 1060h189l196 -772l193 772h185l-347 -1210q-39 -136 -110.5 -207t-163.5 -71q-35 0 -90 15v147l38 -4q76 0 118.5 36t69.5 124l34 119zM221 1207l131 297h181l-176 -297h-136zM458 1207l183 297h190l-219 -297h-154z" />
<glyph unicode="&#x4f4;" horiz-adv-x="1205" d="M136 963v464h181v-454q1 -150 52.5 -214.5t175.5 -64.5q154 0 316 52v681h181v-1427h-181v590q-149 -51 -316 -51q-205 0 -305 105t-104 319zM272 1660q0 44 27 73.5t80 29.5t80.5 -29.5t27.5 -74t-27.5 -73.5t-80.5 -29t-80 29t-27 74zM693 1658q0 44 27 74t80 30 t80.5 -30t27.5 -74t-27.5 -73.5t-80.5 -29.5t-80 29.5t-27 73.5z" />
<glyph unicode="&#x4f5;" horiz-adv-x="962" d="M102 740v321h173v-326q6 -233 173 -233q98 0 195 29v529h174v-1060h-174v380q-95 -27 -195 -27q-163 0 -253 100.5t-93 286.5zM139 1324q0 44 27 73.5t80 29.5t80.5 -29.5t27.5 -74t-27.5 -73.5t-80.5 -29t-80 29t-27 74zM560 1322q0 44 27 74t80 30t80.5 -30t27.5 -74 t-27.5 -73.5t-80.5 -29.5t-80 29.5t-27 73.5z" />
<glyph unicode="&#x4f6;" horiz-adv-x="979" d="M163 0v1427h742v-155h-562v-1272h-180zM315 150h174v-502h-174v502z" />
<glyph unicode="&#x4f7;" horiz-adv-x="744" d="M143 0v1060h569v-150h-394v-910h-175zM294 150h174v-502h-174v502z" />
<glyph unicode="&#x4f8;" horiz-adv-x="1516" d="M164 0v1427h179v-582h288q192 -1 301 -112.5t109 -306.5q0 -196 -110 -311t-305 -115h-462zM343 154h286q110 0 171 75.5t61 198.5q0 122 -60.5 192t-170.5 70h-287v-536zM440 1660q0 44 27 73.5t80 29.5t80.5 -29.5t27.5 -74t-27.5 -73.5t-80.5 -29t-80 29t-27 74z M861 1658q0 44 27 74t80 30t80.5 -30t27.5 -74t-27.5 -73.5t-80.5 -29.5t-80 29.5t-27 73.5zM1166 0v1427h179v-1427h-179z" />
<glyph unicode="&#x4f9;" horiz-adv-x="1364" d="M145 0v1060h173v-365h218q152 -1 242 -93t90 -251t-91 -254.5t-241 -96.5h-391zM318 148h215q77 0 119.5 52t42.5 144q0 90 -42 146t-116 57h-219v-399zM351 1324q0 44 27 73.5t80 29.5t80.5 -29.5t27.5 -74t-27.5 -73.5t-80.5 -29t-80 29t-27 74zM772 1322q0 44 27 74 t80 30t80.5 -30t27.5 -74t-27.5 -73.5t-80.5 -29.5t-80 29.5t-27 73.5zM1018 0v1060h174v-1060h-174z" />
<glyph unicode="&#x4fa;" horiz-adv-x="1045" d="M78 701v148h531v-148h-531zM199 -411l11 154q10 -5 39 -9t41 -4q98 0 98 190v229h173v-245q-2 -162 -73 -247t-198 -85q-51 0 -91 17zM230 0v1427h742v-155h-562v-1272h-180z" />
<glyph unicode="&#x4fb;" horiz-adv-x="731" d="M77 526v148h531v-148h-531zM187 -411l11 154q10 -5 39 -9t41 -4q98 0 98 190v229h173v-245q-2 -162 -73 -247t-198 -85q-51 0 -91 17zM220 0v1060h569v-150h-394v-910h-175z" />
<glyph unicode="&#x4fc;" horiz-adv-x="1105" d="M67 0l381 719l-374 708h210l271 -547l268 547h211l-372 -708l380 -719h-213l-274 557l-276 -557h-212zM742 -411l11 154q10 -5 39 -9t41 -4q98 0 98 190v229h173v-245q-2 -162 -73 -247t-198 -85q-51 0 -91 17z" />
<glyph unicode="&#x4fd;" horiz-adv-x="881" d="M51 0l295 536l-287 524h199l178 -387l181 387h201l-288 -524l295 -536h-199l-187 397l-188 -397h-200zM541 -411l11 154q10 -5 39 -9t41 -4q98 0 98 190v229h173v-245q-2 -162 -73 -247t-198 -85q-51 0 -91 17z" />
<glyph unicode="&#x4fe;" horiz-adv-x="1105" d="M67 0l348 657h-123v148h111l-329 622h210l271 -547l268 547h211l-327 -622h116v-148h-128l347 -657h-213l-274 557l-276 -557h-212z" />
<glyph unicode="&#x4ff;" horiz-adv-x="881" d="M51 0l259 471h-134v148h124l-241 441h199l178 -387l181 387h201l-243 -441h133v-148h-143l260 -471h-199l-187 397l-188 -397h-200z" />
<glyph unicode="&#x500;" horiz-adv-x="1115" d="M95 436q0 193 106 309t292 120h297v562h182v-1427h-467q-189 0 -299.5 119t-110.5 317zM274 438q0 -128 60.5 -205t164.5 -79h291v556h-285q-108 0 -169.5 -73t-61.5 -199z" />
<glyph unicode="&#x501;" horiz-adv-x="995" d="M93 469v109q0 245 91.5 373.5t263.5 128.5q152 0 237 -124v549h173v-1505h-158l-9 114q-85 -134 -244 -134q-165 0 -258.5 128t-95.5 361zM267 479q0 -178 52.5 -262t172.5 -84q129 0 193 131v535q-67 127 -192 127q-120 0 -172.5 -83.5t-53.5 -257.5v-106z" />
<glyph unicode="&#x502;" horiz-adv-x="1452" d="M97 436q0 193 106 309t293 120h298v562h181v-1275l61 1q87 2 131.5 73.5t47.5 191.5q2 166 -50 323h175q57 -205 55 -323q-4 -194 -102 -306t-264 -112h-521q-190 0 -300.5 119t-110.5 317zM278 438q0 -128 60.5 -205t162.5 -79h293v556h-286q-107 0 -168.5 -73 t-61.5 -199z" />
<glyph unicode="&#x503;" horiz-adv-x="1492" d="M98 511q0 261 94.5 415t255.5 154q142 0 226 -109v558h173v-1191q-2 -90 33.5 -150.5t98.5 -60.5q110 2 169.5 106t61.5 285q4 192 -49 394l167 1q22 -96 39.5 -195t15.5 -200q-2 -164 -53.5 -286t-143.5 -187.5t-207 -65.5q-200 -3 -269 165q-89 -165 -263 -165 q-160 0 -254.5 138t-94.5 394zM271 490q0 -175 57.5 -266t163.5 -91q123 0 188 132l-6 73v470q-65 118 -181 118q-106 0 -164 -106.5t-58 -329.5z" />
<glyph unicode="&#x504;" horiz-adv-x="1375" d="M65 1272v155h299q198 -1 301 -103.5t103 -299.5q0 -227 -193 -322q193 -70 194 -333v-75q1 -74 31 -117.5t79 -43.5q88 2 138 105t52 280q4 189 -48 395h174q24 -109 40 -204.5t15 -190.5q-3 -247 -106 -393t-267 -146q-137 -3 -209 77t-78 242v68q-1 114 -55.5 184 t-147.5 70h-159v155h116q127 1 185.5 60t58.5 191q0 246 -231 246h-292z" />
<glyph unicode="&#x505;" horiz-adv-x="1129" d="M61 1060h219q170 0 265 -82t95 -233q0 -153 -157 -226q156 -48 158 -230v-80q-2 -87 62 -87q86 2 131.5 78t48.5 211q2 153 -49 312h167q33 -119 45 -184t10 -128q-3 -202 -100.5 -319t-252.5 -117q-114 -3 -172 51.5t-64 183.5v68q0 155 -165 155h-170l-2 147h157 q178 4 178 159q0 174 -190 174h-209z" />
<glyph unicode="&#x506;" horiz-adv-x="943" d="M82 1278v148h233q194 -2 295 -105t101 -301q0 -222 -189 -320q181 -68 187 -319v-173h153v-145q0 -93 -42 -191.5t-111 -162.5l-98 71q67 113 79 220h-105q-48 48 -50 205v154q0 121 -54.5 191t-145.5 70h-179v148h134q128 0 189 62t61 192q0 254 -229 256h-229z" />
<glyph unicode="&#x507;" horiz-adv-x="889" d="M122 913v147h233q168 -2 259.5 -83.5t91.5 -230.5q0 -157 -159 -230q157 -51 159 -246v-78h143v-145q0 -94 -42.5 -192.5t-112.5 -161.5l-97 71q69 116 80 236h-95q-48 32 -49 166v89q0 176 -165 176h-191v148h182q172 4 172 160q0 174 -185 174h-224z" />
<glyph unicode="&#x508;" horiz-adv-x="1674" d="M76 0v154l34 2q71 6 111.5 55.5t61 157t29.5 329.5l23 729h727v-1086q0 -95 35 -151.5t95 -56.5q103 0 162.5 102t61.5 283q2 197 -49 394l174 1q22 -96 39 -195t15 -200q-2 -164 -53 -286t-143.5 -187.5t-206.5 -65.5q-311 0 -311 364v929h-373l-22 -600 q-12 -264 -50.5 -402.5t-113 -204t-198.5 -65.5h-48z" />
<glyph unicode="&#x509;" horiz-adv-x="1401" d="M75 0v160l34 3q74 5 106.5 81.5t43.5 285.5l19 530h580v-721q0 -94 35.5 -153t97.5 -59q82 0 129 93t49 254q4 183 -49 374h167q22 -91 39.5 -185t16.5 -189q-4 -228 -101 -361.5t-251 -133.5q-151 0 -228.5 91.5t-77.5 266.5v573h-242l-19 -403q-16 -276 -83 -391 t-210 -116h-56z" />
<glyph unicode="&#x50a;" horiz-adv-x="1735" d="M152 0v1427h181v-645h562v645h180v-1087q0 -98 35.5 -152.5t92.5 -54.5q107 2 165.5 104.5t60.5 280.5q4 188 -50 394l174 1q23 -96 41 -195t16 -200q-2 -163 -53.5 -284.5t-144 -188t-209.5 -66.5q-294 -7 -308 360v289h-562v-628h-181z" />
<glyph unicode="&#x50b;" horiz-adv-x="1437" d="M136 0v1060h173v-460h394v460h172v-721q0 -99 37 -155.5t96 -56.5q85 2 131.5 95t48.5 252q4 176 -49 374h165l25 -104q34 -155 32 -270q-2 -151 -47 -262.5t-125 -172t-181 -60.5q-146 -3 -222.5 87.5t-82.5 271.5v114h-394v-452h-173z" />
<glyph unicode="&#x50c;" horiz-adv-x="1085" d="M111 579v263q0 170 61 309.5t172 217.5t250 78q184 0 299 -86l-55 -135q-109 67 -244 67q-134 0 -218.5 -126t-84.5 -333v-249q0 -198 84 -325t219 -127q107 2 164 77t60 206q2 153 -41 354h173l32 -175q17 -89 16 -179q-4 -201 -115.5 -319t-288.5 -118 q-138 0 -248.5 77.5t-172 215.5t-62.5 307z" />
<glyph unicode="&#x50d;" horiz-adv-x="907" d="M98 521v30q0 231 110 380t283 149q154 0 235 -65l-40 -141q-80 57 -195 57q-102 0 -161.5 -108.5t-59.5 -282.5v-30q0 -170 64 -276.5t175 -106.5q69 2 100.5 41.5t33.5 126.5q0 120 -16 231h167q22 -148 21 -231q-4 -151 -84.5 -233.5t-221.5 -82.5q-183 0 -297 149 t-114 393z" />
<glyph unicode="&#x50e;" horiz-adv-x="1236" d="M49 1272v155h949v-155h-389v-933q0 -94 35 -150t94 -56q105 2 163 102.5t62 282.5q4 188 -50 394l174 1q22 -96 40 -195t15 -200q-2 -164 -53.5 -286t-143.5 -187.5t-207 -65.5q-295 -7 -310 360v933h-379z" />
<glyph unicode="&#x50f;" horiz-adv-x="1121" d="M78 913v147h746v-147h-287v-575q0 -97 36 -154t96 -57q87 2 132 79t47 211q4 155 -48 319h165l24 -85q35 -136 33 -234q-4 -201 -101 -319.5t-252 -118.5q-144 -3 -221 86.5t-84 272.5v575h-286z" />
<glyph unicode="&#x510;" horiz-adv-x="1183" d="M145 398q0 249 228 334q-99 47 -154.5 128.5t-55.5 180.5q0 191 121 298.5t339 107.5q123 0 225.5 -50t159 -141t56.5 -204h-180q0 100 -75 170.5t-186 70.5q-130 0 -204 -67t-74 -182q0 -117 67.5 -178t195.5 -61h153v-155h-162q-273 -4 -273 -256q0 -118 80 -189.5 t217 -71.5q121 0 199 75t78 188h181q0 -129 -59 -222.5t-164 -143.5t-235 -50q-217 0 -347.5 113t-130.5 305z" />
<glyph unicode="&#x511;" horiz-adv-x="944" d="M98 298q0 182 170 247q-73 35 -113.5 95t-40.5 131q0 146 96 227t263 81q154 0 256.5 -87.5t102.5 -227.5h-172q0 70 -53 119t-134 49q-86 0 -136 -45.5t-50 -116.5q0 -157 181 -157h168v-145h-182q-181 -2 -181 -170q0 -75 55 -123.5t145 -48.5q85 0 143 54t58 134h173 q0 -153 -105.5 -243.5t-268.5 -90.5q-167 0 -271 86t-104 232z" />
<glyph unicode="&#x512;" horiz-adv-x="1235" d="M61 0v154l33 2q72 6 112 55.5t60.5 157t29.5 329.5l23 729h752v-1427h-180v1272h-399l-22 -600q-11 -262 -49.5 -400.5t-112 -204t-192.5 -67.5h-55zM879 -411l11 154q10 -5 39 -9t41 -4q98 0 98 190v229h173v-245q-2 -162 -73 -247t-198 -85q-51 0 -91 17z" />
<glyph unicode="&#x513;" horiz-adv-x="1023" d="M56 0v160l44 4q72 9 102 97t40 346l17 453h618v-1060h-173v910h-280l-16 -359q-14 -299 -80.5 -424t-213.5 -127h-58zM687 -411l11 154q10 -5 39 -9t41 -4q98 0 98 190v229h173v-245q-2 -162 -73 -247t-198 -85q-51 0 -91 17z" />
<glyph unicode="&#x1e00;" horiz-adv-x="1156" d="M42 0l460 1427h154l460 -1427h-184l-113 372h-482l-111 -372h-184zM384 527h389l-195 649zM440 -237q0 71 44 117t104.5 46t103 -46t42.5 -117q0 -70 -41.5 -115t-103.5 -45q-64 0 -106.5 45.5t-42.5 114.5zM515 -237q0 -34 22 -57.5t52 -23.5q28 0 48.5 23.5t20.5 57.5 q0 35 -20.5 59.5t-48.5 24.5q-30 0 -52 -24.5t-22 -59.5z" />
<glyph unicode="&#x1e01;" horiz-adv-x="961" d="M112 289q0 162 109.5 257t300.5 97h128v113q0 95 -42.5 135t-128.5 40q-78 0 -127 -46.5t-49 -118.5h-174q0 82 48 156t129.5 116t181.5 42q163 0 247.5 -81t86.5 -236v-535q1 -122 34 -212v-16h-181q-15 34 -22 116q-92 -136 -236 -136t-224.5 81t-80.5 228zM281 -237 q0 71 44 117t104.5 46t103 -46t42.5 -117q0 -70 -41.5 -115t-103.5 -45q-64 0 -106.5 45.5t-42.5 114.5zM285 310q0 -90 36.5 -131t122.5 -41q64 0 121.5 35.5t84.5 88.5v252h-98q-124 -1 -195.5 -54.5t-71.5 -149.5zM356 -237q0 -34 22 -57.5t52 -23.5q28 0 48.5 23.5 t20.5 57.5q0 35 -20.5 59.5t-48.5 24.5q-30 0 -52 -24.5t-22 -59.5z" />
<glyph unicode="&#x1e3e;" horiz-adv-x="1516" d="M154 0v1427h231l373 -1164l372 1164h231v-1427h-179v556l17 556l-374 -1112h-137l-371 1108l16 -552v-556h-179zM653 1519l189 288h219l-262 -288h-146z" />
<glyph unicode="&#x1e3f;" horiz-adv-x="1510" d="M130 0v1060h163l4 -98q97 118 256 118q177 0 248 -154q100 154 278 154q293 0 300 -366v-714h-173v698q0 115 -41 171.5t-139 56.5q-78 0 -127 -60.5t-57 -155.5v-710h-175v706q-3 220 -179 220q-131 0 -185 -131v-795h-173zM668 1215l189 288h219l-262 -288h-146z" />
<glyph unicode="&#x1e80;" horiz-adv-x="1528" d="M70 1427h179l177 -977l19 -160l28 141l229 996h150l221 -996l29 -145l20 165l175 976h179l-284 -1427h-162l-238 1040l-15 84l-15 -84l-247 -1040h-162zM475 1807h218l191 -288h-156z" />
<glyph unicode="&#x1e81;" horiz-adv-x="1304" d="M49 1060h171l164 -737l197 737h137l202 -755l161 755h171l-259 -1060h-138l-207 759l-202 -759h-139zM342 1503h218l191 -288h-156z" />
<glyph unicode="&#x1e82;" horiz-adv-x="1528" d="M70 1427h179l177 -977l19 -160l28 141l229 996h150l221 -996l29 -145l20 165l175 976h179l-284 -1427h-162l-238 1040l-15 84l-15 -84l-247 -1040h-162zM681 1519l189 288h219l-262 -288h-146z" />
<glyph unicode="&#x1e83;" horiz-adv-x="1304" d="M49 1060h171l164 -737l197 737h137l202 -755l161 755h171l-259 -1060h-138l-207 759l-202 -759h-139zM547 1215l189 288h219l-262 -288h-146z" />
<glyph unicode="&#x1e84;" horiz-adv-x="1528" d="M70 1427h179l177 -977l19 -160l28 141l229 996h150l221 -996l29 -145l20 165l175 976h179l-284 -1427h-162l-238 1040l-15 84l-15 -84l-247 -1040h-162zM466 1648q0 44 27 73.5t80 29.5t80.5 -29.5t27.5 -74t-27.5 -73.5t-80.5 -29t-80 29t-27 74zM887 1646q0 44 27 74 t80 30t80.5 -30t27.5 -74t-27.5 -73.5t-80.5 -29.5t-80 29.5t-27 73.5z" />
<glyph unicode="&#x1e85;" horiz-adv-x="1304" d="M49 1060h171l164 -737l197 737h137l202 -755l161 755h171l-259 -1060h-138l-207 759l-202 -759h-139zM332 1344q0 44 27 73.5t80 29.5t80.5 -29.5t27.5 -74t-27.5 -73.5t-80.5 -29t-80 29t-27 74zM753 1342q0 44 27 74t80 30t80.5 -30t27.5 -74t-27.5 -73.5t-80.5 -29.5 t-80 29.5t-27 73.5z" />
<glyph unicode="&#x1ea0;" horiz-adv-x="1156" d="M42 0l460 1427h154l460 -1427h-184l-113 372h-482l-111 -372h-184zM384 527h389l-195 649zM478 -240q0 44 27 74.5t80 30.5t80.5 -30.5t27.5 -74.5t-27.5 -73.5t-80.5 -29.5t-80 29.5t-27 73.5z" />
<glyph unicode="&#x1ea1;" horiz-adv-x="961" d="M112 289q0 162 109.5 257t300.5 97h128v113q0 95 -42.5 135t-128.5 40q-78 0 -127 -46.5t-49 -118.5h-174q0 82 48 156t129.5 116t181.5 42q163 0 247.5 -81t86.5 -236v-535q1 -122 34 -212v-16h-181q-15 34 -22 116q-92 -136 -236 -136t-224.5 81t-80.5 228zM285 310 q0 -90 36.5 -131t122.5 -41q64 0 121.5 35.5t84.5 88.5v252h-98q-124 -1 -195.5 -54.5t-71.5 -149.5zM318 -240q0 44 27 74.5t80 30.5t80.5 -30.5t27.5 -74.5t-27.5 -73.5t-80.5 -29.5t-80 29.5t-27 73.5z" />
<glyph unicode="&#x1ea2;" horiz-adv-x="1156" d="M42 0l460 1427h154l460 -1427h-184l-113 372h-482l-111 -372h-184zM384 527h389l-195 649zM511 1834l6 104q126 0 189 -50.5t63 -133.5q0 -63 -32 -101t-89 -48l-1 -70h-121l-1 150q58 4 84.5 19t26.5 54q0 76 -125 76z" />
<glyph unicode="&#x1ea3;" horiz-adv-x="961" d="M112 289q0 162 109.5 257t300.5 97h128v113q0 95 -42.5 135t-128.5 40q-78 0 -127 -46.5t-49 -118.5h-174q0 82 48 156t129.5 116t181.5 42q163 0 247.5 -81t86.5 -236v-535q1 -122 34 -212v-16h-181q-15 34 -22 116q-92 -136 -236 -136t-224.5 81t-80.5 228zM285 310 q0 -90 36.5 -131t122.5 -41q64 0 121.5 35.5t84.5 88.5v252h-98q-124 -1 -195.5 -54.5t-71.5 -149.5zM427 1531l6 104q126 0 189 -50.5t63 -133.5q0 -63 -32 -101t-89 -48l-1 -70h-121l-1 150q58 4 84.5 19t26.5 54q0 76 -125 76z" />
<glyph unicode="&#x1ea4;" horiz-adv-x="1156" d="M42 0l460 1427h154l460 -1427h-184l-113 372h-482l-111 -372h-184zM269 1520l247 258h137l245 -258h-181l-133 156l-134 -156h-181zM384 527h389l-195 649zM833 1693l116 254h184l-172 -254h-128z" />
<glyph unicode="&#x1ea5;" horiz-adv-x="961" d="M112 289q0 162 109.5 257t300.5 97h128v113q0 95 -42.5 135t-128.5 40q-78 0 -127 -46.5t-49 -118.5h-174q0 82 48 156t129.5 116t181.5 42q163 0 247.5 -81t86.5 -236v-535q1 -122 34 -212v-16h-181q-15 34 -22 116q-92 -136 -236 -136t-224.5 81t-80.5 228zM186 1217 l247 258h137l245 -258h-181l-133 156l-134 -156h-181zM285 310q0 -90 36.5 -131t122.5 -41q64 0 121.5 35.5t84.5 88.5v252h-98q-124 -1 -195.5 -54.5t-71.5 -149.5zM750 1390l116 254h184l-172 -254h-128z" />
<glyph unicode="&#x1ea6;" horiz-adv-x="1156" d="M34 1944h183l115 -253h-128zM42 0l460 1427h154l460 -1427h-184l-113 372h-482l-111 -372h-184zM268 1517l245 257h136l247 -257h-180l-135 155l-135 -155h-178zM384 527h389l-195 649z" />
<glyph unicode="&#x1ea7;" horiz-adv-x="961" d="M-50 1640h183l115 -253h-128zM112 289q0 162 109.5 257t300.5 97h128v113q0 95 -42.5 135t-128.5 40q-78 0 -127 -46.5t-49 -118.5h-174q0 82 48 156t129.5 116t181.5 42q163 0 247.5 -81t86.5 -236v-535q1 -122 34 -212v-16h-181q-15 34 -22 116q-92 -136 -236 -136 t-224.5 81t-80.5 228zM184 1213l245 257h136l247 -257h-180l-135 155l-135 -155h-178zM285 310q0 -90 36.5 -131t122.5 -41q64 0 121.5 35.5t84.5 88.5v252h-98q-124 -1 -195.5 -54.5t-71.5 -149.5z" />
<glyph unicode="&#x1ea8;" horiz-adv-x="1156" d="M42 0l460 1427h154l460 -1427h-184l-113 372h-482l-111 -372h-184zM268 1504l227 257h172l229 -257h-154l-161 182l-161 -182h-152zM384 527h389l-195 649zM803 1895l5 90q109 0 163.5 -43t54.5 -115q0 -53 -27.5 -87t-77.5 -42l-1 -59h-105l-1 129q51 4 75 16.5t24 44.5 q0 66 -110 66z" />
<glyph unicode="&#x1ea9;" horiz-adv-x="961" d="M112 289q0 162 109.5 257t300.5 97h128v113q0 95 -42.5 135t-128.5 40q-78 0 -127 -46.5t-49 -118.5h-174q0 82 48 156t129.5 116t181.5 42q163 0 247.5 -81t86.5 -236v-535q1 -122 34 -212v-16h-181q-15 34 -22 116q-92 -136 -236 -136t-224.5 81t-80.5 228zM184 1202 l227 257h172l229 -257h-154l-161 182l-161 -182h-152zM285 310q0 -90 36.5 -131t122.5 -41q64 0 121.5 35.5t84.5 88.5v252h-98q-124 -1 -195.5 -54.5t-71.5 -149.5zM719 1593l5 90q109 0 163.5 -43t54.5 -115q0 -53 -27.5 -87t-77.5 -42l-1 -59h-105l-1 129q51 4 75 16.5 t24 44.5q0 66 -110 66z" />
<glyph unicode="&#x1eaa;" horiz-adv-x="1156" d="M42 0l460 1427h154l460 -1427h-184l-113 372h-482l-111 -372h-184zM268 1484l254 239h119l255 -239h-154l-161 155l-161 -155h-152zM356 1809q0 64 41.5 111t94.5 47q33 0 84.5 -34t82.5 -34q25 0 46.5 23t21.5 48l69 -23q0 -59 -40.5 -105.5t-96.5 -46.5q-43 0 -88 34.5 t-79 34.5q-23 0 -45.5 -23.5t-22.5 -49.5zM384 527h389l-195 649z" />
<glyph unicode="&#x1eab;" horiz-adv-x="961" d="M112 289q0 162 109.5 257t300.5 97h128v113q0 95 -42.5 135t-128.5 40q-78 0 -127 -46.5t-49 -118.5h-174q0 82 48 156t129.5 116t181.5 42q163 0 247.5 -81t86.5 -236v-535q1 -122 34 -212v-16h-181q-15 34 -22 116q-92 -136 -236 -136t-224.5 81t-80.5 228zM184 1181 l254 239h119l255 -239h-154l-161 155l-161 -155h-152zM272 1506q0 64 41.5 111t94.5 47q33 0 84.5 -34t82.5 -34q25 0 46.5 23t21.5 48l69 -23q0 -59 -40.5 -105.5t-96.5 -46.5q-43 0 -88 34.5t-79 34.5q-23 0 -45.5 -23.5t-22.5 -49.5zM285 310q0 -90 36.5 -131t122.5 -41 q64 0 121.5 35.5t84.5 88.5v252h-98q-124 -1 -195.5 -54.5t-71.5 -149.5z" />
<glyph unicode="&#x1eac;" horiz-adv-x="1156" d="M42 0l460 1427h154l460 -1427h-184l-113 372h-482l-111 -372h-184zM326 1531v12l205 266h102l206 -268v-10h-139l-118 167l-117 -167h-139zM384 527h389l-195 649zM478 -240q0 44 27 74.5t80 30.5t80.5 -30.5t27.5 -74.5t-27.5 -73.5t-80.5 -29.5t-80 29.5t-27 73.5z" />
<glyph unicode="&#x1ead;" horiz-adv-x="961" d="M112 289q0 162 109.5 257t300.5 97h128v113q0 95 -42.5 135t-128.5 40q-78 0 -127 -46.5t-49 -118.5h-174q0 82 48 156t129.5 116t181.5 42q163 0 247.5 -81t86.5 -236v-535q1 -122 34 -212v-16h-181q-15 34 -22 116q-92 -136 -236 -136t-224.5 81t-80.5 228zM242 1227 v12l205 266h102l206 -268v-10h-139l-118 167l-117 -167h-139zM285 310q0 -90 36.5 -131t122.5 -41q64 0 121.5 35.5t84.5 88.5v252h-98q-124 -1 -195.5 -54.5t-71.5 -149.5zM318 -240q0 44 27 74.5t80 30.5t80.5 -30.5t27.5 -74.5t-27.5 -73.5t-80.5 -29.5t-80 29.5 t-27 73.5z" />
<glyph unicode="&#x1eae;" horiz-adv-x="1156" d="M42 0l460 1427h154l460 -1427h-184l-113 372h-482l-111 -372h-184zM324 1722h142q0 -55 29.5 -84.5t82.5 -29.5t82.5 29.5t29.5 84.5h141q0 -92 -69.5 -148.5t-183.5 -56.5q-112 0 -183 56t-71 149zM384 527h389l-195 649zM531 1741l85 195h140l-134 -195h-91z" />
<glyph unicode="&#x1eaf;" horiz-adv-x="961" d="M112 289q0 162 109.5 257t300.5 97h128v113q0 95 -42.5 135t-128.5 40q-78 0 -127 -46.5t-49 -118.5h-174q0 82 48 156t129.5 116t181.5 42q163 0 247.5 -81t86.5 -236v-535q1 -122 34 -212v-16h-181q-15 34 -22 116q-92 -136 -236 -136t-224.5 81t-80.5 228zM241 1419 h142q0 -55 29.5 -84.5t82.5 -29.5t82.5 29.5t29.5 84.5h141q0 -92 -69.5 -148.5t-183.5 -56.5q-112 0 -183 56t-71 149zM285 310q0 -90 36.5 -131t122.5 -41q64 0 121.5 35.5t84.5 88.5v252h-98q-124 -1 -195.5 -54.5t-71.5 -149.5zM448 1438l85 195h140l-134 -195h-91z" />
<glyph unicode="&#x1eb0;" horiz-adv-x="1156" d="M42 0l460 1427h154l460 -1427h-184l-113 372h-482l-111 -372h-184zM324 1722h142q0 -55 29.5 -84.5t82.5 -29.5t82.5 29.5t29.5 84.5h141q0 -92 -69.5 -148.5t-183.5 -56.5q-112 0 -183 56t-71 149zM384 527h389l-195 649zM414 1936h141l83 -195h-90z" />
<glyph unicode="&#x1eb1;" horiz-adv-x="961" d="M112 289q0 162 109.5 257t300.5 97h128v113q0 95 -42.5 135t-128.5 40q-78 0 -127 -46.5t-49 -118.5h-174q0 82 48 156t129.5 116t181.5 42q163 0 247.5 -81t86.5 -236v-535q1 -122 34 -212v-16h-181q-15 34 -22 116q-92 -136 -236 -136t-224.5 81t-80.5 228zM241 1419 h142q0 -55 29.5 -84.5t82.5 -29.5t82.5 29.5t29.5 84.5h141q0 -92 -69.5 -148.5t-183.5 -56.5q-112 0 -183 56t-71 149zM285 310q0 -90 36.5 -131t122.5 -41q64 0 121.5 35.5t84.5 88.5v252h-98q-124 -1 -195.5 -54.5t-71.5 -149.5zM331 1633h141l83 -195h-90z" />
<glyph unicode="&#x1eb2;" horiz-adv-x="1156" d="M42 0l460 1427h154l460 -1427h-184l-113 372h-482l-111 -372h-184zM327 1738h136q0 -54 28.5 -83.5t81.5 -29.5q50 0 78.5 29.5t28.5 83.5h136q0 -93 -68 -148.5t-175 -55.5q-110 0 -178 56.5t-68 147.5zM384 527h389l-195 649zM507 1990l6 80q122 0 182.5 -38t60.5 -103 q0 -47 -30.5 -76.5t-85.5 -37.5l-1 -60h-118l-1 121q57 4 82.5 15.5t25.5 40.5q0 58 -121 58z" />
<glyph unicode="&#x1eb3;" horiz-adv-x="961" d="M112 289q0 162 109.5 257t300.5 97h128v113q0 95 -42.5 135t-128.5 40q-78 0 -127 -46.5t-49 -118.5h-174q0 82 48 156t129.5 116t181.5 42q163 0 247.5 -81t86.5 -236v-535q1 -122 34 -212v-16h-181q-15 34 -22 116q-92 -136 -236 -136t-224.5 81t-80.5 228zM244 1434 h136q0 -54 28.5 -83.5t81.5 -29.5q50 0 78.5 29.5t28.5 83.5h136q0 -93 -68 -148.5t-175 -55.5q-110 0 -178 56.5t-68 147.5zM285 310q0 -90 36.5 -131t122.5 -41q64 0 121.5 35.5t84.5 88.5v252h-98q-124 -1 -195.5 -54.5t-71.5 -149.5zM424 1686l6 80q122 0 182.5 -38 t60.5 -103q0 -47 -30.5 -76.5t-85.5 -37.5l-1 -60h-118l-1 121q57 4 82.5 15.5t25.5 40.5q0 58 -121 58z" />
<glyph unicode="&#x1eb4;" horiz-adv-x="1156" d="M42 0l460 1427h154l460 -1427h-184l-113 372h-482l-111 -372h-184zM327 1743h139q0 -54 28.5 -85t81 -31t81 31t28.5 85h138q0 -93 -67.5 -151t-180.5 -58t-180.5 58.5t-67.5 150.5zM356 1835q0 74 39 126t98 52q40 0 93 -36.5t90 -36.5q27 0 46 25t19 62l74 -23 q0 -73 -40 -124.5t-99 -51.5q-48 0 -97.5 37t-85.5 37q-26 0 -45 -25t-19 -63zM384 527h389l-195 649z" />
<glyph unicode="&#x1eb5;" horiz-adv-x="961" d="M112 289q0 162 109.5 257t300.5 97h128v113q0 95 -42.5 135t-128.5 40q-78 0 -127 -46.5t-49 -118.5h-174q0 82 48 156t129.5 116t181.5 42q163 0 247.5 -81t86.5 -236v-535q1 -122 34 -212v-16h-181q-15 34 -22 116q-92 -136 -236 -136t-224.5 81t-80.5 228zM244 1440 h139q0 -54 28.5 -85t81 -31t81 31t28.5 85h138q0 -93 -67.5 -151t-180.5 -58t-180.5 58.5t-67.5 150.5zM273 1532q0 74 39 126t98 52q40 0 93 -36.5t90 -36.5q27 0 46 25t19 62l74 -23q0 -73 -40 -124.5t-99 -51.5q-48 0 -97.5 37t-85.5 37q-26 0 -45 -25t-19 -63zM285 310 q0 -90 36.5 -131t122.5 -41q64 0 121.5 35.5t84.5 88.5v252h-98q-124 -1 -195.5 -54.5t-71.5 -149.5z" />
<glyph unicode="&#x1eb6;" horiz-adv-x="1156" d="M42 0l460 1427h154l460 -1427h-184l-113 372h-482l-111 -372h-184zM289 1770h148q0 -69 37.5 -107.5t108.5 -38.5q69 0 107.5 38.5t38.5 107.5h147q0 -118 -80.5 -190.5t-212 -72.5t-213 73t-81.5 190zM384 527h389l-195 649zM478 -240q0 44 27 74.5t80 30.5t80.5 -30.5 t27.5 -74.5t-27.5 -73.5t-80.5 -29.5t-80 29.5t-27 73.5z" />
<glyph unicode="&#x1eb7;" horiz-adv-x="961" d="M112 289q0 162 109.5 257t300.5 97h128v113q0 95 -42.5 135t-128.5 40q-78 0 -127 -46.5t-49 -118.5h-174q0 82 48 156t129.5 116t181.5 42q163 0 247.5 -81t86.5 -236v-535q1 -122 34 -212v-16h-181q-15 34 -22 116q-92 -136 -236 -136t-224.5 81t-80.5 228zM205 1466 h148q0 -69 37.5 -107.5t108.5 -38.5q69 0 107.5 38.5t38.5 107.5h147q0 -118 -80.5 -190.5t-212 -72.5t-213 73t-81.5 190zM285 310q0 -90 36.5 -131t122.5 -41q64 0 121.5 35.5t84.5 88.5v252h-98q-124 -1 -195.5 -54.5t-71.5 -149.5zM318 -240q0 44 27 74.5t80 30.5 t80.5 -30.5t27.5 -74.5t-27.5 -73.5t-80.5 -29.5t-80 29.5t-27 73.5z" />
<glyph unicode="&#x1eb8;" horiz-adv-x="996" d="M154 0v1427h757v-155h-578v-459h505v-153h-505v-506h588v-154h-767zM416 -230q0 44 27 74.5t80 30.5t80.5 -30.5t27.5 -74.5t-27.5 -73.5t-80.5 -29.5t-80 29.5t-27 73.5z" />
<glyph unicode="&#x1eb9;" horiz-adv-x="939" d="M97 445v128q0 237 103.5 372t288.5 135q186 0 278 -118.5t94 -369.5v-114h-591v-24q0 -171 64 -248.5t184 -77.5q77 0 135 29t109 92l91 -110q-113 -159 -344 -159q-198 0 -304 118.5t-108 346.5zM270 627h418v24q-7 151 -54.5 215.5t-144.5 64.5q-108 0 -160 -74 t-59 -230zM374 -240q0 44 27 74.5t80 30.5t80.5 -30.5t27.5 -74.5t-27.5 -73.5t-80.5 -29.5t-80 29.5t-27 73.5z" />
<glyph unicode="&#x1eba;" horiz-adv-x="996" d="M154 0v1427h757v-155h-578v-459h505v-153h-505v-506h588v-154h-767zM458 1846l6 104q126 0 189 -50.5t63 -133.5q0 -63 -32 -101t-89 -48l-1 -70h-121l-1 150q58 4 84.5 19t26.5 54q0 76 -125 76z" />
<glyph unicode="&#x1ebb;" horiz-adv-x="939" d="M97 445v128q0 237 103.5 372t288.5 135q186 0 278 -118.5t94 -369.5v-114h-591v-24q0 -171 64 -248.5t184 -77.5q77 0 135 29t109 92l91 -110q-113 -159 -344 -159q-198 0 -304 118.5t-108 346.5zM270 627h418v24q-7 151 -54.5 215.5t-144.5 64.5q-108 0 -160 -74 t-59 -230zM413 1531l6 104q126 0 189 -50.5t63 -133.5q0 -63 -32 -101t-89 -48l-1 -70h-121l-1 150q58 4 84.5 19t26.5 54q0 76 -125 76z" />
<glyph unicode="&#x1ebc;" horiz-adv-x="996" d="M154 0v1427h757v-155h-578v-459h505v-153h-505v-506h588v-154h-767zM233 1542q0 107 52 174.5t130 67.5q29 0 52.5 -11t59.5 -36.5t58.5 -36t48.5 -10.5q34 0 56.5 32t22.5 79l112 -12q0 -103 -51 -170t-131 -67q-34 0 -58.5 10t-64 40t-57 36.5t-39.5 6.5 q-34 0 -56 -31.5t-22 -78.5z" />
<glyph unicode="&#x1ebd;" horiz-adv-x="939" d="M97 445v128q0 237 103.5 372t288.5 135q186 0 278 -118.5t94 -369.5v-114h-591v-24q0 -171 64 -248.5t184 -77.5q77 0 135 29t109 92l91 -110q-113 -159 -344 -159q-198 0 -304 118.5t-108 346.5zM188 1227q0 107 52 174.5t130 67.5q29 0 52.5 -11t59.5 -36.5t58.5 -36 t48.5 -10.5q34 0 56.5 32t22.5 79l112 -12q0 -103 -51 -170t-131 -67q-34 0 -58.5 10t-64 40t-57 36.5t-39.5 6.5q-34 0 -56 -31.5t-22 -78.5zM270 627h418v24q-7 151 -54.5 215.5t-144.5 64.5q-108 0 -160 -74t-59 -230z" />
<glyph unicode="&#x1ebe;" horiz-adv-x="996" d="M154 0v1427h757v-155h-578v-459h505v-153h-505v-506h588v-154h-767zM216 1532l247 258h137l245 -258h-181l-133 156l-134 -156h-181zM780 1705l116 254h184l-172 -254h-128z" />
<glyph unicode="&#x1ebf;" horiz-adv-x="939" d="M97 445v128q0 237 103.5 372t288.5 135q186 0 278 -118.5t94 -369.5v-114h-591v-24q0 -171 64 -248.5t184 -77.5q77 0 135 29t109 92l91 -110q-113 -159 -344 -159q-198 0 -304 118.5t-108 346.5zM171 1217l247 258h137l245 -258h-181l-133 156l-134 -156h-181zM270 627 h418v24q-7 151 -54.5 215.5t-144.5 64.5q-108 0 -160 -74t-59 -230zM735 1390l116 254h184l-172 -254h-128z" />
<glyph unicode="&#x1ec0;" horiz-adv-x="996" d="M-19 1955h183l115 -253h-128zM154 0v1427h757v-155h-578v-459h505v-153h-505v-506h588v-154h-767zM215 1528l245 257h136l247 -257h-180l-135 155l-135 -155h-178z" />
<glyph unicode="&#x1ec1;" horiz-adv-x="939" d="M-64 1640h183l115 -253h-128zM97 445v128q0 237 103.5 372t288.5 135q186 0 278 -118.5t94 -369.5v-114h-591v-24q0 -171 64 -248.5t184 -77.5q77 0 135 29t109 92l91 -110q-113 -159 -344 -159q-198 0 -304 118.5t-108 346.5zM170 1213l245 257h136l247 -257h-180 l-135 155l-135 -155h-178zM270 627h418v24q-7 151 -54.5 215.5t-144.5 64.5q-108 0 -160 -74t-59 -230z" />
</font>
</defs>
</svg>
